<?xml version="1.0" encoding="utf-8"?>
<!-- Generator: Adobe Illustrator 23.0.6, SVG Export Plug-In . SVG Version: 6.00 Build 0)  -->
<svg version="1.1" id="Слой_1" xmlns="http://www.w3.org/2000/svg" xmlns:xlink="http://www.w3.org/1999/xlink" x="0px" y="0px"
	 viewBox="0 0 1000 1000" style="enable-background:new 0 0 1000 1000;" xml:space="preserve">
<style type="text/css">
	.st0{fill:#60AAE2;}
	.st1{fill:#BF381D;}
	.st2{opacity:0;}
	.st3{fill:none;stroke:#000000;stroke-width:3;stroke-linecap:square;stroke-miterlimit:10;}
	.st4{fill:none;stroke:#000000;stroke-linecap:square;stroke-miterlimit:10;}
	.st5{fill:none;stroke:#000000;stroke-width:2;stroke-linecap:square;stroke-miterlimit:10;}
	.st6{fill:#FFFFFF;}
</style>
<g>
	<path class="st0" d="M50,958.4c0.6,0,1-0.2,1.3-0.5c0.3-0.3,0.4-0.8,0.4-1.3v-2.9c0-0.6,0.1-1.1,0.2-1.5c0.1-0.4,0.4-0.8,0.7-1.1
		c0.3-0.3,0.8-0.5,1.3-0.7c0.5-0.2,1.2-0.2,2-0.2h0.4v2.3h-0.5c-0.6,0-1,0.1-1.2,0.4c-0.2,0.3-0.3,0.7-0.3,1.2v2.6
		c0,0.7-0.1,1.2-0.3,1.7c-0.2,0.5-0.5,0.9-1.1,1.2c0.5,0.3,0.9,0.7,1.1,1.2c0.2,0.5,0.3,1,0.3,1.7v2.6c0,0.6,0.1,1,0.3,1.2
		c0.2,0.3,0.6,0.4,1.2,0.4h0.5v2.3H56c-0.8,0-1.5-0.1-2-0.2c-0.6-0.2-1-0.4-1.3-0.7c-0.3-0.3-0.6-0.7-0.7-1.1
		c-0.1-0.4-0.2-0.9-0.2-1.5v-2.9c0-0.5-0.1-1-0.4-1.3c-0.3-0.3-0.7-0.5-1.3-0.5V958.4z"/>
	<path class="st0" d="M70.9,951.9h3L73.9,969h-3l0.1-9.3h-5.1v5.7h-3v-13.5h3v5.2h5.1V951.9L70.9,951.9z"/>
	<path class="st0" d="M86.5,960.2c0,0.8-0.1,1.5-0.4,2.2c-0.2,0.7-0.6,1.2-1,1.7c-0.4,0.5-1,0.8-1.6,1.1c-0.6,0.3-1.3,0.4-2.1,0.4
		c-0.8,0-1.4-0.1-2-0.4c-0.6-0.3-1.2-0.6-1.6-1.1c-0.4-0.5-0.8-1-1-1.7c-0.2-0.7-0.4-1.4-0.4-2.2c0-0.8,0.1-1.5,0.4-2.2
		c0.2-0.7,0.6-1.2,1-1.7c0.5-0.5,1-0.8,1.6-1.1s1.3-0.4,2-0.4c0.7,0,1.4,0.1,2,0.4c0.6,0.3,1.1,0.6,1.6,1.1c0.4,0.5,0.8,1,1,1.7
		C86.4,958.7,86.5,959.4,86.5,960.2z M83.5,960.2c0-0.9-0.2-1.6-0.5-2.1c-0.4-0.5-0.9-0.8-1.5-0.8c-0.7,0-1.2,0.3-1.5,0.8
		c-0.4,0.5-0.5,1.2-0.5,2.1c0,0.9,0.2,1.6,0.5,2.1c0.4,0.5,0.9,0.8,1.5,0.8c0.7,0,1.2-0.3,1.5-0.8C83.3,961.8,83.5,961.1,83.5,960.2
		z"/>
	<path class="st0" d="M93.1,965.6c-0.4,0-0.8,0-1.2,0c-0.4,0-0.8-0.1-1.2-0.1c-0.4,0-0.8-0.1-1.1-0.2c-0.4-0.1-0.7-0.1-0.9-0.2v-9.8
		c0.2,0,0.6-0.1,0.9-0.1c0.4-0.1,0.7-0.1,1.1-0.1c0.4,0,0.8-0.1,1.2-0.1c0.4,0,0.8,0,1.2,0c0.9,0,1.6,0.1,2.1,0.2
		c0.6,0.2,1,0.4,1.4,0.7c0.4,0.3,0.6,0.6,0.8,0.9c0.2,0.3,0.2,0.7,0.2,1c0,0.5-0.1,0.9-0.3,1.2c-0.2,0.4-0.5,0.7-0.8,0.8
		c0.2,0.1,0.4,0.2,0.5,0.3c0.2,0.1,0.4,0.3,0.5,0.5c0.2,0.2,0.3,0.4,0.4,0.7c0.1,0.3,0.1,0.6,0.1,1c0,0.4-0.1,0.8-0.2,1.2
		c-0.2,0.4-0.4,0.7-0.8,1c-0.4,0.3-0.9,0.5-1.5,0.7C94.9,965.5,94.1,965.6,93.1,965.6z M93.2,959.2c0.5,0,0.9-0.1,1.2-0.2
		c0.3-0.1,0.4-0.4,0.4-0.8c0-0.4-0.2-0.7-0.5-0.8c-0.3-0.1-0.8-0.2-1.3-0.2c-0.2,0-0.4,0-0.7,0c-0.3,0-0.5,0-0.7,0.1v1.9H93.2
		L93.2,959.2z M91.6,963.2c0.2,0,0.4,0,0.7,0.1c0.3,0,0.6,0,0.9,0c0.6,0,1.1-0.1,1.5-0.2c0.4-0.2,0.5-0.5,0.5-0.9
		c0-0.4-0.2-0.7-0.5-0.9c-0.3-0.2-0.8-0.2-1.5-0.2h-1.7V963.2L91.6,963.2z"/>
	<path class="st0" d="M104,954.9c0.9,0,1.6,0.1,2.1,0.3c0.6,0.2,1,0.5,1.4,0.8c0.4,0.4,0.6,0.8,0.7,1.3c0.1,0.5,0.2,1.1,0.2,1.7v6
		c-0.4,0.1-1,0.2-1.7,0.3c-0.7,0.1-1.6,0.2-2.7,0.2c-0.7,0-1.3-0.1-1.8-0.2c-0.5-0.1-1-0.3-1.4-0.6c-0.4-0.3-0.7-0.6-0.9-1
		c-0.2-0.4-0.3-1-0.3-1.6c0-0.6,0.1-1.1,0.4-1.5c0.2-0.4,0.6-0.8,1-1c0.4-0.2,0.9-0.4,1.4-0.5c0.5-0.1,1-0.2,1.6-0.2
		c0.4,0,0.7,0,1,0c0.3,0,0.5,0.1,0.7,0.1v-0.3c0-0.5-0.1-0.9-0.5-1.2c-0.3-0.3-0.8-0.4-1.6-0.4c-0.5,0-1,0-1.5,0.1
		c-0.5,0.1-0.9,0.2-1.2,0.3l-0.4-2.3c0.2,0,0.4-0.1,0.6-0.2c0.3-0.1,0.5-0.1,0.8-0.1c0.3-0.1,0.6-0.1,1-0.1
		C103.4,954.9,103.7,954.9,104,954.9z M104.3,963.4c0.3,0,0.6,0,0.8,0c0.3,0,0.5,0,0.6-0.1v-2.2c-0.1,0-0.3,0-0.5-0.1
		c-0.2,0-0.5,0-0.7,0c-0.3,0-0.5,0-0.8,0c-0.2,0-0.5,0.1-0.6,0.2s-0.3,0.2-0.4,0.4c-0.1,0.2-0.1,0.4-0.1,0.6c0,0.5,0.1,0.8,0.4,0.9
		C103.3,963.3,103.7,963.4,104.3,963.4z"/>
	<path class="st0" d="M115.4,961.8c-0.4,0.6-0.8,1.2-1.1,1.8c-0.3,0.6-0.6,1.2-0.9,1.8h-3c0.4-0.8,0.8-1.6,1.2-2.3
		c0.4-0.7,0.8-1.3,1.1-1.8c-0.6-0.3-1-0.7-1.3-1.1c-0.3-0.5-0.5-1-0.5-1.7c0-1.1,0.4-2,1.2-2.6c0.8-0.6,2-0.9,3.4-0.9
		c0.3,0,0.7,0,1.1,0c0.4,0,0.8,0.1,1.2,0.1c0.4,0.1,0.8,0.1,1.1,0.2c0.4,0.1,0.7,0.1,0.9,0.2v10h-2.9v-3.6H115.4z M116.9,957.2
		c-0.1,0-0.3,0-0.6,0c-0.3,0-0.5,0-0.7,0c-0.7,0-1.2,0.1-1.5,0.4c-0.3,0.2-0.4,0.5-0.4,0.9c0,0.2,0,0.4,0.1,0.6
		c0.1,0.2,0.2,0.3,0.4,0.4c0.2,0.1,0.4,0.2,0.6,0.2c0.2,0,0.4,0.1,0.6,0.1h1.4V957.2L116.9,957.2z"/>
	<path class="st0" d="M130,956.9c0,0.6-0.2,1-0.5,1.3c-0.4,0.3-0.8,0.5-1.3,0.5s-0.9-0.2-1.3-0.5c-0.4-0.3-0.5-0.8-0.5-1.3
		c0-0.6,0.2-1,0.5-1.3c0.4-0.3,0.8-0.5,1.3-0.5s0.9,0.2,1.3,0.5C129.9,955.9,130,956.3,130,956.9z M130,963.8c0,0.6-0.2,1-0.5,1.3
		c-0.4,0.3-0.8,0.5-1.3,0.5s-0.9-0.2-1.3-0.5c-0.4-0.3-0.5-0.8-0.5-1.3c0-0.6,0.2-1,0.5-1.3c0.4-0.3,0.8-0.5,1.3-0.5
		s0.9,0.1,1.3,0.5C129.9,962.8,130,963.3,130,963.8z"/>
	<path class="st0" d="M135.7,962.8h2c0.5-0.8,0.9-1.7,1.1-2.5c0.3-0.8,0.5-1.6,0.6-2.5c0.1-0.8,0.2-1.7,0.2-2.6c0-0.9,0-1.8,0-2.8
		v-0.5h8.9v10.9h2.3v6.2H148v-3.6h-9.4v3.6h-2.9V962.8z M142.5,954.5c0,0.7-0.1,1.4-0.1,2.2c-0.1,0.7-0.2,1.5-0.3,2.2
		c-0.1,0.7-0.3,1.4-0.5,2.1c-0.2,0.7-0.5,1.3-0.8,1.9h4.9v-8.4H142.5z"/>
	<path class="st0" d="M156.4,954.9c0.9,0,1.6,0.1,2.1,0.3c0.6,0.2,1,0.5,1.4,0.8c0.4,0.4,0.6,0.8,0.7,1.3c0.1,0.5,0.2,1.1,0.2,1.7v6
		c-0.4,0.1-1,0.2-1.7,0.3c-0.7,0.1-1.6,0.2-2.7,0.2c-0.7,0-1.3-0.1-1.8-0.2c-0.5-0.1-1-0.3-1.4-0.6c-0.4-0.3-0.7-0.6-0.9-1
		c-0.2-0.4-0.3-1-0.3-1.6c0-0.6,0.1-1.1,0.4-1.5c0.2-0.4,0.6-0.8,1-1c0.4-0.2,0.9-0.4,1.4-0.5c0.5-0.1,1.1-0.2,1.6-0.2
		c0.4,0,0.7,0,1,0c0.3,0,0.5,0.1,0.7,0.1v-0.3c0-0.5-0.1-0.9-0.5-1.2c-0.3-0.3-0.8-0.4-1.6-0.4c-0.5,0-1,0-1.5,0.1
		c-0.5,0.1-0.9,0.2-1.2,0.3l-0.4-2.3c0.2,0,0.4-0.1,0.6-0.2c0.3-0.1,0.5-0.1,0.8-0.1c0.3-0.1,0.6-0.1,1-0.1
		C155.7,954.9,156,954.9,156.4,954.9z M156.6,963.4c0.3,0,0.6,0,0.8,0c0.3,0,0.5,0,0.6-0.1v-2.2c-0.1,0-0.3,0-0.5-0.1
		c-0.2,0-0.5,0-0.6,0c-0.3,0-0.5,0-0.8,0c-0.2,0-0.4,0.1-0.6,0.2c-0.2,0.1-0.3,0.2-0.4,0.4c-0.1,0.2-0.1,0.4-0.1,0.6
		c0,0.5,0.1,0.8,0.5,0.9C155.6,963.3,156.1,963.4,156.6,963.4z"/>
	<path class="st0" d="M171.9,957.5h-3.3v7.9h-2.9v-7.9h-3.3v-2.4h9.5V957.5L171.9,957.5z"/>
	<path class="st0" d="M177.4,954.9c0.9,0,1.6,0.1,2.1,0.3c0.6,0.2,1,0.5,1.4,0.8c0.4,0.4,0.6,0.8,0.7,1.3c0.1,0.5,0.2,1.1,0.2,1.7v6
		c-0.4,0.1-1,0.2-1.7,0.3c-0.7,0.1-1.6,0.2-2.7,0.2c-0.7,0-1.3-0.1-1.8-0.2c-0.5-0.1-1-0.3-1.4-0.6c-0.4-0.3-0.7-0.6-0.9-1
		c-0.2-0.4-0.3-1-0.3-1.6c0-0.6,0.1-1.1,0.4-1.5c0.2-0.4,0.6-0.8,1-1c0.4-0.2,0.9-0.4,1.4-0.5c0.5-0.1,1.1-0.2,1.6-0.2
		c0.4,0,0.7,0,1,0c0.3,0,0.5,0.1,0.7,0.1v-0.3c0-0.5-0.1-0.9-0.5-1.2c-0.3-0.3-0.8-0.4-1.6-0.4c-0.5,0-1,0-1.5,0.1
		c-0.5,0.1-0.9,0.2-1.2,0.3l-0.4-2.3c0.2,0,0.4-0.1,0.6-0.2c0.3-0.1,0.5-0.1,0.8-0.1c0.3-0.1,0.6-0.1,1-0.1
		C176.7,954.9,177,954.9,177.4,954.9z M177.6,963.4c0.3,0,0.6,0,0.8,0c0.3,0,0.5,0,0.6-0.1v-2.2c-0.1,0-0.3,0-0.5-0.1
		c-0.2,0-0.5,0-0.6,0c-0.3,0-0.5,0-0.8,0c-0.2,0-0.4,0.1-0.6,0.2c-0.2,0.1-0.3,0.2-0.4,0.4c-0.1,0.2-0.1,0.4-0.1,0.6
		c0,0.5,0.1,0.8,0.5,0.9C176.6,963.3,177.1,963.4,177.6,963.4z"/>
	<path class="st0" d="M183.9,958.3h5.6v2.6h-5.6V958.3z"/>
	<path class="st0" d="M201.2,960.2c0,0.8-0.1,1.5-0.4,2.2c-0.2,0.7-0.6,1.2-1,1.7c-0.4,0.5-1,0.8-1.6,1.1c-0.6,0.3-1.3,0.4-2.1,0.4
		c-0.8,0-1.4-0.1-2.1-0.4c-0.6-0.3-1.1-0.6-1.6-1.1c-0.4-0.5-0.8-1-1-1.7c-0.2-0.7-0.4-1.4-0.4-2.2c0-0.8,0.1-1.5,0.4-2.2
		c0.3-0.7,0.6-1.2,1.1-1.7c0.4-0.5,1-0.8,1.6-1.1c0.6-0.3,1.3-0.4,2-0.4c0.7,0,1.4,0.1,2,0.4s1.1,0.6,1.6,1.1c0.5,0.5,0.8,1,1,1.7
		C201.1,958.7,201.2,959.4,201.2,960.2z M198.2,960.2c0-0.9-0.2-1.6-0.5-2.1c-0.4-0.5-0.9-0.8-1.5-0.8c-0.7,0-1.2,0.3-1.5,0.8
		c-0.4,0.5-0.6,1.2-0.6,2.1c0,0.9,0.2,1.6,0.6,2.1c0.4,0.5,0.9,0.8,1.5,0.8c0.7,0,1.2-0.3,1.5-0.8
		C198.1,961.8,198.2,961.1,198.2,960.2z"/>
	<path class="st0" d="M211.9,957.5h-3.3v7.9h-2.9v-7.9h-3.3v-2.4h9.5V957.5z"/>
	<path class="st0" d="M212.1,963h1.3c0.4-0.4,0.6-1,0.8-1.6c0.2-0.7,0.4-1.3,0.4-2.1c0.1-0.7,0.1-1.5,0.1-2.2c0-0.7,0-1.4,0-1.9h8
		v7.9h1.7v5.3h-2.5v-2.9h-7.5v2.9h-2.5V963z M219.9,963v-5.5h-2.4c0,0.4,0,0.9-0.1,1.4c0,0.5-0.1,1-0.2,1.4
		c-0.1,0.5-0.2,0.9-0.3,1.4c-0.2,0.5-0.3,0.9-0.6,1.2H219.9L219.9,963z"/>
	<path class="st0" d="M225.8,960.3c0-0.9,0.1-1.7,0.4-2.4c0.3-0.7,0.6-1.2,1.1-1.7c0.5-0.5,1-0.8,1.6-1c0.6-0.2,1.2-0.3,1.8-0.3
		c1.5,0,2.6,0.4,3.5,1.3c0.8,0.9,1.3,2.2,1.3,3.9c0,0.2,0,0.3,0,0.5c0,0.2,0,0.4,0,0.5h-6.6c0.1,0.6,0.3,1.1,0.8,1.4
		c0.5,0.3,1.1,0.5,2,0.5c0.5,0,1.1-0.1,1.6-0.2c0.5-0.1,0.9-0.2,1.3-0.4l0.4,2.4c-0.2,0.1-0.4,0.2-0.6,0.2c-0.3,0.1-0.5,0.2-0.9,0.2
		c-0.3,0.1-0.7,0.1-1,0.1c-0.4,0-0.7,0.1-1.1,0.1c-0.9,0-1.7-0.1-2.4-0.4c-0.7-0.3-1.2-0.6-1.7-1.1c-0.5-0.5-0.8-1-1-1.7
		C225.9,961.8,225.8,961.1,225.8,960.3z M232.6,959.2c0-0.2-0.1-0.5-0.1-0.7c-0.1-0.2-0.2-0.4-0.3-0.6c-0.1-0.2-0.3-0.3-0.6-0.5
		c-0.2-0.1-0.5-0.2-0.9-0.2c-0.3,0-0.6,0-0.8,0.2c-0.2,0.1-0.4,0.3-0.6,0.4c-0.1,0.2-0.3,0.4-0.4,0.6c-0.1,0.2-0.1,0.5-0.2,0.7
		L232.6,959.2L232.6,959.2z"/>
	<path class="st0" d="M242.3,957.5c0,0.4,0,0.8-0.1,1.2c0,0.4,0,0.9-0.1,1.3c-0.1,0.4-0.1,0.8-0.2,1.2c-0.1,0.4-0.2,0.8-0.3,1.1
		c-0.2,0.4-0.3,0.8-0.6,1.2c-0.2,0.4-0.5,0.7-0.9,1c-0.4,0.3-0.8,0.5-1.3,0.7c-0.5,0.2-1.1,0.3-1.9,0.4l-0.4-2.4
		c0.7-0.1,1.2-0.3,1.5-0.6c0.4-0.2,0.6-0.5,0.8-0.9c0.1-0.3,0.3-0.7,0.3-1.1c0.1-0.4,0.1-0.9,0.2-1.4c0-0.5,0.1-1,0.1-1.5
		c0-0.5,0-1,0-1.4v-1.2h7.7v10.2h-2.9v-7.9H242.3z"/>
	<path class="st0" d="M259.8,960.7c-0.6,0-1,0.2-1.3,0.5c-0.3,0.3-0.4,0.8-0.4,1.3v2.9c0,0.6-0.1,1.1-0.2,1.5
		c-0.1,0.4-0.4,0.8-0.7,1.1c-0.3,0.3-0.8,0.5-1.3,0.7s-1.2,0.2-2.1,0.2h-0.4v-2.3h0.5c0.6,0,1-0.1,1.2-0.4c0.2-0.3,0.3-0.7,0.3-1.2
		v-2.6c0-0.7,0.1-1.2,0.3-1.7c0.2-0.5,0.6-0.9,1.1-1.2c-0.5-0.3-0.9-0.7-1.1-1.2c-0.2-0.5-0.3-1-0.3-1.7V954c0-0.5-0.1-1-0.3-1.2
		s-0.6-0.4-1.2-0.4h-0.5v-2.3h0.4c0.8,0,1.5,0.1,2.1,0.2c0.6,0.2,1,0.4,1.3,0.7s0.6,0.7,0.7,1.1c0.1,0.4,0.2,0.9,0.2,1.5v2.9
		c0,0.6,0.1,1,0.4,1.3c0.3,0.3,0.7,0.5,1.3,0.5V960.7z"/>
</g>
<g>
	<path d="M74.7,78.6h-6.5v-22h-9.7v22H52v-27h22.7V78.6z"/>
	<path d="M77.7,68.4c0-2,0.4-3.8,1.2-5.4c0.8-1.6,1.9-2.8,3.4-3.6c1.5-0.8,3.2-1.3,5.1-1.3c3,0,5.4,0.9,7.1,2.8
		c1.7,1.9,2.6,4.4,2.6,7.6v0.2c0,3.1-0.9,5.6-2.6,7.4c-1.7,1.8-4.1,2.8-7.1,2.8c-2.9,0-5.2-0.9-6.9-2.6c-1.7-1.7-2.7-4-2.8-7
		L77.7,68.4z M84,68.8c0,1.9,0.3,3.2,0.9,4.1c0.6,0.9,1.4,1.3,2.6,1.3c2.2,0,3.4-1.7,3.4-5.1v-0.6c0-3.6-1.2-5.4-3.5-5.4
		c-2.1,0-3.2,1.6-3.4,4.7L84,68.8z"/>
	<path d="M99,73.8c1-1,1.7-2,2.2-3c0.5-1,0.7-2.1,0.8-3.5L102,66l0.1-7.4h15.6v15.3h3v10.9h-6.3v-6.1h-10.9v6.1h-6.4l0-10.9H99z
		 M106.2,73.8h5.3V63.4h-3.2l0,1.7C108.2,68.7,107.5,71.6,106.2,73.8z"/>
	<path d="M141.2,68.8c0,3.1-0.7,5.6-2.1,7.5c-1.4,1.9-3.3,2.8-5.7,2.8c-1.8,0-3.4-0.7-4.5-2v9.4h-6.3V58.6h5.8l0.2,1.9
		c1.2-1.5,2.8-2.2,4.7-2.2c2.5,0,4.4,0.9,5.8,2.7c1.4,1.8,2.1,4.3,2.1,7.5V68.8z M135,68.4c0-3.6-1-5.3-3.1-5.3
		c-1.5,0-2.5,0.5-3,1.6v7.9c0.5,1.1,1.5,1.7,3,1.7c2,0,3-1.7,3.1-5.2V68.4z"/>
	<path d="M143.2,68.4c0-2,0.4-3.8,1.2-5.4c0.8-1.6,1.9-2.8,3.4-3.6c1.5-0.8,3.2-1.3,5.1-1.3c3,0,5.4,0.9,7.1,2.8
		c1.7,1.9,2.6,4.4,2.6,7.6v0.2c0,3.1-0.9,5.6-2.6,7.4c-1.7,1.8-4.1,2.8-7.1,2.8c-2.9,0-5.2-0.9-6.9-2.6c-1.7-1.7-2.7-4-2.8-7
		L143.2,68.4z M149.5,68.8c0,1.9,0.3,3.2,0.9,4.1c0.6,0.9,1.4,1.3,2.6,1.3c2.2,0,3.4-1.7,3.4-5.1v-0.6c0-3.6-1.2-5.4-3.5-5.4
		c-2.1,0-3.2,1.6-3.4,4.7L149.5,68.8z"/>
	<path d="M173.8,74.2c0.9,0,1.6-0.2,2-0.7c0.5-0.5,0.7-1.1,0.7-2h5.9c0,2.2-0.8,4-2.4,5.4S176.5,79,174,79c-2.9,0-5.2-0.9-6.9-2.7
		c-1.7-1.8-2.5-4.4-2.5-7.6v-0.3c0-2,0.4-3.8,1.1-5.4c0.7-1.6,1.8-2.7,3.2-3.6s3.1-1.3,5-1.3c2.6,0,4.7,0.7,6.2,2.2
		c1.5,1.4,2.3,3.4,2.3,5.9h-5.9c0-1-0.3-1.8-0.8-2.4c-0.5-0.6-1.2-0.8-2-0.8c-1.6,0-2.6,1-2.8,3.1c-0.1,0.7-0.1,1.6-0.1,2.7
		c0,2,0.2,3.4,0.7,4.2S172.8,74.2,173.8,74.2z"/>
	<path d="M202.6,63.4h-6.3v15.3H190V63.4h-6.2v-4.8h18.9V63.4z"/>
	<path d="M213.5,71.6h-1.9v7h-6.3V58.6h6.3v7.2h1.8l3.2-7.2h8l-5.9,9.3h0l6.4,10.8h-8.5L213.5,71.6z"/>
	<path d="M238.4,58.6h6.3v20.1h-6.3V67l-5.5,11.7h-6.3V58.6h6.3v11.7L238.4,58.6z"/>
	<path d="M250.3,85.9l-3.2-1.5l0.6-1.3c0.9-1.6,1.3-3.1,1.4-4.6v-4.6h5l0,4c0,1.4-0.4,2.9-1.1,4.3C252.3,83.8,251.4,85,250.3,85.9z"
		/>
	<path d="M267,68.4c0-2,0.4-3.8,1.2-5.4c0.8-1.6,1.9-2.8,3.4-3.6c1.5-0.8,3.2-1.3,5.1-1.3c3,0,5.4,0.9,7.1,2.8
		c1.7,1.9,2.6,4.4,2.6,7.6v0.2c0,3.1-0.9,5.6-2.6,7.4c-1.7,1.8-4.1,2.8-7.1,2.8c-2.9,0-5.2-0.9-6.9-2.6c-1.7-1.7-2.7-4-2.8-7
		L267,68.4z M273.2,68.8c0,1.9,0.3,3.2,0.9,4.1c0.6,0.9,1.4,1.3,2.6,1.3c2.2,0,3.4-1.7,3.4-5.1v-0.6c0-3.6-1.2-5.4-3.5-5.4
		c-2.1,0-3.2,1.6-3.4,4.7L273.2,68.8z"/>
	<path d="M297.6,74.2c0.9,0,1.6-0.2,2-0.7c0.5-0.5,0.7-1.1,0.7-2h5.9c0,2.2-0.8,4-2.4,5.4s-3.6,2.1-6.1,2.1c-2.9,0-5.2-0.9-6.9-2.7
		c-1.7-1.8-2.5-4.4-2.5-7.6v-0.3c0-2,0.4-3.8,1.1-5.4c0.7-1.6,1.8-2.7,3.2-3.6s3.1-1.3,5-1.3c2.6,0,4.7,0.7,6.2,2.2
		c1.5,1.4,2.3,3.4,2.3,5.9h-5.9c0-1-0.3-1.8-0.8-2.4c-0.5-0.6-1.2-0.8-2-0.8c-1.6,0-2.6,1-2.8,3.1c-0.1,0.7-0.1,1.6-0.1,2.7
		c0,2,0.2,3.4,0.7,4.2S296.5,74.2,297.6,74.2z"/>
	<path d="M316.9,69.9l3.3-11.3h6.7L318.7,82l-0.4,0.9c-1.2,2.6-3.2,3.9-6.2,3.9c-0.8,0-1.7-0.1-2.6-0.4v-4.5h0.8
		c0.9,0,1.5-0.1,2-0.4s0.8-0.7,1-1.4l0.5-1.3l-7-20.3h6.7L316.9,69.9z"/>
	<path d="M349.5,71.6h-2.4v7h-6.3v-7h-2.3l-3.4,7h-7.4l6-10.7l-6.2-9.3h7.8l3.8,7.2h1.8v-7.2h6.3v7.2h1.9l3.8-7.2h7.8l-6.3,9.4
		l0.2-0.1l6,10.8h-7.6L349.5,71.6z"/>
	<path d="M363.3,73.8c1-1,1.7-2,2.2-3c0.5-1,0.7-2.1,0.8-3.5l0.1-1.4l0.1-7.4h15.6v15.3h3v10.9h-6.3v-6.1H368v6.1h-6.4l0-10.9H363.3
		z M370.5,73.8h5.3V63.4h-3.2l0,1.7C372.6,68.7,371.9,71.6,370.5,73.8z"/>
	<path d="M397,79c-3.1,0-5.6-0.9-7.5-2.8c-1.9-1.8-2.9-4.2-2.9-7.2v-0.5c0-2.1,0.4-3.9,1.1-5.4c0.8-1.6,1.9-2.8,3.3-3.6
		c1.5-0.9,3.2-1.3,5.2-1.3c2.8,0,5,0.9,6.7,2.6c1.6,1.8,2.4,4.2,2.4,7.3v2.4H393c0.2,1.1,0.7,2,1.5,2.7c0.8,0.6,1.7,1,2.9,1
		c2,0,3.5-0.7,4.6-2.1l2.9,3.4c-0.8,1.1-1.9,1.9-3.3,2.6S398.6,79,397,79z M396.2,63c-1.8,0-2.9,1.2-3.3,3.6h6.3v-0.5
		c0-1-0.2-1.8-0.8-2.3C398,63.3,397.2,63,396.2,63z"/>
	<path d="M425.8,78.6h-6.3v-7.4h-5.5v7.4h-6.3V58.6h6.3v7.8h5.5v-7.8h6.3V78.6z"/>
	<path d="M447.1,78.6h-6.3v-7.4h-5.5v7.4h-6.3V58.6h6.3v7.8h5.5v-7.8h6.3V78.6z"/>
	<path d="M468.4,78.6h-6.3v-7.4h-5.5v7.4h-6.3V58.6h6.3v7.8h5.5v-7.8h6.3V78.6z"/>
	<path d="M478.5,64.1h3.2c1.9,0,3.5,0.3,4.9,0.9c1.4,0.6,2.5,1.5,3.2,2.6s1.1,2.4,1.1,3.9c0,2.2-0.8,3.9-2.5,5.2c-1.7,1.3-4,2-6.9,2
		h-9.4V58.6h6.3V64.1z M478.5,68.9v5h3.2c1,0,1.7-0.2,2.2-0.7s0.8-1,0.8-1.8c0-0.7-0.2-1.3-0.7-1.8s-1.3-0.7-2.3-0.7H478.5z
		 M500.2,78.6H494V58.6h6.3V78.6z"/>
	<path d="M513.9,79c-3.1,0-5.6-0.9-7.5-2.8c-1.9-1.8-2.9-4.2-2.9-7.2v-0.5c0-2.1,0.4-3.9,1.1-5.4c0.8-1.6,1.9-2.8,3.3-3.6
		c1.5-0.9,3.2-1.3,5.2-1.3c2.8,0,5,0.9,6.7,2.6c1.6,1.8,2.4,4.2,2.4,7.3v2.4H510c0.2,1.1,0.7,2,1.5,2.7c0.8,0.6,1.7,1,2.9,1
		c2,0,3.5-0.7,4.6-2.1l2.9,3.4c-0.8,1.1-1.9,1.9-3.3,2.6C517.1,78.7,515.6,79,513.9,79z M513.2,63c-1.8,0-2.9,1.2-3.3,3.6h6.3v-0.5
		c0-1-0.2-1.8-0.8-2.3C515,63.3,514.2,63,513.2,63z"/>
	<path d="M552.3,78.6H546V63.4h-5.5v15.3h-6.3V58.6h18.1V78.6z"/>
	<path d="M554.9,68.4c0-2,0.4-3.8,1.2-5.4c0.8-1.6,1.9-2.8,3.4-3.6c1.5-0.8,3.2-1.3,5.1-1.3c3,0,5.4,0.9,7.1,2.8
		c1.7,1.9,2.6,4.4,2.6,7.6v0.2c0,3.1-0.9,5.6-2.6,7.4c-1.7,1.8-4.1,2.8-7.1,2.8c-2.9,0-5.2-0.9-6.9-2.6c-1.7-1.7-2.7-4-2.8-7
		L554.9,68.4z M561.1,68.8c0,1.9,0.3,3.2,0.9,4.1c0.6,0.9,1.4,1.3,2.6,1.3c2.2,0,3.4-1.7,3.4-5.1v-0.6c0-3.6-1.2-5.4-3.5-5.4
		c-2.1,0-3.2,1.6-3.4,4.7L561.1,68.8z"/>
	<path d="M590.5,69.1l4.3,7.4H591l-5-7.2v-0.4l5-7.2h3.8L590.5,69.1z M598.2,69.1l4.3,7.4h-3.8l-5-7.2v-0.4l5-7.2h3.8L598.2,69.1z"
		/>
	<path d="M613.5,63c-1.7,0-2.5,0.9-2.5,2.7h-5.9c0-2.2,0.8-4,2.3-5.4c1.6-1.4,3.6-2.1,6.1-2.1c2.9,0,5.3,0.9,7,2.7
		c1.7,1.8,2.6,4.4,2.6,7.6v0.3c0,3.1-0.9,5.6-2.6,7.4s-4,2.8-6.9,2.8c-2.6,0-4.6-0.7-6.1-2.1s-2.3-3.4-2.3-5.9h5.9
		c0,1,0.2,1.8,0.7,2.4c0.4,0.6,1.1,0.9,1.9,0.9c1.9,0,2.9-1.3,3.2-3.9h-4.4v-3.4h4.4C616.5,64.3,615.4,63,613.5,63z"/>
	<path d="M634,71.6h-1.9v7h-6.3V58.6h6.3v7.2h1.8l3.2-7.2h8l-5.9,9.3h0l6.4,10.8h-8.5L634,71.6z"/>
	<path d="M655.4,74.2c0.9,0,1.6-0.2,2-0.7c0.5-0.5,0.7-1.1,0.7-2h5.9c0,2.2-0.8,4-2.4,5.4c-1.6,1.4-3.6,2.1-6.1,2.1
		c-2.9,0-5.2-0.9-6.9-2.7c-1.7-1.8-2.5-4.4-2.5-7.6v-0.3c0-2,0.4-3.8,1.1-5.4c0.7-1.6,1.8-2.7,3.2-3.6s3.1-1.3,5-1.3
		c2.6,0,4.7,0.7,6.2,2.2c1.5,1.4,2.3,3.4,2.3,5.9h-5.9c0-1-0.3-1.8-0.8-2.4c-0.5-0.6-1.2-0.8-2-0.8c-1.6,0-2.6,1-2.8,3.1
		c-0.1,0.7-0.1,1.6-0.1,2.7c0,2,0.2,3.4,0.7,4.2S654.3,74.2,655.4,74.2z"/>
	<path d="M684.2,63.4h-6.3v15.3h-6.3V63.4h-6.2v-4.8h18.9V63.4z"/>
	<path d="M705.2,68.8c0,3.1-0.7,5.6-2.1,7.5c-1.4,1.9-3.3,2.8-5.7,2.8c-1.8,0-3.4-0.7-4.5-2v9.4h-6.3V58.6h5.8l0.2,1.9
		c1.2-1.5,2.8-2.2,4.7-2.2c2.5,0,4.4,0.9,5.8,2.7c1.4,1.8,2.1,4.3,2.1,7.5V68.8z M698.9,68.4c0-3.6-1-5.3-3.1-5.3
		c-1.5,0-2.5,0.5-3,1.6v7.9c0.5,1.1,1.5,1.7,3,1.7c2,0,3-1.7,3.1-5.2V68.4z"/>
	<path d="M717.7,79c-3.1,0-5.6-0.9-7.5-2.8c-1.9-1.8-2.9-4.2-2.9-7.2v-0.5c0-2.1,0.4-3.9,1.1-5.4c0.8-1.6,1.9-2.8,3.3-3.6
		c1.5-0.9,3.2-1.3,5.2-1.3c2.8,0,5,0.9,6.7,2.6c1.6,1.8,2.4,4.2,2.4,7.3v2.4h-12.4c0.2,1.1,0.7,2,1.5,2.7c0.8,0.6,1.7,1,2.9,1
		c2,0,3.5-0.7,4.6-2.1l2.9,3.4c-0.8,1.1-1.9,1.9-3.3,2.6C720.8,78.7,719.3,79,717.7,79z M716.9,63c-1.8,0-2.9,1.2-3.3,3.6h6.3v-0.5
		c0-1-0.2-1.8-0.8-2.3C718.7,63.3,717.9,63,716.9,63z"/>
	<path d="M741.2,71.7l4.5-13.2h7.9v20.1h-6.3V67.5l-4,11.1h-4.2l-3.8-10.5v10.5H729V58.6h7.7L741.2,71.7z"/>
	<path d="M769.5,58.6h6.3v20.1h-6.3V67L764,78.6h-6.3V58.6h6.3v11.7L769.5,58.6z"/>
	<path d="M787.6,74.2c0.9,0,1.6-0.2,2-0.7c0.5-0.5,0.7-1.1,0.7-2h5.9c0,2.2-0.8,4-2.4,5.4c-1.6,1.4-3.6,2.1-6.1,2.1
		c-2.9,0-5.2-0.9-6.9-2.7c-1.7-1.8-2.5-4.4-2.5-7.6v-0.3c0-2,0.4-3.8,1.1-5.4c0.7-1.6,1.8-2.7,3.2-3.6s3.1-1.3,5-1.3
		c2.6,0,4.7,0.7,6.2,2.2c1.5,1.4,2.3,3.4,2.3,5.9h-5.9c0-1-0.3-1.8-0.8-2.4c-0.5-0.6-1.2-0.8-2-0.8c-1.6,0-2.6,1-2.8,3.1
		c-0.1,0.7-0.1,1.6-0.1,2.7c0,2,0.2,3.4,0.7,4.2S786.5,74.2,787.6,74.2z"/>
	<path d="M816.4,63.4h-6.3v15.3h-6.3V63.4h-6.2v-4.8h18.9V63.4z"/>
	<path d="M826,74.2c0.9,0,1.6-0.2,2-0.7c0.5-0.5,0.7-1.1,0.7-2h5.9c0,2.2-0.8,4-2.4,5.4c-1.6,1.4-3.6,2.1-6.1,2.1
		c-2.9,0-5.2-0.9-6.9-2.7c-1.7-1.8-2.5-4.4-2.5-7.6v-0.3c0-2,0.4-3.8,1.1-5.4c0.7-1.6,1.8-2.7,3.2-3.6s3.1-1.3,5-1.3
		c2.6,0,4.7,0.7,6.2,2.2c1.5,1.4,2.3,3.4,2.3,5.9h-5.9c0-1-0.3-1.8-0.8-2.4c-0.5-0.6-1.2-0.8-2-0.8c-1.6,0-2.6,1-2.8,3.1
		c-0.1,0.7-0.1,1.6-0.1,2.7c0,2,0.2,3.4,0.7,4.2S825,74.2,826,74.2z"/>
	<path d="M845.9,71.6H844v7h-6.3V58.6h6.3v7.2h1.8l3.2-7.2h8l-5.9,9.3h0l6.4,10.8h-8.5L845.9,71.6z"/>
	<path d="M870.8,58.6h6.3v20.1h-6.3V67l-5.5,11.7H859V58.6h6.3v11.7L870.8,58.6z"/>
	<path d="M893,71.7l4.5-13.2h7.9v20.1h-6.3V67.5l-4,11.1h-4.2l-3.8-10.5v10.5h-6.3V58.6h7.7L893,71.7z"/>
	<path d="M913.1,61.7l5,7.2v0.4l-5,7.2h-3.8l4.3-7.4l-4.3-7.4H913.1z M920.7,61.7l5,7.2v0.4l-5,7.2h-3.8l4.3-7.4l-4.3-7.4H920.7z"/>
	<path d="M63.4,100.6h6.3v20.1h-6.3V109l-5.5,11.7h-6.3v-20.1h6.3v11.7L63.4,100.6z"/>
	<path d="M86.5,111.1l4.3,7.4H87l-5-7.2v-0.4l5-7.2h3.8L86.5,111.1z M94.2,111.1l4.3,7.4h-3.8l-5-7.2v-0.4l5-7.2h3.8L94.2,111.1z"/>
	<path d="M119.7,105.4h-6.3v15.3H107v-15.3h-6.2v-4.8h18.9V105.4z"/>
	<path d="M130.5,121c-3.1,0-5.6-0.9-7.5-2.8c-1.9-1.8-2.9-4.2-2.9-7.2v-0.5c0-2.1,0.4-3.9,1.1-5.4c0.8-1.6,1.9-2.8,3.3-3.6
		c1.5-0.9,3.2-1.3,5.2-1.3c2.8,0,5,0.9,6.7,2.6c1.6,1.8,2.4,4.2,2.4,7.3v2.4h-12.4c0.2,1.1,0.7,2,1.5,2.7c0.8,0.6,1.7,1,2.9,1
		c2,0,3.5-0.7,4.6-2.1l2.9,3.4c-0.8,1.1-1.9,1.9-3.3,2.6S132.2,121,130.5,121z M129.8,105c-1.8,0-2.9,1.2-3.3,3.6h6.3v-0.5
		c0-1-0.2-1.8-0.8-2.3C131.6,105.3,130.8,105,129.8,105z"/>
	<path d="M160.1,110.8c0,3.1-0.7,5.6-2.1,7.5c-1.4,1.9-3.3,2.8-5.7,2.8c-1.8,0-3.4-0.7-4.5-2v9.4h-6.3v-27.8h5.8l0.2,1.9
		c1.2-1.5,2.8-2.2,4.7-2.2c2.5,0,4.4,0.9,5.8,2.7c1.4,1.8,2.1,4.3,2.1,7.5V110.8z M153.9,110.4c0-3.6-1-5.3-3.1-5.3
		c-1.5,0-2.5,0.5-3,1.6v7.9c0.5,1.1,1.5,1.7,3,1.7c2,0,3-1.7,3.1-5.2V110.4z"/>
	<path d="M181.5,110.8c0,3.1-0.7,5.6-2.1,7.5c-1.4,1.9-3.3,2.8-5.7,2.8c-1.8,0-3.4-0.7-4.5-2v9.4h-6.3v-27.8h5.8l0.2,1.9
		c1.2-1.5,2.8-2.2,4.7-2.2c2.5,0,4.4,0.9,5.8,2.7c1.4,1.8,2.1,4.3,2.1,7.5V110.8z M175.3,110.4c0-3.6-1-5.3-3.1-5.3
		c-1.5,0-2.5,0.5-3,1.6v7.9c0.5,1.1,1.5,1.7,3,1.7c2,0,3-1.7,3.1-5.2V110.4z"/>
	<path d="M183.5,110.4c0-2,0.4-3.8,1.2-5.4c0.8-1.6,1.9-2.8,3.4-3.6c1.5-0.8,3.2-1.3,5.1-1.3c3,0,5.4,0.9,7.1,2.8
		c1.7,1.9,2.6,4.4,2.6,7.6v0.2c0,3.1-0.9,5.6-2.6,7.4c-1.7,1.8-4.1,2.8-7.1,2.8c-2.9,0-5.2-0.9-6.9-2.6c-1.7-1.7-2.7-4-2.8-7
		L183.5,110.4z M189.7,110.8c0,1.9,0.3,3.2,0.9,4.1c0.6,0.9,1.4,1.3,2.6,1.3c2.2,0,3.4-1.7,3.4-5.1v-0.6c0-3.6-1.2-5.4-3.5-5.4
		c-2.1,0-3.2,1.6-3.4,4.7L189.7,110.8z"/>
	<path d="M224.2,110.8c0,3.1-0.7,5.6-2.1,7.5c-1.4,1.9-3.3,2.8-5.7,2.8c-1.8,0-3.4-0.7-4.5-2v9.4h-6.3v-27.8h5.8l0.2,1.9
		c1.2-1.5,2.8-2.2,4.7-2.2c2.5,0,4.4,0.9,5.8,2.7c1.4,1.8,2.1,4.3,2.1,7.5V110.8z M218,110.4c0-3.6-1-5.3-3.1-5.3
		c-1.5,0-2.5,0.5-3,1.6v7.9c0.5,1.1,1.5,1.7,3,1.7c2,0,3-1.7,3.1-5.2V110.4z"/>
	<path d="M238.7,100.6h6.3v20.1h-6.3V109l-5.5,11.7h-6.3v-20.1h6.3v11.7L238.7,100.6z"/>
	<path d="M256.8,116.2c0.9,0,1.6-0.2,2-0.7c0.5-0.5,0.7-1.1,0.7-2h5.9c0,2.2-0.8,4-2.4,5.4s-3.6,2.1-6.1,2.1c-2.9,0-5.2-0.9-6.9-2.7
		c-1.7-1.8-2.5-4.4-2.5-7.6v-0.3c0-2,0.4-3.8,1.1-5.4c0.7-1.6,1.8-2.7,3.2-3.6s3.1-1.3,5-1.3c2.6,0,4.7,0.7,6.2,2.2
		c1.5,1.4,2.3,3.4,2.3,5.9h-5.9c0-1-0.3-1.8-0.8-2.4c-0.5-0.6-1.2-0.8-2-0.8c-1.6,0-2.6,1-2.8,3.1c-0.1,0.7-0.1,1.6-0.1,2.7
		c0,2,0.2,3.4,0.7,4.2S255.7,116.2,256.8,116.2z"/>
	<path d="M285.6,105.4h-6.3v15.3H273v-15.3h-6.2v-4.8h18.9V105.4z"/>
	<path d="M299.6,100.6h6.3v20.1h-6.3V109l-5.5,11.7h-6.3v-20.1h6.3v11.7L299.6,100.6z"/>
	<path d="M327.1,120.6h-6.3v-6c-0.7,0.1-1.3,0.2-1.9,0.2c-3.3,0-5.8-0.6-7.4-1.9c-1.7-1.3-2.5-3.2-2.5-5.8v-6.5h6.3v6.6
		c0,1.1,0.3,1.8,0.8,2.2c0.5,0.4,1.5,0.6,2.9,0.6c0.6,0,1.2-0.1,1.9-0.2v-9.2h6.3V120.6z"/>
	<path d="M340.2,121c-3.1,0-5.6-0.9-7.5-2.8c-1.9-1.8-2.9-4.2-2.9-7.2v-0.5c0-2.1,0.4-3.9,1.1-5.4c0.8-1.6,1.9-2.8,3.3-3.6
		c1.5-0.9,3.2-1.3,5.2-1.3c2.8,0,5,0.9,6.7,2.6c1.6,1.8,2.4,4.2,2.4,7.3v2.4h-12.4c0.2,1.1,0.7,2,1.5,2.7c0.8,0.6,1.7,1,2.9,1
		c2,0,3.5-0.7,4.6-2.1l2.9,3.4c-0.8,1.1-1.9,1.9-3.3,2.6S341.8,121,340.2,121z M339.5,105c-1.8,0-2.9,1.2-3.3,3.6h6.3v-0.5
		c0-1-0.2-1.8-0.8-2.3C341.2,105.3,340.4,105,339.5,105z"/>
	<path d="M359.6,116.2c0.9,0,1.6-0.2,2-0.7c0.5-0.5,0.7-1.1,0.7-2h5.9c0,2.2-0.8,4-2.4,5.4s-3.6,2.1-6.1,2.1c-2.9,0-5.2-0.9-6.9-2.7
		c-1.7-1.8-2.5-4.4-2.5-7.6v-0.3c0-2,0.4-3.8,1.1-5.4c0.7-1.6,1.8-2.7,3.2-3.6s3.1-1.3,5-1.3c2.6,0,4.7,0.7,6.2,2.2
		c1.5,1.4,2.3,3.4,2.3,5.9h-5.9c0-1-0.3-1.8-0.8-2.4c-0.5-0.6-1.2-0.8-2-0.8c-1.6,0-2.6,1-2.8,3.1c-0.1,0.7-0.1,1.6-0.1,2.7
		c0,2,0.2,3.4,0.7,4.2S358.6,116.2,359.6,116.2z"/>
	<path d="M379.4,113.6h-1.9v7h-6.3v-20.1h6.3v7.2h1.8l3.2-7.2h8l-5.9,9.3h0l6.4,10.8h-8.5L379.4,113.6z"/>
	<path d="M404.3,100.6h6.3v20.1h-6.3V109l-5.5,11.7h-6.3v-20.1h6.3v11.7L404.3,100.6z"/>
	<path d="M426.5,113.7l4.5-13.2h7.9v20.1h-6.3v-11.1l-4,11.1h-4.2l-3.8-10.5v10.5h-6.3v-20.1h7.7L426.5,113.7z"/>
	<path d="M446.6,103.7l5,7.2v0.4l-5,7.2h-3.8l4.3-7.4l-4.3-7.4H446.6z M454.3,103.7l5,7.2v0.4l-5,7.2h-3.8l4.3-7.4l-4.3-7.4H454.3z"
		/>
	<path d="M480.6,116.2c0.9,0,1.6-0.2,2-0.7c0.5-0.5,0.7-1.1,0.7-2h5.9c0,2.2-0.8,4-2.4,5.4s-3.6,2.1-6.1,2.1c-2.9,0-5.2-0.9-6.9-2.7
		c-1.7-1.8-2.5-4.4-2.5-7.6v-0.3c0-2,0.4-3.8,1.1-5.4c0.7-1.6,1.8-2.7,3.2-3.6s3.1-1.3,5-1.3c2.6,0,4.7,0.7,6.2,2.2
		c1.5,1.4,2.3,3.4,2.3,5.9h-5.9c0-1-0.3-1.8-0.8-2.4c-0.5-0.6-1.2-0.8-2-0.8c-1.6,0-2.6,1-2.8,3.1c-0.1,0.7-0.1,1.6-0.1,2.7
		c0,2,0.2,3.4,0.7,4.2S479.6,116.2,480.6,116.2z"/>
	<path d="M509.5,105.4h-6.3v15.3h-6.3v-15.3h-6.2v-4.8h18.9V105.4z"/>
	<path d="M522.8,120.6c-0.2-0.4-0.4-1-0.6-1.8c-1.2,1.4-2.8,2.2-4.8,2.2c-1.9,0-3.5-0.6-4.8-1.7c-1.3-1.1-2-2.6-2-4.3
		c0-2.2,0.8-3.8,2.4-4.9c1.6-1.1,3.9-1.7,7-1.7h1.9v-1.1c0-1.9-0.8-2.8-2.4-2.8c-1.5,0-2.2,0.7-2.2,2.2h-6.3c0-1.9,0.8-3.5,2.5-4.7
		c1.7-1.2,3.8-1.8,6.3-1.8s4.6,0.6,6.1,1.9c1.5,1.2,2.2,3,2.3,5.1v8.9c0,1.8,0.3,3.3,0.9,4.2v0.3H522.8z M518.9,116.6
		c0.8,0,1.4-0.2,1.9-0.5c0.5-0.3,0.9-0.7,1.1-1.1v-3.2h-1.8c-2.2,0-3.3,1-3.3,2.9c0,0.6,0.2,1,0.6,1.4
		C517.8,116.4,518.3,116.6,518.9,116.6z"/>
	<path d="M549,105.4h-6.3v15.3h-6.3v-15.3h-6.2v-4.8H549V105.4z"/>
	<path d="M558,106.1h3.2c1.9,0,3.5,0.3,4.9,0.9c1.4,0.6,2.5,1.5,3.2,2.6s1.1,2.4,1.1,3.9c0,2.2-0.8,3.9-2.5,5.2c-1.7,1.3-4,2-6.9,2
		h-9.4v-20.1h6.3V106.1z M558,110.9v5h3.2c1,0,1.7-0.2,2.2-0.7c0.5-0.4,0.8-1,0.8-1.8c0-0.7-0.2-1.3-0.7-1.8s-1.3-0.7-2.3-0.7H558z"
		/>
	<path d="M590.2,100.6v20.1H584V114h-2.4l-3.5,6.6h-6.2l4.1-7.7c-1.2-0.6-2.1-1.3-2.8-2.3c-0.6-0.9-1-2-1-3.2c0-2,0.8-3.7,2.4-5
		c1.6-1.3,3.8-1.9,6.4-2H590.2z M578.4,107.7c0,0.6,0.2,1.1,0.8,1.6c0.5,0.4,1.1,0.7,1.9,0.7h2.9v-4.6h-2.8c-0.8,0-1.5,0.2-2,0.7
		C578.7,106.5,578.4,107.1,578.4,107.7z"/>
	<path d="M606.8,113.7l4.5-13.2h7.9v20.1h-6.3v-11.1l-4,11.1h-4.2l-3.8-10.5v10.5h-6.3v-20.1h7.7L606.8,113.7z"/>
	<path d="M628.1,102.9l-6-1.7l1.2-3.5l5.9,2.4l-0.5-6.5h4l-0.5,6.7l5.8-2.4l1.2,3.5l-6.1,1.7l4.1,4.9l-3.2,2.2l-3.4-5.5l-3.4,5.3
		l-3.2-2.1L628.1,102.9z"/>
</g>
<g>
	<path d="M536.8,950.6h1.9v14.2h-1.9v-11l-7,11H528v-14.2h1.9v11L536.8,950.6z"/>
	<path d="M546.1,963.5c0.6,0,1.2-0.2,1.7-0.6s0.7-0.9,0.8-1.5h1.7c0,0.6-0.2,1.2-0.6,1.7s-0.9,1-1.5,1.3s-1.3,0.5-2,0.5
		c-1.4,0-2.6-0.5-3.4-1.4s-1.3-2.3-1.3-3.9v-0.3c0-1,0.2-1.9,0.6-2.7s0.9-1.4,1.6-1.9s1.5-0.7,2.5-0.7c1.2,0,2.2,0.4,3,1.1
		s1.2,1.6,1.3,2.8h-1.7c-0.1-0.7-0.3-1.2-0.8-1.7s-1-0.7-1.7-0.7c-0.9,0-1.6,0.3-2.1,1s-0.8,1.6-0.8,2.9v0.3c0,1.2,0.3,2.2,0.8,2.8
		S545.2,963.5,546.1,963.5z"/>
	<path d="M560.2,955.7h-3.5v9.1h-1.8v-9.1h-3.5v-1.5h8.8V955.7z"/>
	<path d="M561,959.4c0-1,0.2-2,0.6-2.8s1-1.5,1.7-1.9s1.6-0.7,2.5-0.7c1.4,0,2.6,0.5,3.5,1.5s1.3,2.3,1.3,4v0.1c0,1-0.2,2-0.6,2.8
		s-1,1.5-1.7,1.9s-1.6,0.7-2.5,0.7c-1.4,0-2.6-0.5-3.5-1.5s-1.3-2.3-1.3-4V959.4z M562.9,959.7c0,1.2,0.3,2.1,0.8,2.8
		s1.3,1.1,2.2,1.1c0.9,0,1.6-0.4,2.2-1.1s0.8-1.7,0.8-3c0-1.2-0.3-2.1-0.8-2.8s-1.3-1.1-2.2-1.1c-0.9,0-1.6,0.4-2.2,1.1
		S562.9,958.3,562.9,959.7z"/>
	<path d="M580.9,964.8h-1.8V961c-0.8,0.2-1.6,0.3-2.4,0.3c-1.3,0-2.3-0.3-3-1s-1-1.6-1.1-2.9v-3.2h1.8v3.2c0,1.6,0.8,2.4,2.3,2.4
		c0.8,0,1.6-0.1,2.4-0.3v-5.3h1.8V964.8z"/>
	<path d="M592.4,964.8h-1.8v-4.5h-4.9v4.5H584v-10.6h1.8v4.6h4.9v-4.6h1.8V964.8z"/>
	<path d="M602.2,954.3h1.8v10.6h-1.8v-7.7l-4.9,7.7h-1.8v-10.6h1.8v7.7L602.2,954.3z"/>
	<path d="M610.2,960.3h-1.3v4.5H607v-10.6h1.8v4.5h1.2l3.6-4.5h2.2l-4.2,5.1l4.5,5.5h-2.3L610.2,960.3z"/>
	<path d="M617.6,963.9c0-0.3,0.1-0.6,0.3-0.8s0.5-0.3,0.8-0.3s0.7,0.1,0.8,0.3s0.3,0.5,0.3,0.8c0,0.3-0.1,0.5-0.3,0.8
		s-0.5,0.3-0.8,0.3s-0.6-0.1-0.8-0.3S617.6,964.2,617.6,963.9z M617.6,955.3c0-0.3,0.1-0.6,0.3-0.8s0.5-0.3,0.8-0.3s0.7,0.1,0.8,0.3
		s0.3,0.5,0.3,0.8c0,0.3-0.1,0.5-0.3,0.8s-0.5,0.3-0.8,0.3s-0.6-0.1-0.8-0.3S617.6,955.6,617.6,955.3z"/>
	<path d="M638.2,960.3c-0.2,1.5-0.7,2.7-1.7,3.5s-2.2,1.2-3.7,1.2c-1.7,0-3-0.6-4-1.8s-1.5-2.8-1.5-4.8V957c0-1.3,0.2-2.5,0.7-3.5
		s1.1-1.8,2-2.3s1.9-0.8,3-0.8c1.5,0,2.7,0.4,3.6,1.3s1.4,2,1.6,3.5h-1.9c-0.2-1.1-0.5-2-1.1-2.5c-0.5-0.5-1.3-0.8-2.3-0.8
		c-1.2,0-2.1,0.4-2.8,1.3c-0.7,0.9-1,2.1-1,3.8v1.4c0,1.5,0.3,2.8,1,3.7s1.5,1.4,2.7,1.4c1,0,1.8-0.2,2.4-0.7s0.9-1.3,1.1-2.5H638.2
		z"/>
	<path d="M643.9,962.2l2.5-7.9h1.9l-4.2,12.2c-0.7,1.8-1.7,2.6-3.1,2.6l-0.3,0l-0.7-0.1v-1.5l0.5,0c0.6,0,1.1-0.1,1.4-0.4
		s0.6-0.7,0.8-1.4l0.4-1.1l-3.8-10.4h2L643.9,962.2z"/>
	<path d="M649.3,963.4l0.6-0.8c0.7-0.9,1.1-2.3,1.2-4.1l0.2-4.2h6.8v9.1h1.4v4.6h-1.8v-3.1h-7.4v3.1h-1.8l0-4.6H649.3z M651.5,963.4
		h4.9v-7.4h-3.3l-0.1,2.5C652.8,960.6,652.3,962.2,651.5,963.4z"/>
	<path d="M665.9,965c-1.4,0-2.6-0.5-3.5-1.4s-1.3-2.2-1.3-3.8v-0.3c0-1,0.2-2,0.6-2.8s1-1.5,1.7-1.9s1.5-0.7,2.3-0.7
		c1.4,0,2.4,0.5,3.2,1.4s1.1,2.2,1.1,3.9v0.8h-7.2c0,1,0.3,1.9,0.9,2.5s1.3,1,2.2,1c0.6,0,1.2-0.1,1.6-0.4s0.8-0.6,1.2-1l1.1,0.9
		C669,964.3,667.6,965,665.9,965z M665.6,955.5c-0.7,0-1.3,0.3-1.8,0.8s-0.8,1.3-0.9,2.2h5.3v-0.1c-0.1-0.9-0.3-1.6-0.7-2.1
		S666.4,955.5,665.6,955.5z"/>
	<path d="M676.7,954.9c1.3,0,2.4,0.4,3.2,1.3s1.2,2.1,1.2,3.5v0.2c0,1-0.2,1.9-0.6,2.7s-0.9,1.4-1.7,1.8s-1.5,0.6-2.5,0.6
		c-1.4,0-2.6-0.5-3.4-1.4s-1.3-2.2-1.3-3.8v-0.9c0-2.2,0.4-4,1.2-5.3s2-2.1,3.6-2.4c0.9-0.2,1.5-0.4,1.8-0.6s0.5-0.6,0.5-1h1.5
		c0,0.8-0.2,1.4-0.6,1.9s-1,0.8-1.8,1l-1.3,0.3c-1.1,0.3-1.9,0.7-2.4,1.3s-0.9,1.4-1,2.4C674.2,955.4,675.3,954.9,676.7,954.9z
		 M676.4,956.4c-0.9,0-1.6,0.3-2.1,0.9s-0.8,1.4-0.8,2.5v0.2c0,1.1,0.3,2,0.8,2.7s1.2,1,2.1,1c0.9,0,1.6-0.3,2.1-1s0.8-1.6,0.8-2.9
		c0-1-0.3-1.8-0.8-2.4S677.3,956.4,676.4,956.4z"/>
	<path d="M691.6,964.8h-1.8v-4.5h-4.9v4.5h-1.8v-10.6h1.8v4.6h4.9v-4.6h1.8V964.8z"/>
	<path d="M696.5,957.9h2.7c1.2,0,2.1,0.3,2.8,0.9s1,1.4,1,2.5c0,1.1-0.4,1.9-1.1,2.5s-1.7,1-2.9,1h-4.5v-10.6h1.8V957.9z
		 M696.5,959.4v4h2.7c0.7,0,1.2-0.2,1.6-0.5s0.6-0.8,0.6-1.4c0-0.6-0.2-1.1-0.5-1.4s-0.9-0.6-1.5-0.6H696.5z M706.9,964.8H705v-10.6
		h1.8V964.8z"/>
	<path d="M716.9,954.3h1.8v10.6h-1.8v-7.7l-4.9,7.7h-1.8v-10.6h1.8v7.7L716.9,954.3z M717.3,950.4c0,0.8-0.3,1.4-0.8,1.9
		s-1.2,0.7-2.1,0.7s-1.6-0.2-2.1-0.7s-0.8-1.1-0.8-1.9h1.5c0,0.5,0.1,0.8,0.4,1.1s0.6,0.4,1.1,0.4c0.5,0,0.8-0.1,1.1-0.4
		s0.4-0.6,0.4-1.1H717.3z"/>
	<path d="M726.4,963.4l0.6-0.8c0.7-0.9,1.1-2.3,1.2-4.1l0.2-4.2h6.8v9.1h1.4v4.6h-1.8v-3.1h-7.4v3.1h-1.8l0-4.6H726.4z M728.6,963.4
		h4.9v-7.4h-3.3l-0.1,2.5C729.9,960.6,729.5,962.2,728.6,963.4z"/>
	<path d="M743,965c-1.4,0-2.6-0.5-3.5-1.4s-1.3-2.2-1.3-3.8v-0.3c0-1,0.2-2,0.6-2.8s1-1.5,1.7-1.9s1.5-0.7,2.3-0.7
		c1.4,0,2.4,0.5,3.2,1.4s1.1,2.2,1.1,3.9v0.8h-7.2c0,1,0.3,1.9,0.9,2.5s1.3,1,2.2,1c0.6,0,1.2-0.1,1.6-0.4s0.8-0.6,1.2-1l1.1,0.9
		C746.1,964.3,744.7,965,743,965z M742.7,955.5c-0.7,0-1.3,0.3-1.8,0.8s-0.8,1.3-0.9,2.2h5.3v-0.1c-0.1-0.9-0.3-1.6-0.7-2.1
		S743.5,955.5,742.7,955.5z"/>
	<path d="M757.8,964.8H756v-9.1h-4.9v9.1h-1.8v-10.6h8.5V964.8z"/>
	<path d="M767.2,964.8c-0.1-0.2-0.2-0.6-0.3-1.1c-0.8,0.9-1.8,1.3-3,1.3c-1,0-1.9-0.3-2.6-0.9s-1-1.3-1-2.2c0-1.1,0.4-2,1.3-2.6
		s2-0.9,3.5-0.9h1.8v-0.8c0-0.6-0.2-1.1-0.6-1.5s-0.9-0.6-1.7-0.6c-0.6,0-1.2,0.2-1.6,0.5s-0.7,0.7-0.7,1.2h-1.8
		c0-0.5,0.2-1,0.6-1.5s0.9-0.9,1.5-1.2s1.3-0.4,2.1-0.4c1.2,0,2.2,0.3,2.9,0.9s1,1.4,1.1,2.5v4.9c0,1,0.1,1.7,0.4,2.3v0.2H767.2z
		 M764.2,963.5c0.6,0,1.1-0.1,1.6-0.4s0.9-0.7,1.1-1.1v-2.2h-1.4c-2.2,0-3.3,0.6-3.3,1.9c0,0.6,0.2,1,0.6,1.3
		S763.7,963.5,764.2,963.5z"/>
	<path d="M780.5,959.7c0,1.6-0.4,2.9-1.1,3.9s-1.7,1.5-3,1.5c-1.3,0-2.3-0.4-3-1.2v5.1h-1.8v-14.6h1.7l0.1,1.2
		c0.7-0.9,1.8-1.4,3.1-1.4c1.3,0,2.3,0.5,3,1.4s1.1,2.3,1.1,4V959.7z M778.7,959.5c0-1.2-0.3-2.1-0.8-2.8s-1.2-1-2.1-1
		c-1.1,0-1.9,0.5-2.5,1.5v5c0.5,1,1.4,1.4,2.5,1.4c0.9,0,1.6-0.3,2.1-1S778.7,960.8,778.7,959.5z"/>
	<path d="M789.9,955.7h-3.5v9.1h-1.8v-9.1h-3.5v-1.5h8.8V955.7z"/>
	<path d="M798,964.8c-0.1-0.2-0.2-0.6-0.3-1.1c-0.8,0.9-1.8,1.3-3,1.3c-1,0-1.9-0.3-2.6-0.9s-1-1.3-1-2.2c0-1.1,0.4-2,1.3-2.6
		s2-0.9,3.5-0.9h1.8v-0.8c0-0.6-0.2-1.1-0.6-1.5s-0.9-0.6-1.7-0.6c-0.6,0-1.2,0.2-1.6,0.5s-0.7,0.7-0.7,1.2h-1.8
		c0-0.5,0.2-1,0.6-1.5s0.9-0.9,1.5-1.2s1.3-0.4,2.1-0.4c1.2,0,2.2,0.3,2.9,0.9s1,1.4,1.1,2.5v4.9c0,1,0.1,1.7,0.4,2.3v0.2H798z
		 M795,963.5c0.6,0,1.1-0.1,1.6-0.4s0.9-0.7,1.1-1.1v-2.2h-1.4c-2.2,0-3.3,0.6-3.3,1.9c0,0.6,0.2,1,0.6,1.3S794.4,963.5,795,963.5z"
		/>
	<path d="M808.5,962.4l3.6-8.2h2.3v10.6h-1.8v-7.7l-3.4,7.7h-1.2l-3.5-7.9v7.9h-1.8v-10.6h2.3L808.5,962.4z"/>
	<path d="M821.6,965c-1.4,0-2.6-0.5-3.5-1.4s-1.3-2.2-1.3-3.8v-0.3c0-1,0.2-2,0.6-2.8s1-1.5,1.7-1.9s1.5-0.7,2.3-0.7
		c1.4,0,2.4,0.5,3.2,1.4s1.1,2.2,1.1,3.9v0.8h-7.2c0,1,0.3,1.9,0.9,2.5s1.3,1,2.2,1c0.6,0,1.2-0.1,1.6-0.4s0.8-0.6,1.2-1l1.1,0.9
		C824.7,964.3,823.4,965,821.6,965z M821.4,955.5c-0.7,0-1.3,0.3-1.8,0.8s-0.8,1.3-0.9,2.2h5.3v-0.1c-0.1-0.9-0.3-1.6-0.7-2.1
		S822.1,955.5,821.4,955.5z"/>
	<path d="M836.4,964.8h-1.8v-4.5h-4.9v4.5H828v-10.6h1.8v4.6h4.9v-4.6h1.8V964.8z"/>
	<path d="M847.2,955.7h-3.5v9.1h-1.8v-9.1h-3.5v-1.5h8.8V955.7z"/>
	<path d="M862.5,964.8h-1.8v-9.1h-4.9v9.1h-1.8v-10.6h8.5V964.8z"/>
	<path d="M874.4,959.7c0,1.6-0.4,2.9-1.1,3.9s-1.7,1.5-3,1.5c-1.3,0-2.3-0.4-3-1.2v5.1h-1.8v-14.6h1.7l0.1,1.2
		c0.7-0.9,1.8-1.4,3.1-1.4c1.3,0,2.3,0.5,3,1.4s1.1,2.3,1.1,4V959.7z M872.6,959.5c0-1.2-0.3-2.1-0.8-2.8s-1.2-1-2.1-1
		c-1.1,0-1.9,0.5-2.5,1.5v5c0.5,1,1.4,1.4,2.5,1.4c0.9,0,1.6-0.3,2.1-1S872.6,960.8,872.6,959.5z"/>
	<path d="M883.5,954.3h1.8v10.6h-1.8v-7.7l-4.9,7.7h-1.8v-10.6h1.8v7.7L883.5,954.3z"/>
	<path d="M893.4,964.8v-14.2h4.6c1.5,0,2.7,0.3,3.5,1s1.2,1.6,1.2,2.8c0,0.7-0.2,1.3-0.6,1.8s-0.9,0.9-1.5,1.2
		c0.8,0.2,1.4,0.6,1.8,1.2s0.7,1.3,0.7,2.2c0,1.3-0.4,2.3-1.2,3s-2,1.1-3.5,1.1H893.4z M895.3,956.7h2.8c0.8,0,1.5-0.2,2-0.6
		s0.7-1,0.7-1.7c0-0.8-0.2-1.4-0.7-1.7s-1.1-0.5-2.1-0.5h-2.8V956.7z M895.3,958.2v5.1h3.1c0.9,0,1.6-0.2,2.1-0.7s0.8-1.1,0.8-1.9
		c0-1.7-0.9-2.6-2.8-2.6H895.3z"/>
	<path d="M916.3,960.3c-0.2,1.5-0.7,2.7-1.7,3.5s-2.2,1.2-3.7,1.2c-1.7,0-3-0.6-4-1.8s-1.5-2.8-1.5-4.8V957c0-1.3,0.2-2.5,0.7-3.5
		s1.1-1.8,2-2.3s1.9-0.8,3-0.8c1.5,0,2.7,0.4,3.6,1.3s1.4,2,1.6,3.5h-1.9c-0.2-1.1-0.5-2-1.1-2.5c-0.5-0.5-1.3-0.8-2.3-0.8
		c-1.2,0-2.1,0.4-2.8,1.3c-0.7,0.9-1,2.1-1,3.8v1.4c0,1.5,0.3,2.8,1,3.7s1.5,1.4,2.7,1.4c1,0,1.8-0.2,2.4-0.7s0.9-1.3,1.1-2.5H916.3
		z"/>
	<path d="M925.7,959.3v5.6h-1.9v-14.2h5.2c1.6,0,2.8,0.4,3.7,1.2s1.3,1.8,1.3,3.2c0,1.4-0.4,2.4-1.3,3.2s-2.1,1.1-3.7,1.1H925.7z
		 M925.7,957.7h3.4c1,0,1.8-0.2,2.3-0.7s0.8-1.2,0.8-2c0-0.8-0.3-1.5-0.8-2s-1.3-0.8-2.2-0.8h-3.5V957.7z"/>
	<path d="M943.5,952h0.3c1.1,0,2.1,0.3,2.9,0.8s1.6,1.2,2.1,2s0.7,1.8,0.7,2.9c0,1.1-0.2,2.1-0.7,2.9s-1.2,1.6-2.1,2.1
		s-1.8,0.7-2.9,0.8h-0.3v1.9h-1.8v-1.9h-0.3c-1.1,0-2.1-0.2-3-0.7s-1.6-1.2-2.1-2.1s-0.7-1.9-0.7-2.9s0.2-2.1,0.7-2.9
		s1.2-1.6,2.1-2.1s1.9-0.7,3-0.7h0.3v-2h1.8V952z M941.4,953.5c-1.2,0-2.2,0.4-2.9,1.1s-1.1,1.8-1.1,3.1c0,1.3,0.4,2.4,1.1,3.1
		s1.7,1.1,2.9,1.1h0.3v-8.5H941.4z M943.5,953.5v8.5h0.3c1.2,0,2.2-0.4,2.9-1.1s1-1.8,1-3.1c0-1.3-0.3-2.3-1-3.1s-1.7-1.1-3-1.1
		H943.5z"/>
</g>
<g>
	<polyline class="st1" points="500,538 524,516 620,540 883.2,923.2 500,738 374.1,665.8 426,540 484.5,524.5 500,538 	"/>
	<circle class="st2" cx="500" cy="540" r="400"/>
	<circle class="st3" cx="500" cy="540" r="400"/>
	<line class="st2" x1="500" y1="540" x2="500" y2="140"/>
	<line class="st2" x1="500" y1="540" x2="900" y2="540"/>
	<line class="st2" x1="500" y1="540" x2="500" y2="940"/>
	<line class="st2" x1="500" y1="540" x2="100" y2="540"/>
	<g>
		<line class="st4" x1="500" y1="540" x2="500" y2="140"/>
		<line class="st4" x1="500" y1="540" x2="900" y2="540"/>
		<line class="st4" x1="500" y1="540" x2="500" y2="940"/>
		<line class="st4" x1="500" y1="540" x2="100" y2="540"/>
	</g>
	<line class="st2" x1="500" y1="540" x2="782.8" y2="257.2"/>
	<line class="st5" x1="500" y1="540" x2="782.8" y2="257.2"/>
	<line class="st2" x1="500" y1="540" x2="782.8" y2="822.8"/>
	<line class="st5" x1="500" y1="540" x2="782.8" y2="822.8"/>
	<line class="st2" x1="500" y1="540" x2="217.2" y2="822.8"/>
	<line class="st5" x1="500" y1="540" x2="217.2" y2="822.8"/>
	<line class="st2" x1="500" y1="540" x2="217.2" y2="257.2"/>
	<line class="st5" x1="500" y1="540" x2="217.2" y2="257.2"/>
	<rect x="494" y="339" width="12" height="2"/>
	<polygon points="636.5,395 637.9,393.6 646.4,402.1 645,403.5 	"/>
	<rect x="699" y="534" width="2" height="12"/>
	<polygon points="645,676.5 646.4,677.9 637.9,686.4 636.5,685 	"/>
	<rect x="494" y="739" width="12" height="2"/>
	<polygon points="363.5,685 362.1,686.4 353.6,677.9 355,676.5 	"/>
	<rect x="299" y="534" width="2" height="12"/>
	<polygon points="355,403.5 353.6,402.1 362.1,393.6 363.5,395 	"/>
	<rect x="497" y="539" width="6" height="2"/>
	<rect x="497" y="519" width="6" height="2"/>
	<rect x="497" y="499" width="6" height="2"/>
	<rect x="497" y="479" width="6" height="2"/>
	<rect x="497" y="459" width="6" height="2"/>
	<rect x="497" y="439" width="6" height="2"/>
	<rect x="497" y="419" width="6" height="2"/>
	<rect x="497" y="399" width="6" height="2"/>
	<rect x="497" y="379" width="6" height="2"/>
	<rect x="497" y="359" width="6" height="2"/>
	<rect x="497" y="339" width="6" height="2"/>
	<rect x="497" y="319" width="6" height="2"/>
	<rect x="497" y="299" width="6" height="2"/>
	<rect x="497" y="279" width="6" height="2"/>
	<rect x="497" y="259" width="6" height="2"/>
	<rect x="497" y="239" width="6" height="2"/>
	<rect x="497" y="219" width="6" height="2"/>
	<rect x="497" y="199" width="6" height="2"/>
	<rect x="497" y="179" width="6" height="2"/>
	<rect x="497" y="159" width="6" height="2"/>
	<rect x="497" y="139" width="6" height="2"/>
	<rect x="499" y="537" width="2" height="6"/>
	<rect x="519" y="537" width="2" height="6"/>
	<rect x="539" y="537" width="2" height="6"/>
	<rect x="559" y="537" width="2" height="6"/>
	<rect x="579" y="537" width="2" height="6"/>
	<rect x="599" y="537" width="2" height="6"/>
	<rect x="619" y="537" width="2" height="6"/>
	<rect x="639" y="537" width="2" height="6"/>
	<rect x="659" y="537" width="2" height="6"/>
	<rect x="679" y="537" width="2" height="6"/>
	<rect x="699" y="537" width="2" height="6"/>
	<rect x="719" y="537" width="2" height="6"/>
	<rect x="739" y="537" width="2" height="6"/>
	<rect x="759" y="537" width="2" height="6"/>
	<rect x="779" y="537" width="2" height="6"/>
	<rect x="799" y="537" width="2" height="6"/>
	<rect x="819" y="537" width="2" height="6"/>
	<rect x="839" y="537" width="2" height="6"/>
	<rect x="859" y="537" width="2" height="6"/>
	<rect x="879" y="537" width="2" height="6"/>
	<rect x="899" y="537" width="2" height="6"/>
	<rect x="497" y="539" width="6" height="2"/>
	<rect x="497" y="559" width="6" height="2"/>
	<rect x="497" y="579" width="6" height="2"/>
	<rect x="497" y="599" width="6" height="2"/>
	<rect x="497" y="619" width="6" height="2"/>
	<rect x="497" y="639" width="6" height="2"/>
	<rect x="497" y="659" width="6" height="2"/>
	<rect x="497" y="679" width="6" height="2"/>
	<rect x="497" y="699" width="6" height="2"/>
	<rect x="497" y="719" width="6" height="2"/>
	<rect x="497" y="739" width="6" height="2"/>
	<rect x="497" y="759" width="6" height="2"/>
	<rect x="497" y="779" width="6" height="2"/>
	<rect x="497" y="799" width="6" height="2"/>
	<rect x="497" y="819" width="6" height="2"/>
	<rect x="497" y="839" width="6" height="2"/>
	<rect x="497" y="859" width="6" height="2"/>
	<rect x="497" y="879" width="6" height="2"/>
	<rect x="497" y="899" width="6" height="2"/>
	<rect x="497" y="919" width="6" height="2"/>
	<rect x="497" y="939" width="6" height="2"/>
	<rect x="499" y="537" width="2" height="6"/>
	<rect x="479" y="537" width="2" height="6"/>
	<rect x="459" y="537" width="2" height="6"/>
	<rect x="439" y="537" width="2" height="6"/>
	<rect x="419" y="537" width="2" height="6"/>
	<rect x="399" y="537" width="2" height="6"/>
	<rect x="379" y="537" width="2" height="6"/>
	<rect x="359" y="537" width="2" height="6"/>
	<rect x="339" y="537" width="2" height="6"/>
	<rect x="319" y="537" width="2" height="6"/>
	<rect x="299" y="537" width="2" height="6"/>
	<rect x="279" y="537" width="2" height="6"/>
	<rect x="259" y="537" width="2" height="6"/>
	<rect x="239" y="537" width="2" height="6"/>
	<rect x="219" y="537" width="2" height="6"/>
	<rect x="199" y="537" width="2" height="6"/>
	<rect x="179" y="537" width="2" height="6"/>
	<rect x="159" y="537" width="2" height="6"/>
	<rect x="139" y="537" width="2" height="6"/>
	<rect x="119" y="537" width="2" height="6"/>
	<rect x="99" y="537" width="2" height="6"/>
	<path d="M483.2,688.7l-8.2-3.6v-2.3h10.6v1.8h-7.7l7.7,3.4v1.2l-7.9,3.5h7.9v1.8h-10.6v-2.3L483.2,688.7z M478,699.1
		c-0.5,0-0.9,0.2-1.2,0.6c-0.3,0.4-0.4,0.9-0.4,1.5c0,0.6,0.2,1.2,0.5,1.6c0.3,0.4,0.7,0.6,1.2,0.6v1.8c-0.9,0-1.7-0.4-2.2-1.2
		c-0.6-0.8-0.9-1.7-0.9-2.9c0-1.2,0.3-2.2,0.8-2.9s1.3-1,2.3-1c0.5,0,0.9,0.1,1.3,0.4c0.4,0.3,0.7,0.7,1,1.2
		c0.4-1.2,1.2-1.8,2.5-1.8c1,0,1.7,0.4,2.3,1.1c0.6,0.8,0.9,1.8,0.9,3c0,1.2-0.3,2.2-0.9,3c-0.6,0.8-1.4,1.2-2.4,1.2v-1.8
		c0.5,0,1-0.2,1.3-0.7c0.4-0.5,0.6-1,0.6-1.7c0-0.7-0.2-1.2-0.5-1.7c-0.3-0.4-0.7-0.6-1.2-0.6c-0.6,0-1,0.2-1.3,0.5
		c-0.2,0.4-0.4,0.9-0.4,1.6v1.8h-1.5v-2C479.4,699.7,478.9,699.1,478,699.1z M475.1,709.6v-1.8h10.6v1.8h-7.7l7.7,4.9v1.8h-10.6
		v-1.8h7.7L475.1,709.6z M475.1,719.3h10.6v1.8h-9.1v3.6l4,0.2c1.8,0.1,3.1,0.4,3.9,0.9s1.2,1.3,1.2,2.3v0.7H484l0-0.5
		c-0.1-0.6-0.4-1-1-1.3c-0.6-0.3-1.7-0.4-3.4-0.5l-4.5-0.2V719.3z M484.2,735.4c0-0.6-0.1-1.1-0.4-1.6s-0.7-0.9-1.1-1.1h-2.2v1.4
		c0,2.2,0.6,3.3,1.9,3.3c0.6,0,1-0.2,1.3-0.6C484.1,736.4,484.2,736,484.2,735.4z M485.6,732.4c-0.2,0.1-0.6,0.2-1.1,0.3
		c0.9,0.8,1.3,1.8,1.3,3c0,1.1-0.3,1.9-0.9,2.6c-0.6,0.7-1.3,1-2.2,1c-1.1,0-2-0.4-2.6-1.3c-0.6-0.8-0.9-2-0.9-3.5v-1.8h-0.8
		c-0.6,0-1.1,0.2-1.5,0.6c-0.4,0.4-0.6,0.9-0.6,1.7c0,0.7,0.2,1.2,0.5,1.6c0.3,0.4,0.7,0.7,1.2,0.7v1.8c-0.5,0-1-0.2-1.5-0.6
		c-0.5-0.4-0.9-0.9-1.2-1.5c-0.3-0.6-0.4-1.3-0.4-2.1c0-1.2,0.3-2.2,0.9-2.9c0.6-0.7,1.5-1.1,2.5-1.1h4.9c1,0,1.7-0.1,2.3-0.4h0.2
		V732.4z M484.1,748.9V744h-7.4v3.2l2.5,0.1C481.4,747.5,483,748,484.1,748.9z M484.1,751l-0.8-0.6c-0.9-0.7-2.3-1.1-4.1-1.2
		l-4.2-0.2v-6.8h9.1v-1.3h4.6v1.8h-3.1v7.4h3.1v1.8l-4.6,0V751z M485.6,753.9v1.8h-4.5v4.9h4.5v1.8h-10.6v-1.8h4.6v-4.9h-4.6v-1.8
		H485.6z M484.2,769.8c0-0.6-0.1-1.1-0.4-1.6s-0.7-0.9-1.1-1.1h-2.2v1.4c0,2.2,0.6,3.3,1.9,3.3c0.6,0,1-0.2,1.3-0.6
		C484.1,770.9,484.2,770.4,484.2,769.8z M485.6,766.8c-0.2,0.1-0.6,0.2-1.1,0.3c0.9,0.8,1.3,1.8,1.3,3c0,1-0.3,1.9-0.9,2.6
		s-1.3,1-2.2,1c-1.1,0-2-0.4-2.6-1.2c-0.6-0.8-0.9-2-0.9-3.5v-1.8h-0.8c-0.6,0-1.1,0.2-1.5,0.6c-0.4,0.4-0.6,0.9-0.6,1.7
		c0,0.7,0.2,1.2,0.5,1.6c0.3,0.4,0.7,0.7,1.2,0.7v1.8c-0.5,0-1-0.2-1.5-0.6c-0.5-0.4-0.9-0.9-1.2-1.5c-0.3-0.6-0.4-1.3-0.4-2.1
		c0-1.2,0.3-2.2,0.9-2.9c0.6-0.7,1.5-1.1,2.5-1.1h4.9c1,0,1.7-0.1,2.3-0.4h0.2V766.8z M479.5,782.8v-2.3c0-1.7-0.5-2.5-1.5-2.5
		s-1.5,0.8-1.5,2.4v2.5H479.5z M481,782.8h3.2v-3c0-0.8-0.1-1.3-0.4-1.7c-0.3-0.4-0.7-0.6-1.2-0.6c-1.1,0-1.6,0.8-1.6,2.3V782.8z
		 M485.6,784.6h-10.6v-4.1c0-1.4,0.2-2.5,0.7-3.2c0.5-0.8,1.2-1.1,2.2-1.1c0.5,0,0.9,0.1,1.3,0.4c0.4,0.3,0.7,0.7,0.9,1.3
		c0.1-0.6,0.4-1.2,0.9-1.5c0.4-0.4,0.9-0.6,1.6-0.6c1,0,1.7,0.4,2.2,1.1c0.5,0.7,0.8,1.7,0.8,3V784.6z M475.1,794.5v-1.8h10.6v1.8
		h-7.7l7.7,4.9v1.8h-10.6v-1.8h7.7L475.1,794.5z M480.5,816.3c1.2,0,2.1-0.3,2.8-0.8c0.7-0.5,1.1-1.3,1.1-2.2c0-0.9-0.4-1.6-1.1-2.2
		c-0.7-0.5-1.7-0.8-3-0.8c-1.2,0-2.1,0.3-2.8,0.8c-0.7,0.5-1.1,1.3-1.1,2.2c0,0.9,0.4,1.6,1.1,2.2
		C478.1,816,479.1,816.3,480.5,816.3z M480.2,818.1c-1,0-2-0.2-2.8-0.6c-0.8-0.4-1.5-1-1.9-1.7c-0.5-0.7-0.7-1.5-0.7-2.5
		c0-1.4,0.5-2.6,1.5-3.5c1-0.9,2.3-1.3,4-1.3h0.1c1,0,2,0.2,2.8,0.6c0.8,0.4,1.4,1,1.9,1.7c0.5,0.7,0.7,1.6,0.7,2.5
		c0,1.4-0.5,2.6-1.5,3.5c-1,0.9-2.3,1.3-4,1.3H480.2z M479.5,827.1v-2.3c0-1.7-0.5-2.5-1.5-2.5s-1.5,0.8-1.5,2.4v2.5H479.5z
		 M481,827.1h3.2v-3c0-0.8-0.1-1.3-0.4-1.7c-0.3-0.4-0.7-0.6-1.2-0.6c-1.1,0-1.6,0.8-1.6,2.3V827.1z M485.6,828.9h-10.6v-4.1
		c0-1.4,0.2-2.5,0.7-3.2c0.5-0.8,1.2-1.1,2.2-1.1c0.5,0,0.9,0.2,1.3,0.4c0.4,0.3,0.7,0.7,0.9,1.3c0.1-0.6,0.4-1.2,0.9-1.5
		c0.4-0.4,0.9-0.6,1.6-0.6c1,0,1.7,0.4,2.2,1.1c0.5,0.7,0.8,1.7,0.8,3V828.9z M476.5,830.8v3.5h9.1v1.8h-9.1v3.5h-1.5v-8.8H476.5z
		 M484.4,844.9c0-0.6-0.2-1.2-0.6-1.7c-0.4-0.5-0.9-0.8-1.5-0.8v-1.7c0.6,0,1.2,0.2,1.7,0.6c0.5,0.4,1,0.9,1.3,1.5
		c0.3,0.7,0.5,1.3,0.5,2c0,1.4-0.5,2.6-1.4,3.4c-1,0.9-2.3,1.3-3.9,1.3h-0.3c-1,0-1.9-0.2-2.7-0.6c-0.8-0.4-1.4-0.9-1.9-1.6
		c-0.4-0.7-0.7-1.5-0.7-2.5c0-1.2,0.4-2.2,1.1-3c0.7-0.8,1.6-1.2,2.8-1.3v1.7c-0.7,0-1.2,0.3-1.7,0.8c-0.4,0.5-0.7,1-0.7,1.7
		c0,0.9,0.3,1.6,1,2.1c0.7,0.5,1.6,0.8,2.9,0.8h0.3c1.2,0,2.2-0.2,2.8-0.8C484,846.6,484.4,845.8,484.4,844.9z M485.6,852v1.8h-4.5
		v4.9h4.5v1.8h-10.6v-1.8h4.6v-4.9h-4.6V852H485.6z M484.2,868c0-0.6-0.1-1.1-0.4-1.6c-0.3-0.5-0.7-0.9-1.1-1.1h-2.2v1.4
		c0,2.2,0.6,3.3,1.9,3.3c0.6,0,1-0.2,1.3-0.6C484.1,869.1,484.2,868.6,484.2,868z M485.6,865c-0.2,0.1-0.6,0.2-1.1,0.2
		c0.9,0.8,1.3,1.8,1.3,3c0,1-0.3,1.9-0.9,2.6c-0.6,0.7-1.3,1-2.2,1c-1.1,0-2-0.4-2.6-1.2c-0.6-0.8-0.9-2-0.9-3.5v-1.8h-0.8
		c-0.6,0-1.1,0.2-1.5,0.6c-0.4,0.4-0.6,0.9-0.6,1.7c0,0.6,0.2,1.2,0.5,1.6c0.3,0.4,0.7,0.7,1.2,0.7v1.8c-0.5,0-1-0.2-1.5-0.6
		c-0.5-0.4-0.9-0.9-1.2-1.5c-0.3-0.6-0.4-1.3-0.4-2.1c0-1.2,0.3-2.2,0.9-2.9c0.6-0.7,1.5-1,2.5-1.1h4.9c1,0,1.7-0.1,2.3-0.4h0.2V865
		z M476.6,873.1v4.9h9.1v1.8h-10.6v-6.7H476.6z M475.1,884.7v-1.8h10.6v1.8h-7.7l7.7,4.9v1.8h-10.6v-1.8h7.7L475.1,884.7z
		 M475.1,894.4h10.6v1.8h-9.1v3.6l4,0.2c1.8,0.1,3.1,0.4,3.9,0.9s1.2,1.3,1.2,2.3v0.7H484l0-0.5c-0.1-0.6-0.4-1-1-1.3
		c-0.6-0.3-1.7-0.4-3.4-0.5l-4.5-0.2V894.4z M483,909.1l-7.9-2.5v-1.9l12.2,4.2c1.8,0.7,2.6,1.7,2.6,3.1l0,0.3l-0.1,0.7h-1.5l0-0.5
		c0-0.6-0.1-1.1-0.4-1.4c-0.2-0.4-0.7-0.6-1.4-0.9l-1.1-0.4l-10.5,3.8v-2L483,909.1z M476.9,920.1l-5.4-3.4v-2.2l7,4.5l7.2-4.6v2.2
		l-5.6,3.5l5.6,3.5v2.2l-7.2-4.6l-7,4.5v-2.2L476.9,920.1z"/>
	<path d="M292.3,724.3l-3.2-8.3l1.6-1.6l7.5,7.5l-1.3,1.3l-5.4-5.4l3,7.8l-0.9,0.9l-8-3.1l5.6,5.5l-1.3,1.3l-7.5-7.5l1.7-1.7
		L292.3,724.3z M281.2,727.9c-0.4-0.4-0.8-0.5-1.2-0.4c-0.5,0.1-0.9,0.3-1.4,0.8c-0.5,0.4-0.7,0.9-0.8,1.5c-0.1,0.5,0.1,1,0.4,1.3
		l-1.3,1.3c-0.6-0.6-0.9-1.5-0.8-2.4c0.1-1,0.6-1.8,1.4-2.7c0.9-0.9,1.8-1.4,2.6-1.5c0.9-0.1,1.6,0.2,2.3,0.9
		c0.3,0.3,0.5,0.7,0.6,1.2c0.1,0.5,0,1-0.2,1.5c1.2-0.6,2.2-0.4,3,0.4c0.7,0.7,1,1.5,0.8,2.4c-0.1,0.9-0.6,1.8-1.5,2.7
		c-0.9,0.9-1.8,1.4-2.8,1.5c-1,0.1-1.8-0.1-2.6-0.9l1.3-1.3c0.4,0.4,0.8,0.5,1.4,0.5c0.6-0.1,1.1-0.3,1.6-0.8c0.5-0.5,0.8-1,0.9-1.5
		c0.1-0.5-0.1-1-0.4-1.3c-0.4-0.4-0.9-0.6-1.3-0.5c-0.4,0.1-0.9,0.4-1.4,0.9l-1.3,1.3l-1.1-1.1l1.4-1.4
		C281.8,729.4,281.9,728.6,281.2,727.9z M271.7,733.3l1.3-1.3l7.5,7.5l-1.3,1.3l-5.5-5.5l2,8.9l-1.3,1.3L267,738l1.3-1.3l5.5,5.5
		L271.7,733.3z M266.5,750.1l-3.2-8.3l1.6-1.6l7.5,7.5l-1.3,1.3l-5.4-5.4l3,7.9l-0.9,0.9l-8-3.1l5.5,5.6L264,756l-7.5-7.5l1.7-1.7
		L266.5,750.1z M252.8,754.1c-0.5,0.5-0.8,1.1-0.7,1.9c0,0.7,0.3,1.5,0.9,2.2l3.7-3.7l-0.1-0.1c-0.7-0.6-1.4-0.9-2-1
		C253.9,753.3,253.3,753.5,252.8,754.1z M259.6,760.6c-1,1-2.2,1.5-3.5,1.5c-1.3,0-2.5-0.6-3.6-1.7l-0.2-0.2
		c-0.7-0.7-1.3-1.5-1.6-2.4c-0.3-0.9-0.3-1.7-0.2-2.5c0.2-0.8,0.6-1.6,1.2-2.1c1-1,2-1.4,3.2-1.3c1.2,0.1,2.4,0.7,3.6,1.9l0.5,0.5
		l-5.1,5.1c0.8,0.7,1.6,1.1,2.4,1.1c0.9,0,1.6-0.3,2.2-0.9c0.5-0.5,0.7-0.9,0.9-1.4c0.1-0.5,0.2-1,0.1-1.6l1.4-0.2
		C261.3,758,260.9,759.4,259.6,760.6z M249.7,762.7c-0.8-0.8-1.7-1.3-2.5-1.5c-0.8-0.1-1.6,0.1-2.2,0.7c-0.8,0.8-1,1.7-0.7,2.8
		l3.6,3.6c1.1,0.3,2,0.1,2.8-0.7c0.6-0.6,0.8-1.3,0.7-2.2C251.2,764.5,250.6,763.6,249.7,762.7z M251.1,761.5c1.1,1.1,1.8,2.3,2,3.5
		c0.2,1.2-0.2,2.3-1.1,3.2c-0.9,0.9-1.9,1.3-3,1.3l3.6,3.6l-1.3,1.3L241,764l1.2-1.2l0.9,0.8c-0.1-1.2,0.3-2.2,1.2-3.1
		c0.9-0.9,1.9-1.3,3.1-1.1c1.2,0.2,2.4,0.8,3.6,2L251.1,761.5z M240.8,766.3l-2.5,2.5l6.4,6.4l-1.3,1.3l-6.4-6.4l-2.5,2.5l-1-1
		l6.2-6.2L240.8,766.3z M236.3,781.8c0.5-0.5,0.7-1,0.8-1.6c0.1-0.6-0.1-1.2-0.5-1.6l1.2-1.2c0.4,0.4,0.7,1,0.8,1.7
		c0.1,0.7,0.1,1.3-0.2,2s-0.6,1.3-1.1,1.8c-1,1-2.2,1.5-3.4,1.4c-1.3-0.1-2.5-0.7-3.7-1.9l-0.2-0.2c-0.7-0.7-1.2-1.5-1.5-2.3
		c-0.3-0.8-0.4-1.7-0.2-2.5c0.2-0.8,0.6-1.5,1.3-2.2c0.8-0.8,1.8-1.3,2.8-1.3c1.1-0.1,2,0.3,2.8,1.1l-1.2,1.2
		c-0.5-0.4-1.1-0.7-1.7-0.6c-0.6,0-1.2,0.3-1.7,0.8c-0.6,0.6-0.9,1.4-0.8,2.2c0.1,0.8,0.6,1.7,1.5,2.6l0.2,0.2
		c0.9,0.9,1.7,1.3,2.5,1.5C234.9,782.7,235.7,782.5,236.3,781.8z M225.8,787.8l-0.9,0.9l3.2,3.2l-1.3,1.3l-7.5-7.5l1.3-1.3l3.2,3.2
		l0.8-0.8l-0.6-5.7l1.5-1.6l0.6,6.6l7.1,0.7l-1.6,1.6L225.8,787.8z M215.3,798.3c0.9,0.7,1.8,1,2.5,1c0.7-0.1,1.5-0.5,2.2-1.2
		c0.8-0.8,1.1-1.7,0.9-2.8c-0.1-1.1-0.8-2.2-1.9-3.3l-4,4l-1.1-1.1l3.9-4c-1.1-1.1-2.2-1.7-3.3-1.9c-1.1-0.2-2.1,0.2-2.9,1
		c-0.7,0.7-1.1,1.4-1.1,2.2c0,0.7,0.3,1.6,1,2.5l-1.3,1.3c-0.9-1.2-1.4-2.4-1.3-3.6c0-1.2,0.6-2.4,1.7-3.5c0.8-0.8,1.7-1.3,2.7-1.6
		c1-0.2,2-0.2,3.1,0.2c1,0.4,2,1,2.9,2l1,1c0.9,0.9,1.6,1.9,2,2.9c0.4,1,0.5,2,0.2,3c-0.2,1-0.7,1.9-1.5,2.6
		c-1.1,1.1-2.3,1.7-3.5,1.8c-1.2,0.1-2.4-0.3-3.6-1.3L215.3,798.3z"/>
	<path d="M324,515.3h1.8v10.6H324v-7.7l-4.9,7.7h-1.8v-10.6h1.8v7.7L324,515.3z M309.7,521.3h-1.3v4.5h-1.8v-10.6h1.8v4.5h1.2
		l3.6-4.5h2.2l-4.2,5.1l4.5,5.5h-2.3L309.7,521.3z M296.4,524.4h4.9v-7.4H298l-0.1,2.5C297.7,521.6,297.2,523.2,296.4,524.4z
		 M294.2,524.4l0.6-0.8c0.7-0.9,1.1-2.3,1.2-4.1l0.2-4.2h6.8v9.1h1.4v4.6h-1.8v-3.1h-7.4v3.1h-1.8l0-4.6H294.2z M284.8,518.5
		c0,0.5,0.2,0.9,0.5,1.2c0.4,0.3,0.8,0.5,1.4,0.5h2.9v-3.5H287c-0.7,0-1.2,0.2-1.6,0.5C285,517.5,284.8,518,284.8,518.5z
		 M291.4,515.3v10.6h-1.8v-4.1h-2.7l-2.5,4.1h-2l2.7-4.4c-0.7-0.2-1.2-0.6-1.6-1.2c-0.4-0.5-0.5-1.1-0.5-1.8c0-1,0.4-1.7,1.1-2.3
		c0.7-0.6,1.7-0.9,2.9-0.9H291.4z M279.2,520.5c0-1.2-0.2-2.1-0.8-2.8c-0.5-0.7-1.2-1-2.1-1c-1.1,0-1.9,0.5-2.5,1.5v5
		c0.5,1,1.4,1.4,2.5,1.4c0.9,0,1.5-0.3,2.1-1C279,522.8,279.2,521.8,279.2,520.5z M281,520.7c0,1.6-0.4,2.9-1.1,3.9
		c-0.7,1-1.7,1.5-3,1.5c-1.3,0-2.3-0.4-3-1.2v5.1h-1.8v-14.6h1.6l0.1,1.2c0.7-0.9,1.8-1.4,3.1-1.4c1.3,0,2.3,0.5,3,1.4
		c0.7,0.9,1.1,2.3,1.1,4V520.7z M262,520.7c0,1.2,0.3,2.1,0.8,2.8c0.5,0.7,1.3,1.1,2.2,1.1c0.9,0,1.6-0.4,2.2-1.1
		c0.5-0.7,0.8-1.7,0.8-3c0-1.2-0.3-2.1-0.8-2.8c-0.6-0.7-1.3-1.1-2.2-1.1c-0.9,0-1.6,0.4-2.2,1.1C262.3,518.3,262,519.3,262,520.7z
		 M260.2,520.5c0-1,0.2-2,0.6-2.8c0.4-0.8,1-1.5,1.7-1.9c0.7-0.5,1.5-0.7,2.5-0.7c1.4,0,2.6,0.5,3.5,1.5c0.9,1,1.3,2.3,1.3,4v0.1
		c0,1-0.2,1.9-0.6,2.8c-0.4,0.8-0.9,1.5-1.7,1.9c-0.7,0.5-1.6,0.7-2.5,0.7c-1.4,0-2.6-0.5-3.5-1.5c-0.9-1-1.3-2.3-1.3-4V520.5z
		 M257.8,525.8H256v-9.1h-4.9v9.1h-1.8v-10.6h8.5V525.8z M242.9,524.5c0.7,0,1.2-0.2,1.7-0.6s0.8-0.9,0.8-1.5h1.7
		c0,0.6-0.2,1.2-0.6,1.7c-0.4,0.6-0.9,1-1.5,1.3c-0.6,0.3-1.3,0.5-2,0.5c-1.4,0-2.6-0.5-3.4-1.4c-0.9-1-1.3-2.3-1.3-3.9v-0.3
		c0-1,0.2-1.9,0.6-2.7c0.4-0.8,0.9-1.4,1.6-1.9c0.7-0.4,1.5-0.7,2.5-0.7c1.2,0,2.2,0.4,3,1.1c0.8,0.7,1.2,1.6,1.2,2.8h-1.7
		c-0.1-0.7-0.3-1.2-0.8-1.7c-0.5-0.4-1-0.7-1.7-0.7c-0.9,0-1.6,0.3-2.1,1c-0.5,0.7-0.8,1.6-0.8,2.9v0.3c0,1.2,0.2,2.2,0.8,2.8
		S242,524.5,242.9,524.5z M232.2,516.6c-0.7,0-1.3,0.3-1.8,0.8c-0.5,0.5-0.8,1.3-0.9,2.2h5.3v-0.1c-0.1-0.9-0.3-1.6-0.8-2.1
		C233.6,516.8,233,516.6,232.2,516.6z M232.5,526c-1.4,0-2.6-0.5-3.5-1.4c-0.9-0.9-1.3-2.2-1.3-3.8v-0.3c0-1.1,0.2-2,0.6-2.8
		c0.4-0.8,1-1.5,1.7-1.9c0.7-0.5,1.5-0.7,2.3-0.7c1.4,0,2.4,0.5,3.2,1.4c0.8,0.9,1.1,2.2,1.1,3.9v0.8h-7.2c0,1,0.3,1.9,0.9,2.5
		c0.6,0.6,1.3,1,2.2,1c0.6,0,1.2-0.1,1.6-0.4s0.8-0.6,1.2-1l1.1,0.9C235.6,525.3,234.2,526,232.5,526z M221.3,517.4
		c-0.9,0-1.6,0.3-2.1,0.9c-0.5,0.6-0.8,1.4-0.8,2.5v0.2c0,1.1,0.3,2,0.8,2.7c0.5,0.7,1.2,1,2.1,1c0.9,0,1.6-0.3,2.1-1
		c0.5-0.7,0.8-1.6,0.8-2.9c0-1-0.3-1.8-0.8-2.4C222.9,517.7,222.2,517.4,221.3,517.4z M221.7,515.9c1.3,0,2.4,0.5,3.2,1.3
		c0.8,0.9,1.2,2.1,1.2,3.5v0.2c0,1-0.2,1.9-0.6,2.7c-0.4,0.8-0.9,1.4-1.7,1.8c-0.7,0.4-1.5,0.7-2.5,0.7c-1.4,0-2.6-0.5-3.4-1.4
		c-0.9-0.9-1.3-2.2-1.3-3.8v-0.9c0-2.2,0.4-4,1.2-5.3c0.8-1.3,2-2.1,3.6-2.4c0.9-0.2,1.5-0.4,1.8-0.6c0.3-0.2,0.5-0.6,0.5-1h1.5
		c0,0.8-0.2,1.4-0.6,1.9c-0.4,0.5-0.9,0.8-1.8,1l-1.4,0.3c-1.1,0.2-1.9,0.7-2.4,1.3c-0.5,0.6-0.9,1.4-1.1,2.4
		C219.1,516.4,220.3,515.9,221.7,515.9z M205.6,516.6c-0.7,0-1.3,0.3-1.8,0.8c-0.5,0.5-0.8,1.3-0.9,2.2h5.3v-0.1
		c0-0.9-0.3-1.6-0.7-2.1C207,516.8,206.4,516.6,205.6,516.6z M205.9,526c-1.4,0-2.6-0.5-3.5-1.4c-0.9-0.9-1.3-2.2-1.3-3.8v-0.3
		c0-1.1,0.2-2,0.6-2.8c0.4-0.8,1-1.5,1.7-1.9c0.7-0.5,1.5-0.7,2.3-0.7c1.4,0,2.4,0.5,3.2,1.4c0.8,0.9,1.1,2.2,1.1,3.9v0.8h-7.2
		c0,1,0.3,1.9,0.9,2.5c0.6,0.6,1.3,1,2.2,1c0.6,0,1.2-0.1,1.6-0.4s0.8-0.6,1.2-1l1.1,0.9C209,525.3,207.6,526,205.9,526z
		 M187.9,520.4v4h2.7c0.7,0,1.2-0.2,1.6-0.5c0.4-0.3,0.6-0.8,0.6-1.4c0-0.6-0.2-1.1-0.6-1.4c-0.4-0.4-0.9-0.6-1.5-0.6H187.9z
		 M198.3,525.8h-1.8v-10.6h1.8V525.8z M187.9,518.9h2.8c1.2,0,2.1,0.3,2.8,0.9c0.7,0.6,1,1.4,1,2.5c0,1.1-0.4,1.9-1.1,2.5
		c-0.7,0.6-1.7,0.9-2.9,0.9h-4.5v-10.6h1.8V518.9z M176.5,519.8h2.3c1.7,0,2.5-0.5,2.5-1.5c0-1-0.8-1.5-2.4-1.5h-2.5V519.8z
		 M176.5,521.2v3.2h3c0.8,0,1.3-0.1,1.7-0.4c0.4-0.3,0.6-0.7,0.6-1.2c0-1.1-0.8-1.6-2.3-1.6H176.5z M174.7,525.8v-10.6h4.1
		c1.4,0,2.5,0.2,3.2,0.7c0.8,0.5,1.1,1.2,1.1,2.2c0,0.5-0.1,0.9-0.4,1.3c-0.3,0.4-0.7,0.7-1.3,0.9c0.6,0.2,1.2,0.4,1.5,0.9
		c0.4,0.4,0.6,1,0.6,1.6c0,1-0.4,1.7-1.1,2.2c-0.7,0.5-1.7,0.8-3,0.8H174.7z M164.5,520.7c0,1.2,0.3,2.1,0.8,2.8
		c0.5,0.7,1.3,1.1,2.2,1.1c0.9,0,1.6-0.4,2.2-1.1c0.5-0.7,0.8-1.7,0.8-3c0-1.2-0.3-2.1-0.8-2.8c-0.6-0.7-1.3-1.1-2.2-1.1
		c-0.9,0-1.6,0.4-2.2,1.1C164.7,518.3,164.5,519.3,164.5,520.7z M162.6,520.5c0-1,0.2-2,0.6-2.8c0.4-0.8,1-1.5,1.7-1.9
		c0.7-0.5,1.5-0.7,2.5-0.7c1.4,0,2.6,0.5,3.5,1.5c0.9,1,1.3,2.3,1.3,4v0.1c0,1-0.2,1.9-0.6,2.8c-0.4,0.8-1,1.5-1.7,1.9
		c-0.7,0.5-1.6,0.7-2.5,0.7c-1.4,0-2.6-0.5-3.5-1.5c-0.9-1-1.3-2.3-1.3-4V520.5z M156.9,524.5c0.6,0,1.2-0.2,1.7-0.6
		c0.5-0.4,0.7-0.9,0.8-1.5h1.7c0,0.6-0.2,1.2-0.6,1.7c-0.4,0.6-0.9,1-1.5,1.3c-0.6,0.3-1.3,0.5-2,0.5c-1.4,0-2.6-0.5-3.4-1.4
		c-0.9-1-1.3-2.3-1.3-3.9v-0.3c0-1,0.2-1.9,0.6-2.7c0.4-0.8,0.9-1.4,1.6-1.9c0.7-0.4,1.5-0.7,2.5-0.7c1.2,0,2.2,0.4,2.9,1.1
		c0.8,0.7,1.2,1.6,1.3,2.8h-1.7c-0.1-0.7-0.3-1.2-0.8-1.7c-0.5-0.4-1-0.7-1.7-0.7c-0.9,0-1.6,0.3-2.1,1c-0.5,0.7-0.8,1.6-0.8,2.9
		v0.3c0,1.2,0.2,2.2,0.8,2.8S156,524.5,156.9,524.5z M146.4,524.5c0.6,0,1.2-0.2,1.7-0.6c0.5-0.4,0.8-0.9,0.8-1.5h1.7
		c0,0.6-0.2,1.2-0.6,1.7c-0.4,0.6-0.9,1-1.5,1.3c-0.6,0.3-1.3,0.5-2,0.5c-1.4,0-2.6-0.5-3.4-1.4c-0.9-1-1.3-2.3-1.3-3.9v-0.3
		c0-1,0.2-1.9,0.6-2.7c0.4-0.8,0.9-1.4,1.6-1.9c0.7-0.4,1.5-0.7,2.5-0.7c1.2,0,2.2,0.4,2.9,1.1c0.8,0.7,1.2,1.6,1.3,2.8h-1.7
		c-0.1-0.7-0.3-1.2-0.8-1.7c-0.5-0.4-1-0.7-1.7-0.7c-0.9,0-1.6,0.3-2.1,1c-0.5,0.7-0.8,1.6-0.8,2.9v0.3c0,1.2,0.2,2.2,0.8,2.8
		S145.5,524.5,146.4,524.5z M134.8,524.5c0.6,0,1.1-0.1,1.6-0.4c0.5-0.3,0.9-0.7,1.1-1.2v-2.2h-1.4c-2.2,0-3.3,0.6-3.3,1.9
		c0,0.6,0.2,1,0.6,1.3C133.8,524.3,134.2,524.5,134.8,524.5z M137.8,525.8c-0.1-0.2-0.2-0.6-0.2-1.1c-0.8,0.9-1.8,1.3-3,1.3
		c-1,0-1.9-0.3-2.6-0.9c-0.7-0.6-1-1.3-1-2.2c0-1.1,0.4-2,1.2-2.6c0.8-0.6,2-0.9,3.5-0.9h1.8v-0.8c0-0.6-0.2-1.1-0.6-1.5
		c-0.4-0.4-0.9-0.6-1.7-0.6c-0.6,0-1.2,0.2-1.6,0.5c-0.4,0.3-0.7,0.7-0.7,1.2h-1.8c0-0.5,0.2-1,0.6-1.5c0.4-0.5,0.9-0.9,1.5-1.2
		s1.3-0.4,2.1-0.4c1.2,0,2.2,0.3,2.9,0.9c0.7,0.6,1.1,1.5,1.1,2.5v4.9c0,1,0.1,1.7,0.4,2.3v0.1H137.8z M116.6,511.6l4.6,11.6
		l4.7-11.6h2.4v14.2h-1.9v-5.5l0.2-6l-4.7,11.5h-1.4l-4.7-11.5l0.2,6v5.5h-1.9v-14.2H116.6z"/>
	<path d="M306.9,323.5l8.3-3.2l1.6,1.6l-7.5,7.5l-1.3-1.3l5.4-5.4l-7.9,3l-0.9-0.9l3.1-8l-5.6,5.5l-1.3-1.3l7.5-7.5l1.6,1.7
		L306.9,323.5z M303.3,312.4c0.4-0.4,0.5-0.8,0.4-1.2c-0.1-0.5-0.3-0.9-0.8-1.4c-0.4-0.5-0.9-0.7-1.5-0.8c-0.5-0.1-1,0.1-1.3,0.4
		l-1.3-1.3c0.6-0.6,1.5-0.9,2.4-0.8c1,0.1,1.9,0.6,2.7,1.4c0.9,0.9,1.4,1.7,1.5,2.6c0.1,0.9-0.2,1.6-0.9,2.3
		c-0.3,0.3-0.8,0.5-1.2,0.6c-0.5,0.1-1,0-1.5-0.2c0.6,1.2,0.4,2.2-0.4,3.1c-0.7,0.7-1.5,1-2.4,0.8c-0.9-0.1-1.8-0.6-2.7-1.5
		c-0.9-0.9-1.4-1.8-1.5-2.8c-0.1-1,0.2-1.8,0.9-2.5l1.3,1.3c-0.4,0.4-0.5,0.8-0.5,1.4c0.1,0.6,0.3,1.1,0.8,1.6
		c0.5,0.5,1,0.8,1.5,0.8c0.5,0.1,1-0.1,1.3-0.4c0.4-0.4,0.6-0.8,0.5-1.3c-0.1-0.4-0.4-0.9-0.9-1.5l-1.3-1.3l1.1-1.1l1.4,1.4
		C301.8,313,302.6,313.1,303.3,312.4z M297.9,302.9l1.3,1.3l-7.5,7.5l-1.3-1.3l5.5-5.4l-8.9,2l-1.3-1.3l7.5-7.5l1.3,1.3l-5.5,5.5
		L297.9,302.9z M286.5,298.9c0.9-0.8,1.3-1.7,1.5-2.5c0.1-0.9-0.1-1.6-0.8-2.2c-0.8-0.8-1.7-1-2.8-0.7l-3.6,3.6
		c-0.3,1.1,0,2,0.7,2.8c0.6,0.6,1.3,0.9,2.2,0.7C284.6,300.4,285.5,299.8,286.5,298.9z M287.6,300.3c-1.1,1.1-2.3,1.8-3.5,2
		c-1.2,0.2-2.3-0.2-3.2-1.1c-0.9-0.9-1.3-1.9-1.3-3l-3.6,3.6l-1.3-1.3l10.3-10.3l1.2,1.2l-0.8,0.9c1.2-0.1,2.2,0.3,3.1,1.2
		c0.9,0.9,1.3,2,1.1,3.2c-0.1,1.2-0.8,2.4-2,3.6L287.6,300.3z M274.2,286.8c-0.8,0.8-1.3,1.7-1.4,2.6c-0.1,0.9,0.1,1.7,0.8,2.3
		c0.6,0.7,1.4,0.9,2.3,0.8c0.9-0.1,1.8-0.7,2.7-1.6c0.8-0.8,1.3-1.7,1.4-2.6c0.1-0.9-0.1-1.7-0.8-2.3c-0.6-0.6-1.4-0.9-2.3-0.8
		C276,285.4,275.1,285.9,274.2,286.8z M273.1,285.4c0.7-0.7,1.5-1.2,2.4-1.5c0.9-0.3,1.7-0.3,2.5-0.2c0.8,0.2,1.6,0.6,2.2,1.3
		c1,1,1.5,2.2,1.4,3.5c-0.1,1.3-0.7,2.6-1.9,3.8l-0.1,0.1c-0.7,0.7-1.5,1.2-2.4,1.5c-0.9,0.3-1.7,0.4-2.5,0.2
		c-0.8-0.2-1.6-0.6-2.3-1.3c-1-1-1.5-2.2-1.4-3.5C271.2,287.9,271.8,286.7,273.1,285.4L273.1,285.4z M270.5,282.9
		c0.9-0.8,1.3-1.7,1.5-2.5c0.1-0.9-0.1-1.6-0.8-2.2c-0.8-0.8-1.7-1-2.8-0.7l-3.6,3.6c-0.3,1.1-0.1,2,0.7,2.8
		c0.6,0.6,1.3,0.9,2.2,0.7C268.6,284.4,269.5,283.8,270.5,282.9z M271.6,284.3c-1.1,1.1-2.3,1.8-3.5,2c-1.2,0.2-2.3-0.2-3.2-1.1
		c-0.9-0.9-1.3-1.9-1.3-3l-3.6,3.6l-1.3-1.3l10.3-10.3l1.2,1.2l-0.8,0.9c1.2-0.1,2.2,0.3,3.1,1.2c0.9,0.9,1.3,2,1.1,3.2
		c-0.1,1.2-0.8,2.4-2,3.6L271.6,284.3z M262.6,274.9c0.8-0.8,1.3-1.7,1.5-2.5c0.1-0.8-0.1-1.6-0.8-2.2c-0.8-0.8-1.7-1-2.8-0.7
		l-3.6,3.6c-0.3,1.1,0,2,0.7,2.8c0.6,0.6,1.3,0.8,2.2,0.7S261.6,275.9,262.6,274.9z M263.7,276.3c-1.1,1.1-2.3,1.8-3.5,2
		c-1.2,0.2-2.3-0.2-3.1-1.1c-0.9-0.9-1.3-1.9-1.3-3l-3.6,3.6l-1.3-1.3l10.4-10.3l1.2,1.2l-0.8,0.9c1.2-0.1,2.2,0.3,3.1,1.2
		c0.9,0.9,1.3,2,1.1,3.1c-0.2,1.2-0.8,2.4-2,3.6L263.7,276.3z M255.7,262.6c-0.5-0.5-1.1-0.8-1.9-0.7c-0.7,0-1.5,0.3-2.2,0.9
		l3.7,3.8l0.1-0.1c0.6-0.7,0.9-1.4,1-2C256.5,263.7,256.3,263.1,255.7,262.6z M249.2,269.4c-1-1-1.5-2.2-1.5-3.5
		c0-1.3,0.6-2.5,1.7-3.6l0.2-0.2c0.7-0.7,1.6-1.3,2.4-1.6c0.9-0.3,1.7-0.4,2.6-0.2s1.6,0.6,2.2,1.2c1,1,1.4,2,1.3,3.2
		c-0.1,1.2-0.8,2.4-1.9,3.5l-0.5,0.5l-5.1-5.1c-0.7,0.8-1.1,1.6-1.1,2.4c0,0.9,0.2,1.6,0.9,2.2c0.4,0.5,0.9,0.8,1.4,0.9
		c0.5,0.1,1,0.2,1.6,0.1l0.2,1.4C251.9,271.2,250.4,270.7,249.2,269.4z M253.9,256l-3.2-3.2l-9,9l-1.3-1.3l9-9l-3.2-3.2l1.1-1.1
		l7.8,7.8L253.9,256z"/>
	<path d="M483.6,161.2v-2.3c0-1.7-0.5-2.5-1.5-2.5s-1.5,0.8-1.5,2.4v2.5H483.6z M485.1,161.2h3.2v-3c0-0.8-0.1-1.3-0.4-1.7
		s-0.7-0.6-1.2-0.6c-1.1,0-1.6,0.8-1.6,2.3V161.2z M489.7,163h-10.6v-4.1c0-1.4,0.2-2.5,0.7-3.2s1.2-1.1,2.2-1.1
		c0.5,0,0.9,0.1,1.3,0.4c0.4,0.3,0.7,0.7,0.9,1.3c0.1-0.6,0.4-1.2,0.9-1.5c0.4-0.4,1-0.6,1.6-0.6c1,0,1.7,0.4,2.2,1.1
		c0.5,0.7,0.8,1.7,0.8,3V163z M484.5,173.2c1.2,0,2.1-0.3,2.8-0.8c0.7-0.5,1.1-1.3,1.1-2.2c0-0.9-0.4-1.6-1.1-2.2
		c-0.7-0.5-1.7-0.8-3-0.8c-1.2,0-2.1,0.3-2.8,0.8s-1.1,1.3-1.1,2.2c0,0.9,0.4,1.6,1.1,2.1C482.2,173,483.2,173.2,484.5,173.2z
		 M484.3,175c-1,0-2-0.2-2.8-0.6c-0.8-0.4-1.5-1-1.9-1.7c-0.4-0.7-0.7-1.5-0.7-2.5c0-1.4,0.5-2.6,1.5-3.5c1-0.9,2.3-1.3,4-1.3h0.1
		c1,0,2,0.2,2.8,0.6c0.8,0.4,1.5,1,1.9,1.7c0.5,0.7,0.7,1.6,0.7,2.5c0,1.4-0.5,2.6-1.5,3.5c-1,0.9-2.3,1.3-3.9,1.3H484.3z
		 M485.2,182.1v1.3h4.5v1.8h-10.6v-1.8h4.5v-1.2l-4.5-3.6v-2.2l5.1,4.2l5.5-4.5v2.3L485.2,182.1z M479.1,190.1v-1.8h10.6v1.8H482
		l7.7,4.9v1.8h-10.6V195h7.7L479.1,190.1z M489.7,199.8v1.8h-4.5v4.9h4.5v1.8h-10.6v-1.8h4.6v-4.9h-4.6v-1.8H489.7z M485.1,215.3
		v1.3h4.6v1.8h-4.6v1.3l4.6,3v2.3l-5.5-3.8l-5.1,3.4v-2.2l4.4-2.7v-1.2h-4.4v-1.8h4.4v-1.2l-4.4-2.7v-2.2l5.1,3.4l5.5-3.8v2.3
		L485.1,215.3z M484.5,233.8c1.2,0,2.1-0.3,2.8-0.8c0.7-0.5,1.1-1.3,1.1-2.2c0-0.9-0.4-1.7-1.1-2.2c-0.7-0.5-1.7-0.8-3-0.8
		c-1.2,0-2.1,0.3-2.8,0.8c-0.7,0.6-1.1,1.3-1.1,2.2c0,0.9,0.4,1.6,1.1,2.2C482.2,233.6,483.2,233.8,484.5,233.8z M484.3,235.7
		c-1,0-2-0.2-2.8-0.6c-0.8-0.4-1.5-1-1.9-1.7c-0.4-0.7-0.7-1.6-0.7-2.5c0-1.4,0.5-2.6,1.5-3.5c1-0.9,2.3-1.3,4-1.3h0.1
		c1,0,2,0.2,2.8,0.6c0.8,0.4,1.5,1,1.9,1.7c0.5,0.7,0.7,1.6,0.7,2.5c0,1.4-0.5,2.6-1.5,3.5c-1,0.9-2.3,1.3-3.9,1.3H484.3z
		 M479.1,238.1h10.6v1.8h-9.1v3.6l3.9,0.2c1.8,0.1,3.1,0.4,3.9,0.9c0.8,0.5,1.2,1.3,1.2,2.3v0.7h-1.6l0-0.5c-0.1-0.6-0.4-1-1-1.3
		c-0.6-0.2-1.7-0.4-3.4-0.5l-4.5-0.2V238.1z M488.3,254.1c0-0.6-0.1-1.1-0.4-1.6c-0.3-0.5-0.7-0.9-1.1-1.1h-2.2v1.4
		c0,2.2,0.6,3.3,1.9,3.3c0.6,0,1-0.2,1.3-0.6C488.2,255.2,488.3,254.7,488.3,254.1z M489.7,251.1c-0.2,0.1-0.6,0.2-1.1,0.2
		c0.9,0.8,1.3,1.8,1.3,3c0,1-0.3,1.9-0.9,2.6c-0.6,0.7-1.3,1-2.2,1c-1.1,0-1.9-0.4-2.6-1.2c-0.6-0.8-0.9-2-0.9-3.5v-1.8h-0.8
		c-0.6,0-1.1,0.2-1.5,0.6c-0.4,0.4-0.6,0.9-0.6,1.7c0,0.7,0.2,1.2,0.5,1.6c0.3,0.4,0.7,0.7,1.2,0.7v1.8c-0.5,0-1-0.2-1.5-0.6
		c-0.5-0.4-0.9-0.9-1.2-1.5c-0.3-0.6-0.4-1.3-0.4-2.1c0-1.2,0.3-2.2,0.9-2.9c0.6-0.7,1.4-1,2.5-1.1h4.9c1,0,1.7-0.1,2.3-0.4h0.2
		V251.1z M482,262c-0.5,0-0.9,0.2-1.2,0.6s-0.4,0.9-0.4,1.5c0,0.6,0.2,1.2,0.5,1.6c0.3,0.4,0.7,0.6,1.2,0.6v1.8
		c-0.9,0-1.7-0.4-2.2-1.2c-0.6-0.8-0.9-1.7-0.9-2.9c0-1.2,0.3-2.2,0.8-2.9s1.3-1,2.3-1c0.5,0,0.9,0.1,1.3,0.4
		c0.4,0.3,0.7,0.7,0.9,1.2c0.4-1.2,1.2-1.8,2.5-1.8c1,0,1.7,0.4,2.3,1.1c0.6,0.7,0.9,1.7,0.9,3c0,1.2-0.3,2.2-0.9,3
		c-0.6,0.8-1.4,1.2-2.4,1.2v-1.8c0.5,0,1-0.2,1.3-0.7c0.4-0.5,0.6-1,0.6-1.7s-0.2-1.2-0.5-1.7c-0.3-0.4-0.7-0.6-1.2-0.6
		c-0.6,0-1,0.2-1.3,0.5c-0.3,0.4-0.4,0.9-0.4,1.7v1.8h-1.5v-2C483.5,262.6,483,262,482,262z M480.6,274.5v3.6h9.1v1.8h-9.1v3.5h-1.5
		v-8.8H480.6z M488.3,289.7c0-0.6-0.1-1.1-0.4-1.6c-0.3-0.5-0.7-0.9-1.1-1.1h-2.2v1.4c0,2.2,0.6,3.3,1.9,3.3c0.6,0,1-0.2,1.3-0.6
		C488.2,290.8,488.3,290.3,488.3,289.7z M489.7,286.7c-0.2,0.1-0.6,0.2-1.1,0.2c0.9,0.8,1.3,1.9,1.3,3c0,1-0.3,1.9-0.9,2.6
		c-0.6,0.7-1.3,1-2.2,1c-1.1,0-1.9-0.4-2.6-1.3c-0.6-0.8-0.9-2-0.9-3.5V287h-0.8c-0.6,0-1.1,0.2-1.5,0.6c-0.4,0.4-0.6,0.9-0.6,1.7
		c0,0.6,0.2,1.2,0.5,1.6c0.3,0.4,0.7,0.7,1.2,0.7v1.8c-0.5,0-1-0.2-1.5-0.6c-0.5-0.4-0.9-0.9-1.2-1.5c-0.3-0.6-0.4-1.4-0.4-2.1
		c0-1.2,0.3-2.2,0.9-2.9c0.6-0.7,1.4-1,2.5-1.1h4.9c1,0,1.7-0.1,2.3-0.4h0.2V286.7z M483.6,302.7v-2.3c0-1.7-0.5-2.5-1.5-2.5
		s-1.5,0.8-1.5,2.4v2.5H483.6z M485.1,302.7h3.2v-3c0-0.8-0.1-1.3-0.4-1.7c-0.3-0.4-0.7-0.6-1.2-0.6c-1.1,0-1.6,0.8-1.6,2.3V302.7z
		 M489.7,304.5h-10.6v-4.1c0-1.4,0.2-2.5,0.7-3.2c0.5-0.8,1.2-1.1,2.2-1.1c0.5,0,0.9,0.1,1.3,0.4c0.4,0.3,0.7,0.7,0.9,1.3
		c0.1-0.6,0.4-1.1,0.9-1.5c0.4-0.4,1-0.6,1.6-0.6c1,0,1.7,0.4,2.2,1.1c0.5,0.7,0.8,1.7,0.8,3V304.5z M483,311l-3.9-2.3v-2.1l5.2,3.5
		l5.3-3.6v2.1l-4,2.4l4,2.4v2.1l-5.3-3.6l-5.2,3.5v-2.1L483,311z M488.3,321.9c0-0.6-0.1-1.1-0.4-1.6c-0.3-0.5-0.7-0.9-1.1-1.1h-2.2
		v1.4c0,2.2,0.6,3.3,1.9,3.3c0.6,0,1-0.2,1.3-0.6C488.2,323,488.3,322.5,488.3,321.9z M489.7,318.9c-0.2,0.1-0.6,0.2-1.1,0.2
		c0.9,0.8,1.3,1.8,1.3,3c0,1-0.3,1.9-0.9,2.6c-0.6,0.7-1.3,1-2.2,1c-1.1,0-1.9-0.4-2.6-1.2c-0.6-0.8-0.9-2-0.9-3.5v-1.8h-0.8
		c-0.6,0-1.1,0.2-1.5,0.6c-0.4,0.4-0.6,0.9-0.6,1.7c0,0.6,0.2,1.2,0.5,1.6c0.3,0.4,0.7,0.7,1.2,0.7v1.8c-0.5,0-1-0.2-1.5-0.6
		c-0.5-0.4-0.9-0.9-1.2-1.5c-0.3-0.6-0.4-1.3-0.4-2.1c0-1.2,0.3-2.2,0.9-2.9c0.6-0.7,1.4-1,2.5-1.1h4.9c1,0,1.7-0.1,2.3-0.4h0.2
		V318.9z M479.3,329.7c-0.8,0-1.4,0.3-1.8,0.8c-0.5,0.5-0.7,1.3-0.7,2.3c0,0.8,0.2,1.5,0.7,2.1c0.5,0.6,1,0.8,1.7,0.8v1.9
		c-0.8,0-1.4-0.2-2-0.6c-0.6-0.4-1.1-1-1.4-1.7c-0.3-0.7-0.5-1.6-0.5-2.5c0-1.6,0.4-2.8,1.1-3.7c0.7-0.9,1.7-1.3,3-1.3
		c0.7,0,1.3,0.2,1.8,0.6s1,1,1.3,1.7c0.6-1.7,1.7-2.5,3.3-2.5c1.3,0,2.3,0.5,3,1.4c0.8,1,1.1,2.2,1.1,3.8c0,1-0.2,1.8-0.5,2.6
		c-0.3,0.8-0.8,1.4-1.4,1.8s-1.4,0.6-2.2,0.6V336c0.7,0,1.4-0.3,1.9-0.9c0.5-0.6,0.7-1.3,0.7-2.3c0-1-0.2-1.8-0.7-2.4
		c-0.5-0.6-1.1-0.9-1.9-0.9c-1.7,0-2.5,1-2.5,3.1v1.8h-1.6v-1.8c0-0.9-0.2-1.7-0.6-2.2S480,329.7,479.3,329.7z"/>
	<path d="M756.6,250.9l-4.8,4.8l9,9l-1.3,1.3l-10-10l6.2-6.2L756.6,250.9z M756.9,268.5l-1.3,1.3l-9-9l-5,5l9,9l-1.3,1.3l-10.1-10
		l7.6-7.6L756.9,268.5z M740.6,274.1c-1.2-1.2-2.4-1.9-3.5-2c-1.1-0.1-2.1,0.2-3,1.1c-0.8,0.8-1.2,1.8-1,2.9
		c0.2,1.1,0.8,2.2,1.9,3.4l0.7,0.7c1.1,1.2,2.3,1.8,3.4,2c1.2,0.2,2.2-0.2,3-1c0.9-0.9,1.2-1.8,1.1-2.9c-0.2-1.1-0.8-2.2-2-3.4
		L740.6,274.1z M742.5,273.5c1,1,1.7,2,2.1,3.1c0.4,1.1,0.5,2.1,0.3,3.1c-0.2,1-0.7,1.9-1.6,2.7c-0.8,0.8-1.7,1.3-2.7,1.5
		c-1,0.2-2,0.1-3.1-0.2s-2.1-1-3-2l-0.7-0.7c-1-1-1.7-2-2-3.1c-0.4-1.1-0.5-2.1-0.3-3.1c0.2-1,0.7-1.9,1.5-2.7
		c0.8-0.8,1.7-1.3,2.7-1.6c1-0.2,2-0.1,3.1,0.3c1.1,0.4,2.1,1.1,3.1,2.1L742.5,273.5z M724.8,292l1.6-1.6c1.2-1.2,1.4-2.1,0.7-2.8
		c-0.7-0.7-1.6-0.5-2.8,0.6l-1.8,1.8L724.8,292z M725.8,293l2.2,2.2l2.1-2.1c0.5-0.5,0.8-1,0.9-1.5c0.1-0.5-0.1-0.9-0.4-1.2
		c-0.7-0.7-1.7-0.6-2.8,0.5L725.8,293z M727.8,297.6l-7.5-7.5l2.9-2.9c1-1,1.9-1.6,2.8-1.8c0.9-0.2,1.7,0.1,2.3,0.7
		c0.4,0.3,0.5,0.8,0.6,1.2c0.1,0.5,0,1-0.3,1.5c0.5-0.3,1.1-0.5,1.7-0.5c0.6,0,1.1,0.3,1.5,0.7c0.7,0.7,1,1.5,0.8,2.3
		s-0.7,1.8-1.6,2.7L727.8,297.6z M713.1,299.2c-0.5,0.5-0.8,1.1-0.7,1.9c0,0.7,0.3,1.5,0.9,2.2l3.8-3.8l-0.1-0.1
		c-0.7-0.6-1.4-0.9-2-1C714.3,298.4,713.7,298.7,713.1,299.2z M720,305.7c-1,1-2.2,1.5-3.5,1.5c-1.3,0-2.5-0.6-3.6-1.7l-0.2-0.2
		c-0.7-0.7-1.3-1.5-1.6-2.4c-0.3-0.9-0.4-1.7-0.2-2.5c0.2-0.8,0.6-1.6,1.2-2.2c1-1,2-1.4,3.2-1.3c1.2,0.1,2.4,0.8,3.5,2l0.5,0.5
		l-5.1,5.1c0.8,0.7,1.6,1.1,2.4,1.1c0.9,0,1.6-0.3,2.2-0.9c0.5-0.5,0.8-0.9,0.9-1.4c0.1-0.5,0.2-1,0.1-1.5l1.4-0.2
		C721.7,303,721.2,304.5,720,305.7z M705.9,304.5l1.3-1.3l7.5,7.5l-1.3,1.3l-5.4-5.5l2,8.9l-1.3,1.3l-7.5-7.5l1.3-1.3l5.5,5.5
		L705.9,304.5z M700.9,311.7l-2.5,2.5l6.4,6.4l-1.3,1.3l-6.4-6.4l-2.5,2.5l-1-1l6.2-6.2L700.9,311.7z M696.5,327.1
		c0.5-0.5,0.7-1,0.8-1.6c0.1-0.6-0.1-1.2-0.5-1.6l1.2-1.2c0.4,0.5,0.7,1,0.8,1.7c0.1,0.7,0.1,1.3-0.2,2c-0.2,0.7-0.6,1.3-1.1,1.8
		c-1,1-2.2,1.5-3.4,1.4c-1.3-0.1-2.5-0.7-3.7-1.9l-0.2-0.2c-0.7-0.7-1.2-1.5-1.5-2.3c-0.3-0.8-0.4-1.7-0.2-2.5
		c0.2-0.8,0.6-1.6,1.3-2.2c0.8-0.8,1.8-1.3,2.8-1.3c1.1,0,2,0.3,2.8,1.1l-1.2,1.2c-0.5-0.5-1.1-0.7-1.7-0.6s-1.2,0.3-1.7,0.8
		c-0.7,0.7-0.9,1.4-0.8,2.2s0.6,1.7,1.5,2.6l0.2,0.2c0.9,0.9,1.7,1.3,2.5,1.5C695.1,328.1,695.8,327.8,696.5,327.1z M688.2,335.3
		c0.4-0.4,0.7-0.9,0.8-1.5c0.2-0.6,0.1-1.1,0-1.6l-1.5-1.5l-1,1c-1.6,1.6-1.9,2.8-1,3.7c0.4,0.4,0.8,0.6,1.3,0.5
		C687.3,335.9,687.8,335.7,688.2,335.3z M691.3,334.1c-0.2-0.1-0.5-0.3-1-0.6c0,1.2-0.4,2.2-1.2,3.1c-0.7,0.7-1.5,1.1-2.4,1.2
		c-0.9,0.1-1.7-0.2-2.3-0.9c-0.8-0.8-1.1-1.7-0.9-2.7c0.2-1,0.8-2.1,1.9-3.1l1.2-1.2l-0.6-0.6c-0.4-0.4-0.9-0.7-1.5-0.7
		c-0.5,0-1.1,0.3-1.6,0.8c-0.5,0.5-0.7,1-0.8,1.5c-0.1,0.5,0,1,0.4,1.3l-1.3,1.3c-0.4-0.4-0.6-0.9-0.7-1.5c-0.1-0.6,0-1.2,0.2-1.9
		c0.2-0.7,0.7-1.3,1.2-1.8c0.9-0.9,1.8-1.3,2.7-1.4c0.9-0.1,1.8,0.3,2.5,1l3.4,3.4c0.7,0.7,1.3,1.1,1.9,1.4l0.1,0.1L691.3,334.1z
		 M684.6,340.8l-1.3,1.3l-2.7-2.7c-0.4,0.7-0.9,1.4-1.5,2c-0.9,0.9-1.9,1.4-2.9,1.4c-1,0-1.9-0.4-2.8-1.3l-2.2-2.2l1.3-1.3l2.3,2.3
		c1.1,1.1,2.2,1.1,3.3,0.1c0.6-0.6,1.1-1.2,1.5-1.9l-3.7-3.7l1.3-1.3L684.6,340.8z M669.5,347.4l-3.5-8.1l1.5-1.5l4.8,11.9
		c0.3,0.8,0.5,1.4,0.5,1.8c0,0.4,0,0.9-0.2,1.2c-0.2,0.4-0.5,0.8-0.9,1.2c-0.4,0.4-0.6,0.6-0.8,0.6l-1-1.1l0.7-0.6
		c0.5-0.5,0.6-1.1,0.4-1.8l-0.2-0.5l-0.4-0.9l-10.9-4l1.5-1.5L669.5,347.4z"/>
	<path d="M881.5,516.6c-0.7,0-1.3,0.3-1.8,0.8c-0.5,0.5-0.8,1.3-0.9,2.2h5.3v-0.1c0-0.9-0.3-1.6-0.7-2.1
		C882.9,516.8,882.3,516.6,881.5,516.6z M881.8,526c-1.4,0-2.6-0.5-3.5-1.4s-1.3-2.2-1.3-3.8v-0.3c0-1.1,0.2-2,0.6-2.8
		c0.4-0.8,1-1.5,1.7-1.9c0.7-0.5,1.5-0.7,2.3-0.7c1.4,0,2.4,0.5,3.2,1.4c0.8,0.9,1.1,2.2,1.1,3.9v0.8h-7.2c0,1,0.3,1.9,0.9,2.5
		c0.6,0.6,1.3,1,2.2,1c0.6,0,1.2-0.1,1.6-0.4c0.4-0.3,0.8-0.6,1.2-1l1.1,0.9C884.8,525.3,883.5,526,881.8,526z M875.6,516.7h-3.5
		v9.1h-1.8v-9.1h-3.5v-1.5h8.8V516.7z M860.2,521.3h-1.3v4.5h-1.8v-10.6h1.8v4.5h1.2l3.5-4.5h2.2l-4.2,5.1l4.5,5.5h-2.3L860.2,521.3
		z M849.6,524.5c0.6,0,1.1-0.1,1.6-0.4c0.5-0.3,0.9-0.7,1.1-1.2v-2.2h-1.4c-2.2,0-3.3,0.6-3.3,1.9c0,0.6,0.2,1,0.6,1.3
		C848.5,524.3,849,524.5,849.6,524.5z M852.6,525.8c-0.1-0.2-0.2-0.6-0.3-1.1c-0.8,0.9-1.8,1.3-3,1.3c-1,0-1.9-0.3-2.6-0.9
		c-0.7-0.6-1-1.3-1-2.2c0-1.1,0.4-2,1.2-2.6c0.8-0.6,2-0.9,3.5-0.9h1.8v-0.8c0-0.6-0.2-1.1-0.6-1.5c-0.4-0.4-0.9-0.6-1.7-0.6
		c-0.7,0-1.2,0.2-1.6,0.5c-0.4,0.3-0.7,0.7-0.7,1.2H846c0-0.5,0.2-1,0.6-1.5c0.4-0.5,0.9-0.9,1.5-1.2s1.3-0.4,2.1-0.4
		c1.2,0,2.2,0.3,2.9,0.9c0.7,0.6,1,1.5,1.1,2.5v4.9c0,1,0.1,1.7,0.4,2.3v0.1H852.6z M842,520.5c0-1.2-0.2-2.1-0.8-2.8
		c-0.5-0.7-1.2-1-2.1-1c-1.1,0-1.9,0.5-2.5,1.5v5c0.5,1,1.4,1.4,2.5,1.4c0.9,0,1.5-0.3,2.1-1C841.7,522.8,842,521.8,842,520.5z
		 M843.8,520.7c0,1.6-0.4,2.9-1.1,3.9c-0.7,1-1.7,1.5-3,1.5c-1.3,0-2.3-0.4-3-1.2v5.1h-1.8v-14.6h1.7l0.1,1.2
		c0.7-0.9,1.8-1.4,3.1-1.4c1.3,0,2.3,0.5,3,1.4c0.7,0.9,1.1,2.3,1.1,4V520.7z M828.4,516.6c-0.7,0-1.3,0.3-1.8,0.8
		c-0.5,0.5-0.8,1.3-0.9,2.2h5.3v-0.1c-0.1-0.9-0.3-1.6-0.8-2.1C829.8,516.8,829.2,516.6,828.4,516.6z M828.6,526
		c-1.4,0-2.6-0.5-3.5-1.4c-0.9-0.9-1.4-2.2-1.4-3.8v-0.3c0-1.1,0.2-2,0.6-2.8c0.4-0.8,1-1.5,1.7-1.9c0.7-0.5,1.5-0.7,2.3-0.7
		c1.4,0,2.4,0.5,3.2,1.4c0.8,0.9,1.1,2.2,1.1,3.9v0.8h-7.2c0,1,0.3,1.9,0.9,2.5c0.6,0.6,1.3,1,2.2,1c0.6,0,1.2-0.1,1.6-0.4
		s0.8-0.6,1.2-1l1.1,0.9C831.7,525.3,830.4,526,828.6,526z M822.5,516.7H819v9.1h-1.8v-9.1h-3.5v-1.5h8.8V516.7z M799.6,520.7
		c0,1.2,0.3,2.1,0.8,2.8c0.5,0.7,1.3,1.1,2.2,1.1c0.9,0,1.6-0.4,2.2-1.1c0.5-0.7,0.8-1.7,0.8-3c0-1.2-0.3-2.1-0.8-2.8
		c-0.5-0.7-1.3-1.1-2.2-1.1c-0.9,0-1.6,0.4-2.2,1.1C799.9,518.3,799.6,519.3,799.6,520.7z M797.8,520.5c0-1,0.2-2,0.6-2.8
		c0.4-0.8,1-1.5,1.7-1.9c0.7-0.5,1.6-0.7,2.5-0.7c1.4,0,2.6,0.5,3.5,1.5c0.9,1,1.3,2.3,1.3,4v0.1c0,1-0.2,1.9-0.6,2.8
		c-0.4,0.8-1,1.5-1.7,1.9c-0.7,0.5-1.6,0.7-2.5,0.7c-1.4,0-2.6-0.5-3.5-1.5c-0.9-1-1.3-2.3-1.3-4V520.5z M786.9,516.6
		c-0.7,0-1.3,0.3-1.8,0.8c-0.5,0.5-0.8,1.3-0.9,2.2h5.3v-0.1c0-0.9-0.3-1.6-0.7-2.1C788.3,516.8,787.7,516.6,786.9,516.6z
		 M787.1,526c-1.4,0-2.6-0.5-3.5-1.4s-1.3-2.2-1.3-3.8v-0.3c0-1.1,0.2-2,0.6-2.8c0.4-0.8,1-1.5,1.7-1.9c0.7-0.5,1.5-0.7,2.3-0.7
		c1.4,0,2.4,0.5,3.2,1.4c0.8,0.9,1.1,2.2,1.1,3.9v0.8h-7.2c0,1,0.3,1.9,0.9,2.5c0.6,0.6,1.3,1,2.2,1c0.6,0,1.2-0.1,1.6-0.4
		c0.4-0.3,0.8-0.6,1.2-1l1.1,0.9C790.2,525.3,788.9,526,787.1,526z M778,515.3h1.8v10.6H778v-7.7l-4.9,7.7h-1.8v-10.6h1.8v7.7
		L778,515.3z M768.3,525.8h-1.8v-4.5h-4.8v4.5h-1.8v-10.6h1.8v4.6h4.8v-4.6h1.8V525.8z M753.2,516.6c-0.7,0-1.3,0.3-1.8,0.8
		c-0.5,0.5-0.8,1.3-0.9,2.2h5.3v-0.1c-0.1-0.9-0.3-1.6-0.7-2.1C754.6,516.8,754,516.6,753.2,516.6z M753.5,526
		c-1.4,0-2.6-0.5-3.5-1.4c-0.9-0.9-1.4-2.2-1.4-3.8v-0.3c0-1.1,0.2-2,0.6-2.8c0.4-0.8,1-1.5,1.7-1.9c0.7-0.5,1.5-0.7,2.3-0.7
		c1.4,0,2.4,0.5,3.2,1.4c0.8,0.9,1.2,2.2,1.2,3.9v0.8h-7.2c0,1,0.3,1.9,0.9,2.5c0.6,0.6,1.3,1,2.2,1c0.6,0,1.2-0.1,1.6-0.4
		c0.5-0.3,0.8-0.6,1.2-1l1.1,0.9C756.5,525.3,755.2,526,753.5,526z M734.4,515.3v9.1h3.9v-9.1h1.8v9.1h3.8v-9.1h1.8v9.1h1.5L747,529
		h-1.6v-3.1h-12.8v-10.6H734.4z M725.8,517.4c-0.9,0-1.6,0.3-2.1,0.9c-0.5,0.6-0.8,1.4-0.8,2.5v0.2c0,1.1,0.3,2,0.8,2.7
		c0.5,0.7,1.2,1,2.1,1c0.9,0,1.6-0.3,2.1-1c0.5-0.7,0.8-1.6,0.8-2.9c0-1-0.3-1.8-0.8-2.4C727.4,517.7,726.7,517.4,725.8,517.4z
		 M726.1,515.9c1.3,0,2.4,0.5,3.2,1.3c0.8,0.9,1.2,2.1,1.2,3.5v0.2c0,1-0.2,1.9-0.6,2.7c-0.4,0.8-0.9,1.4-1.6,1.8
		c-0.7,0.4-1.6,0.7-2.5,0.7c-1.4,0-2.6-0.5-3.4-1.4c-0.9-0.9-1.3-2.2-1.3-3.8v-0.9c0-2.2,0.4-4,1.2-5.3s2-2.1,3.7-2.4
		c0.9-0.2,1.5-0.4,1.8-0.6c0.3-0.2,0.5-0.6,0.5-1h1.5c0,0.8-0.2,1.4-0.5,1.9c-0.4,0.5-1,0.8-1.8,1l-1.3,0.3
		c-1.1,0.2-1.9,0.7-2.4,1.3c-0.5,0.6-0.9,1.4-1,2.4C723.6,516.4,724.7,515.9,726.1,515.9z M711.4,520.7c0,1.2,0.3,2.1,0.8,2.8
		c0.5,0.7,1.3,1.1,2.2,1.1c0.9,0,1.6-0.4,2.2-1.1c0.5-0.7,0.8-1.7,0.8-3c0-1.2-0.3-2.1-0.8-2.8c-0.5-0.7-1.3-1.1-2.2-1.1
		c-0.9,0-1.6,0.4-2.2,1.1C711.7,518.3,711.4,519.3,711.4,520.7z M709.6,520.5c0-1,0.2-2,0.6-2.8c0.4-0.8,1-1.5,1.7-1.9
		c0.7-0.5,1.5-0.7,2.5-0.7c1.4,0,2.6,0.5,3.5,1.5c0.9,1,1.3,2.3,1.3,4v0.1c0,1-0.2,1.9-0.6,2.8c-0.4,0.8-1,1.5-1.7,1.9
		c-0.7,0.5-1.6,0.7-2.5,0.7c-1.4,0-2.6-0.5-3.5-1.5c-0.9-1-1.3-2.3-1.3-4V520.5z M700,520.7c0,1.2,0.3,2.1,0.8,2.8
		c0.5,0.7,1.3,1.1,2.2,1.1s1.6-0.4,2.2-1.1c0.5-0.7,0.8-1.7,0.8-3c0-1.2-0.3-2.1-0.8-2.8c-0.5-0.7-1.3-1.1-2.2-1.1
		c-0.9,0-1.6,0.4-2.2,1.1S700,519.3,700,520.7z M698.2,520.5c0-1,0.2-2,0.6-2.8c0.4-0.8,1-1.5,1.7-1.9c0.7-0.5,1.6-0.7,2.5-0.7
		c1.4,0,2.6,0.5,3.5,1.5c0.9,1,1.3,2.3,1.3,4v0.1c0,1-0.2,1.9-0.6,2.8c-0.4,0.8-1,1.5-1.7,1.9c-0.7,0.5-1.6,0.7-2.5,0.7
		c-1.4,0-2.6-0.5-3.5-1.5c-0.9-1-1.3-2.3-1.3-4V520.5z M692.4,524.5c0.6,0,1.2-0.2,1.7-0.6s0.8-0.9,0.8-1.5h1.7
		c0,0.6-0.2,1.2-0.6,1.7c-0.4,0.6-0.9,1-1.5,1.3c-0.6,0.3-1.3,0.5-2,0.5c-1.4,0-2.6-0.5-3.4-1.4c-0.8-1-1.3-2.3-1.3-3.9v-0.3
		c0-1,0.2-1.9,0.6-2.7c0.4-0.8,0.9-1.4,1.6-1.9c0.7-0.4,1.5-0.7,2.5-0.7c1.2,0,2.2,0.4,3,1.1c0.8,0.7,1.2,1.6,1.3,2.8h-1.7
		c0-0.7-0.3-1.2-0.8-1.7c-0.5-0.4-1-0.7-1.7-0.7c-0.9,0-1.6,0.3-2.1,1c-0.5,0.7-0.8,1.6-0.8,2.9v0.3c0,1.2,0.2,2.2,0.8,2.8
		S691.5,524.5,692.4,524.5z M676.8,516.6c-0.7,0-1.3,0.3-1.8,0.8c-0.5,0.5-0.8,1.3-0.9,2.2h5.3v-0.1c-0.1-0.9-0.3-1.6-0.7-2.1
		C678.2,516.8,677.6,516.6,676.8,516.6z M677,526c-1.4,0-2.6-0.5-3.5-1.4c-0.9-0.9-1.3-2.2-1.3-3.8v-0.3c0-1.1,0.2-2,0.6-2.8
		c0.4-0.8,1-1.5,1.7-1.9c0.7-0.5,1.5-0.7,2.3-0.7c1.4,0,2.4,0.5,3.2,1.4c0.8,0.9,1.1,2.2,1.1,3.9v0.8H674c0,1,0.3,1.9,0.9,2.5
		c0.6,0.6,1.3,1,2.2,1c0.6,0,1.2-0.1,1.6-0.4s0.8-0.6,1.2-1l1.1,0.9C680.1,525.3,678.8,526,677,526z M662.6,520.7
		c0,1.2,0.3,2.1,0.8,2.8c0.5,0.7,1.3,1.1,2.2,1.1c0.9,0,1.6-0.4,2.2-1.1c0.5-0.7,0.8-1.7,0.8-3c0-1.2-0.3-2.1-0.8-2.8
		c-0.5-0.7-1.3-1.1-2.2-1.1c-0.9,0-1.6,0.4-2.2,1.1C662.8,518.3,662.6,519.3,662.6,520.7z M660.8,520.5c0-1,0.2-2,0.6-2.8
		c0.4-0.8,1-1.5,1.7-1.9c0.7-0.5,1.5-0.7,2.5-0.7c1.4,0,2.6,0.5,3.5,1.5c0.9,1,1.3,2.3,1.3,4v0.1c0,1-0.2,1.9-0.6,2.8
		c-0.4,0.8-1,1.5-1.7,1.9c-0.7,0.5-1.6,0.7-2.5,0.7c-1.4,0-2.6-0.5-3.5-1.5c-0.9-1-1.3-2.3-1.3-4V520.5z M658.3,525.8h-1.8v-4.5
		h-4.9v4.5h-1.8v-10.6h1.8v4.6h4.9v-4.6h1.8V525.8z M642.8,521.2h-1.3v4.6h-1.8v-4.6h-1.3l-3,4.6h-2.3l3.8-5.5l-3.4-5.1h2.2l2.7,4.4
		h1.2v-4.4h1.8v4.4h1.2l2.8-4.4h2.2l-3.4,5.1l3.8,5.5h-2.3L642.8,521.2z M624.3,520.7c0,1.2,0.3,2.1,0.8,2.8
		c0.5,0.7,1.3,1.1,2.2,1.1c0.9,0,1.6-0.4,2.2-1.1c0.5-0.7,0.8-1.7,0.8-3c0-1.2-0.3-2.1-0.8-2.8c-0.5-0.7-1.3-1.1-2.2-1.1
		c-0.9,0-1.6,0.4-2.1,1.1C624.6,518.3,624.3,519.3,624.3,520.7z M622.5,520.5c0-1,0.2-2,0.6-2.8c0.4-0.8,1-1.5,1.7-1.9
		c0.7-0.5,1.5-0.7,2.5-0.7c1.4,0,2.6,0.5,3.5,1.5c0.9,1,1.3,2.3,1.3,4v0.1c0,1-0.2,1.9-0.6,2.8c-0.4,0.8-1,1.5-1.7,1.9
		c-0.7,0.5-1.6,0.7-2.5,0.7c-1.4,0-2.6-0.5-3.5-1.5c-0.9-1-1.3-2.3-1.3-4V520.5z M619.9,511.6v14.2H618v-12.7h-5.1l-0.2,5.6
		c-0.1,1.9-0.3,3.3-0.6,4.3s-0.7,1.7-1.3,2.1c-0.6,0.4-1.3,0.7-2.2,0.7h-0.6v-1.5l0.4,0c0.6-0.1,1.1-0.2,1.4-0.6
		c0.3-0.4,0.6-0.9,0.7-1.7c0.2-0.8,0.3-1.9,0.4-3.5l0.3-6.9H619.9z"/>
	<path d="M792.3,791.6c-0.6,0.6-1.2,0.8-1.9,0.8c-0.7,0-1.4-0.4-2-1c-0.6-0.6-1-1.3-1-2c0-0.7,0.2-1.4,0.8-1.9l1,1
		c-0.3,0.3-0.5,0.7-0.5,1c0,0.3,0.2,0.7,0.5,1c0.3,0.3,0.7,0.5,1,0.5c0.4,0,0.7-0.2,1-0.5L792.3,791.6z M789.2,793.9l1.3,1.3
		l-7.5,7.5l-1.3-1.3l5.5-5.5l-8.9,2l-1.3-1.3l7.5-7.5l1.3,1.3l-5.5,5.5L789.2,793.9z M773.4,785.8c-0.8,0.8-1.3,1.7-1.4,2.6
		c-0.1,0.9,0.1,1.7,0.8,2.3c0.7,0.7,1.4,0.9,2.3,0.8c0.9-0.1,1.8-0.7,2.7-1.6c0.8-0.8,1.3-1.7,1.4-2.6c0.1-0.9-0.1-1.7-0.8-2.3
		c-0.6-0.6-1.4-0.9-2.3-0.8C775.3,784.3,774.4,784.9,773.4,785.8z M772.3,784.4c0.7-0.7,1.5-1.2,2.4-1.5c0.9-0.3,1.7-0.3,2.5-0.2
		c0.8,0.2,1.6,0.6,2.2,1.3c1,1,1.5,2.2,1.4,3.5c-0.1,1.3-0.7,2.6-1.9,3.8l-0.1,0.1c-0.7,0.7-1.5,1.2-2.4,1.5
		c-0.9,0.3-1.7,0.4-2.5,0.2c-0.8-0.2-1.6-0.6-2.3-1.3c-1-1-1.5-2.2-1.4-3.5C770.4,786.9,771,785.6,772.3,784.4L772.3,784.4z
		 M766.7,780l-0.9-0.9l-3.2,3.2l-1.3-1.3l7.5-7.5l1.3,1.3l-3.2,3.2l0.8,0.8l5.7-0.6l1.6,1.5l-6.6,0.6l-0.7,7.1l-1.6-1.6L766.7,780z
		 M766.4,773.2l-2.5-2.5l-6.4,6.4l-1.3-1.3l6.4-6.4l-2.5-2.5l1-1l6.2,6.2L766.4,773.2z M750.2,767.9c0.4,0.4,0.9,0.7,1.5,0.8
		c0.6,0.2,1.1,0.2,1.6,0l1.5-1.5l-1-1c-1.6-1.6-2.8-1.9-3.7-1c-0.4,0.4-0.6,0.8-0.5,1.3C749.5,767,749.8,767.5,750.2,767.9z
		 M751.3,771c0.1-0.2,0.3-0.5,0.6-1c-1.2,0-2.2-0.4-3-1.2c-0.7-0.7-1.1-1.5-1.2-2.4c0-0.9,0.2-1.7,0.9-2.3c0.8-0.8,1.7-1.1,2.7-0.9
		c1,0.2,2.1,0.8,3.1,1.9l1.2,1.2l0.6-0.6c0.5-0.5,0.7-0.9,0.7-1.5c0-0.5-0.3-1-0.8-1.6c-0.5-0.5-1-0.7-1.5-0.8c-0.5-0.1-1,0-1.3,0.4
		l-1.3-1.3c0.4-0.4,0.9-0.6,1.5-0.7c0.6-0.1,1.2,0,1.9,0.2c0.7,0.2,1.2,0.7,1.8,1.2c0.9,0.9,1.3,1.8,1.4,2.7c0,0.9-0.3,1.8-1,2.5
		l-3.4,3.4c-0.7,0.7-1.2,1.3-1.4,1.9l-0.1,0.1L751.3,771z M744.7,764.3l-1.3-1.3l2.7-2.7c-0.7-0.4-1.4-0.9-2-1.5
		c-0.9-0.9-1.4-1.9-1.4-2.9c0-1,0.4-1.9,1.3-2.8l2.2-2.2l1.3,1.3l-2.3,2.3c-1.1,1.1-1.1,2.2-0.1,3.3c0.6,0.6,1.2,1.1,2,1.5l3.7-3.7
		l1.3,1.3L744.7,764.3z M736.6,747.7l1.6,1.6c1.2,1.2,2.2,1.5,2.9,0.8c0.7-0.7,0.5-1.6-0.6-2.8l-1.7-1.8L736.6,747.7z M735.6,748.7
		l-2.2,2.2l2.1,2.1c0.5,0.5,1,0.8,1.5,0.9c0.5,0.1,0.9-0.1,1.2-0.4c0.8-0.7,0.6-1.7-0.5-2.8L735.6,748.7z M731.1,750.7l7.5-7.5
		l2.9,2.9c1,1,1.6,1.9,1.8,2.8c0.2,0.9-0.1,1.7-0.7,2.3c-0.3,0.3-0.8,0.5-1.2,0.6c-0.5,0.1-1,0-1.6-0.3c0.4,0.6,0.5,1.1,0.5,1.7
		c0,0.6-0.3,1.1-0.7,1.5c-0.7,0.7-1.5,1-2.3,0.8c-0.9-0.1-1.8-0.7-2.7-1.6L731.1,750.7z M725.2,737.2l-2.8,2.8l1.9,1.9
		c0.5,0.5,1,0.7,1.5,0.7c0.5,0,1-0.2,1.4-0.6c0.4-0.4,0.6-0.9,0.6-1.4c0-0.5-0.2-1-0.7-1.5L725.2,737.2z M728.7,748.4l-1.3-1.3
		l7.5-7.5l1.3,1.3L728.7,748.4z M726.3,736.1l1.9,1.9c0.8,0.9,1.3,1.8,1.3,2.7c0.1,0.9-0.3,1.8-1,2.5c-0.7,0.8-1.6,1.1-2.6,1
		c-1-0.1-1.9-0.5-2.7-1.4l-3.2-3.2l7.5-7.5l1.3,1.3L726.3,736.1z M720.9,732.9c0.9-0.8,1.3-1.7,1.5-2.5c0.1-0.9-0.1-1.6-0.7-2.2
		c-0.8-0.8-1.7-1-2.8-0.7l-3.6,3.6c-0.3,1.1-0.1,2,0.7,2.8c0.6,0.6,1.3,0.9,2.2,0.7C719,734.4,719.9,733.9,720.9,732.9z M722,734.4
		c-1.1,1.1-2.3,1.8-3.5,2c-1.2,0.2-2.3-0.2-3.2-1.1c-0.9-0.9-1.3-1.9-1.3-3l-3.6,3.6l-1.3-1.3l10.3-10.3l1.2,1.2l-0.8,0.9
		c1.2-0.1,2.2,0.3,3.1,1.2c0.9,0.9,1.3,2,1.1,3.2c-0.2,1.2-0.8,2.4-2,3.6L722,734.4z M714.4,723.2c0.3-0.3,0.5-0.8,0.4-1.2
		c-0.1-0.5-0.3-0.9-0.8-1.4c-0.5-0.5-1-0.7-1.5-0.8c-0.5-0.1-1,0.1-1.3,0.4l-1.3-1.3c0.6-0.7,1.5-0.9,2.4-0.8c1,0.1,1.8,0.6,2.7,1.4
		c0.9,0.9,1.4,1.8,1.5,2.6c0.1,0.9-0.2,1.6-0.9,2.3c-0.3,0.3-0.7,0.5-1.2,0.6c-0.5,0.1-1,0-1.5-0.2c0.6,1.2,0.4,2.2-0.4,3
		c-0.7,0.7-1.5,1-2.4,0.8s-1.8-0.6-2.7-1.5c-0.9-0.9-1.4-1.8-1.5-2.8c-0.1-1,0.1-1.8,0.9-2.6l1.3,1.3c-0.4,0.4-0.5,0.8-0.4,1.4
		c0.1,0.6,0.3,1.1,0.8,1.6c0.5,0.5,1,0.8,1.5,0.8c0.5,0.1,1-0.1,1.3-0.4c0.4-0.4,0.6-0.9,0.5-1.3c-0.1-0.4-0.4-0.9-0.9-1.4l-1.3-1.3
		l1.1-1.1l1.4,1.4C712.9,723.8,713.7,723.9,714.4,723.2z M702.5,713.5l1.7,1.6c1.2,1.2,2.1,1.5,2.8,0.8c0.7-0.7,0.5-1.6-0.6-2.8
		l-1.8-1.7L702.5,713.5z M701.5,714.6l-2.2,2.2l2.1,2.1c0.5,0.5,1,0.8,1.5,0.9c0.5,0.1,0.9-0.1,1.2-0.4c0.7-0.8,0.6-1.7-0.5-2.8
		L701.5,714.6z M696.9,716.6l7.5-7.5l2.9,2.9c1,1,1.6,1.9,1.8,2.8c0.2,0.9-0.1,1.6-0.7,2.3c-0.3,0.3-0.8,0.6-1.2,0.6
		c-0.5,0.1-1,0-1.5-0.3c0.3,0.6,0.5,1.1,0.5,1.7c0,0.6-0.3,1.1-0.7,1.5c-0.7,0.7-1.5,1-2.3,0.8s-1.8-0.7-2.7-1.6L696.9,716.6z
		 M697.4,702.2l1.3,1.3l-7.5,7.5l-1.3-1.3l5.5-5.4l-8.9,2l-1.3-1.3l7.5-7.5l1.3,1.3l-5.5,5.5L697.4,702.2z M677.1,693.4l8.3-3.2
		l1.6,1.6l-7.5,7.5l-1.3-1.3l5.4-5.4l-7.9,3l-0.9-0.9l3.1-8l-5.5,5.5l-1.3-1.3l7.5-7.5l1.6,1.7L677.1,693.4z M673.1,679.7
		c-0.5-0.5-1.1-0.8-1.9-0.7c-0.7,0-1.5,0.3-2.2,0.9l3.7,3.7l0.1-0.1c0.6-0.7,0.9-1.4,1-2C673.9,680.8,673.7,680.2,673.1,679.7z
		 M666.6,686.5c-1-1-1.5-2.2-1.5-3.5c0-1.3,0.6-2.5,1.7-3.6l0.2-0.2c0.8-0.7,1.5-1.3,2.4-1.6c0.9-0.3,1.7-0.4,2.6-0.2
		c0.8,0.2,1.5,0.6,2.1,1.2c1,1,1.4,2,1.3,3.2c-0.1,1.2-0.8,2.4-1.9,3.6L673,686l-5.1-5.1c-0.7,0.8-1.1,1.6-1.1,2.4
		c0,0.9,0.2,1.6,0.9,2.3c0.5,0.5,0.9,0.7,1.4,0.9c0.5,0.1,1,0.1,1.6,0.1l0.2,1.4C669.3,688.2,667.8,687.8,666.6,686.5z M667.8,672.5
		l1.3,1.3l-7.5,7.5l-1.3-1.3l5.5-5.4l-8.9,2l-1.3-1.3l7.5-7.5l1.3,1.3l-5.5,5.5L667.8,672.5z M653.8,667l-0.9-0.9l-3.2,3.2l-1.3-1.3
		l3.2-3.2l-0.9-0.9l-5.3,1.2l-1.6-1.6l6.5-1.2l1.2-6l1.6,1.5l-1.2,5l0.9,0.9l3.1-3.1l1.3,1.3l-3.1,3.1l0.9,0.9l5-1.2l1.6,1.6l-6,1.2
		l-1.2,6.5l-1.6-1.6L653.8,667z M642.3,658.2l7.3-3.9l1.4,1.4l-11.6,5.6c-1.7,0.8-3.1,0.7-4.1-0.4l-0.2-0.3l-0.4-0.6l1-1l0.3,0.4
		c0.4,0.4,0.9,0.7,1.3,0.8c0.4,0.1,0.9-0.1,1.6-0.4l1-0.5l4.7-10.1l1.4,1.4L642.3,658.2z M638.8,650.9c0.8-0.8,1.3-1.7,1.5-2.5
		c0.1-0.8-0.1-1.6-0.8-2.2c-0.8-0.8-1.7-1-2.8-0.7l-3.6,3.6c-0.3,1.1-0.1,2,0.7,2.8c0.6,0.6,1.3,0.9,2.2,0.7
		C637,652.4,637.9,651.9,638.8,650.9z M640,652.3c-1.1,1.1-2.3,1.8-3.5,2c-1.2,0.2-2.3-0.2-3.2-1.1c-0.9-0.9-1.3-1.9-1.3-3l-3.6,3.6
		l-1.3-1.3l10.3-10.4l1.2,1.2l-0.8,0.9c1.2-0.1,2.2,0.3,3.1,1.2c0.9,0.9,1.3,2,1.1,3.2c-0.2,1.2-0.8,2.4-2,3.6L640,652.3z
		 M626.5,638.9c-0.8,0.8-1.3,1.7-1.4,2.6c-0.1,0.9,0.1,1.7,0.8,2.3c0.6,0.6,1.4,0.9,2.3,0.8c0.9-0.1,1.8-0.6,2.7-1.6
		c0.8-0.8,1.3-1.7,1.4-2.6c0.1-0.9-0.1-1.7-0.8-2.3c-0.6-0.6-1.4-0.9-2.3-0.8C628.4,637.5,627.5,638,626.5,638.9z M625.4,637.5
		c0.7-0.7,1.5-1.2,2.4-1.5c0.9-0.3,1.7-0.3,2.5-0.1c0.8,0.2,1.6,0.6,2.2,1.3c1,1,1.5,2.2,1.4,3.5c-0.1,1.3-0.7,2.6-1.9,3.8l-0.1,0.1
		c-0.7,0.7-1.5,1.2-2.4,1.5c-0.9,0.3-1.7,0.4-2.5,0.2c-0.8-0.2-1.6-0.6-2.3-1.3c-1-1-1.5-2.2-1.4-3.5
		C623.5,640,624.2,638.7,625.4,637.5L625.4,637.5z M614.9,632.8c0.5,0.5,1,0.7,1.6,0.8c0.6,0.1,1.2-0.1,1.6-0.5l1.2,1.2
		c-0.5,0.4-1,0.7-1.7,0.8c-0.7,0.1-1.3,0.1-2-0.2c-0.7-0.2-1.3-0.6-1.8-1.1c-1-1-1.5-2.2-1.4-3.4c0.1-1.3,0.7-2.5,1.9-3.7l0.2-0.2
		c0.7-0.7,1.5-1.2,2.3-1.5c0.8-0.3,1.7-0.3,2.5-0.2c0.8,0.2,1.6,0.6,2.2,1.3c0.8,0.8,1.3,1.8,1.3,2.8c0.1,1.1-0.3,2-1.1,2.8
		l-1.2-1.2c0.5-0.5,0.7-1.1,0.6-1.7c0-0.6-0.3-1.2-0.8-1.7c-0.7-0.7-1.4-0.9-2.2-0.8c-0.8,0.1-1.7,0.6-2.6,1.5l-0.2,0.2
		c-0.9,0.9-1.4,1.7-1.5,2.5C614,631.4,614.3,632.2,614.9,632.8z M606,615.3c-0.4,0.4-0.5,0.8-0.5,1.2c0,0.5,0.2,0.9,0.6,1.3l2,2
		l2.5-2.5l-1.8-1.8c-0.5-0.5-1-0.7-1.5-0.8C606.8,614.8,606.4,614.9,606,615.3z M613,617.7l-7.5,7.5l-1.3-1.3l2.9-2.9l-1.9-1.9
		l-4.7,1.1l-1.4-1.4l5-1.2c-0.3-0.6-0.4-1.3-0.3-1.9c0.1-0.6,0.4-1.2,0.9-1.7c0.7-0.7,1.5-1,2.4-0.9c0.9,0.1,1.8,0.6,2.7,1.4
		L613,617.7z M603.9,608.7l1.3,1.3l-7.5,7.5l-1.3-1.3l5.5-5.5l-8.9,2l-1.3-1.3l7.5-7.5l1.3,1.3l-5.5,5.5L603.9,608.7z M589.2,600.3
		l1.7,1.6c1.2,1.2,2.2,1.4,2.8,0.7c0.7-0.7,0.5-1.6-0.6-2.8l-1.8-1.8L589.2,600.3z M588.2,601.3l-2.2,2.2l2.1,2.1
		c0.5,0.5,1,0.8,1.5,0.9c0.5,0.1,0.9-0.1,1.2-0.4c0.8-0.7,0.6-1.7-0.5-2.8L588.2,601.3z M583.7,603.3l7.5-7.5l2.9,2.9
		c1,1,1.6,1.9,1.8,2.8c0.2,0.9-0.1,1.7-0.7,2.3c-0.4,0.3-0.8,0.5-1.2,0.6c-0.5,0.1-1,0-1.6-0.3c0.3,0.5,0.5,1.1,0.5,1.7
		c0,0.6-0.3,1.1-0.7,1.5c-0.7,0.7-1.5,1-2.3,0.8c-0.9-0.1-1.8-0.7-2.7-1.6L583.7,603.3z M588.7,595.5l-2.5-2.5l-6.4,6.4l-1.3-1.3
		l6.4-6.4l-2.5-2.5l1-1l6.2,6.2L588.7,595.5z M573.2,591.1c0.5,0.5,1,0.7,1.6,0.8c0.6,0.1,1.2-0.1,1.6-0.5l1.2,1.2
		c-0.4,0.4-1,0.7-1.7,0.8c-0.7,0.1-1.3,0.1-2-0.2c-0.7-0.2-1.3-0.6-1.8-1.1c-1-1-1.5-2.2-1.4-3.5c0.1-1.3,0.7-2.5,1.9-3.7l0.2-0.2
		c0.7-0.7,1.5-1.2,2.3-1.5c0.8-0.3,1.7-0.3,2.5-0.2c0.8,0.2,1.6,0.6,2.2,1.3c0.8,0.8,1.3,1.8,1.3,2.8c0,1.1-0.3,2-1.1,2.8l-1.2-1.2
		c0.5-0.5,0.7-1.1,0.6-1.7c0-0.6-0.3-1.2-0.8-1.7c-0.7-0.7-1.4-0.9-2.2-0.8s-1.7,0.6-2.6,1.5l-0.2,0.2c-0.9,0.9-1.3,1.7-1.5,2.5
		C572.3,589.7,572.6,590.5,573.2,591.1z M576.5,575.8c-0.6,0.6-1.2,0.8-1.9,0.8c-0.7,0-1.4-0.4-2-1c-0.6-0.6-0.9-1.3-1-2
		c0-0.7,0.2-1.4,0.8-1.9l1.1,1c-0.3,0.3-0.5,0.7-0.5,1c0,0.4,0.2,0.7,0.5,1c0.3,0.3,0.7,0.5,1,0.5c0.4,0,0.7-0.2,1-0.5L576.5,575.8z
		 M573.5,578.2l1.3,1.3l-7.5,7.5l-1.3-1.3l5.5-5.5l-8.9,2l-1.3-1.3l7.5-7.5l1.3,1.3l-5.5,5.4L573.5,578.2z M563.2,569.7
		c-0.5-0.5-1.1-0.8-1.9-0.7c-0.7,0-1.5,0.3-2.2,0.9l3.7,3.7l0.1-0.1c0.6-0.7,0.9-1.4,1-2C564,570.9,563.7,570.3,563.2,569.7z
		 M556.7,576.6c-1-1-1.5-2.2-1.5-3.5c0-1.3,0.6-2.5,1.7-3.6l0.2-0.2c0.8-0.7,1.5-1.3,2.4-1.6c0.9-0.3,1.7-0.4,2.6-0.2
		c0.8,0.2,1.5,0.6,2.1,1.2c1,1,1.4,2,1.3,3.2c-0.1,1.2-0.8,2.4-1.9,3.5l-0.5,0.5l-5.1-5.1c-0.7,0.8-1.1,1.6-1.1,2.4
		c0,0.9,0.2,1.6,0.9,2.3c0.5,0.4,0.9,0.7,1.4,0.9c0.5,0.1,1,0.2,1.6,0.1l0.2,1.4C559.3,578.3,557.9,577.8,556.7,576.6z M545.8,563.4
		l4.9,4.9l7.9-7.9l-3.4-3.4l-3.1,2.8c-1.2,1.1-2.4,1.9-3.4,2.5C547.7,562.8,546.7,563.2,545.8,563.4z M549.8,574.4l-1.3-1.3l2.5-2.5
		l-7.2-7.2l-2.5,2.5l-1.3-1.3l3.5-3.6l0.8,0.8c0.9,0,1.9-0.4,3-0.9c1.1-0.6,2.1-1.3,3.2-2.2l4.5-4.1l6,6l-9,9l1.3,1.3L549.8,574.4z"
		/>
	<g>
		<polygon class="st6" points="497.9,548.1 497.9,537.4 494.3,538.7 494.3,530.7 501.9,527.9 505.7,527.9 505.7,548.1 		"/>
		<polygon points="502.7,545.1 500.9,545.1 500.9,533.1 497.3,534.4 497.3,532.8 502.5,530.9 502.7,530.9 		"/>
		<path class="st6" d="M514.7,526.1v-10.7l-3.6,1.3v-8l7.6-2.9h3.8v0.1H537v4.6l-6.9,15.6H514.7z M522.5,523.9l4.9-10.6h-4.9V523.9z
			"/>
		<path d="M534,509.9l-5.9,13.2h-1.9l5.9-12.7h-7.7v-1.5h9.6V509.9z M519.5,523.1h-1.8v-12l-3.6,1.3v-1.6l5.2-1.9h0.3V523.1z"/>
		<path class="st6" d="M625.5,550.3c-2.8,0-4.5-1.2-5.5-2.4c0,0,0,0,0,0.1c-1.4,1.5-3.3,2.3-5.4,2.3c-2.3,0-4.2-0.9-5.6-2.7
			c-1.3-1.6-1.9-3.6-1.9-5.9V541c0-3.3,0.8-5.9,2.3-7.9c1.2-1.5,3.4-3.2,7.3-3.2h3.4v2.2c0.9-1.2,2.7-2.4,5.6-2.4
			c3.1,0,4.9,1.5,5.8,2.7c1.1,1.5,1.7,3.5,1.7,6.3v2.4c0,2.8-0.5,4.9-1.6,6.5C630.5,548.8,628.7,550.3,625.5,550.3z"/>
		<path d="M628.2,538.6c0-1.5-0.2-2.6-0.6-3.3c-0.4-0.7-1.1-1-2-1s-1.6,0.4-2,1c-0.4,0.7-0.6,1.8-0.6,3.2v2.9c0,1.5,0.2,2.7,0.7,3.4
			c0.4,0.7,1.1,1.1,2,1.1c0.9,0,1.6-0.3,2-1c0.4-0.7,0.7-1.8,0.7-3.3V538.6z M630,541c0,2.1-0.4,3.7-1.1,4.7c-0.7,1-1.8,1.5-3.4,1.5
			c-1.5,0-2.6-0.5-3.4-1.5c-0.7-1-1.1-2.5-1.1-4.5v-2.4c0-2.1,0.4-3.7,1.1-4.7c0.7-1,1.8-1.5,3.4-1.5c1.5,0,2.6,0.5,3.4,1.5
			c0.7,1,1.1,2.5,1.1,4.5V541z M614.6,539.3c-0.6,0-1.2,0.2-1.7,0.5s-0.9,0.8-1.1,1.4v0.7c0,1.2,0.3,2.1,0.8,2.8
			c0.5,0.7,1.2,1.1,2,1.1c0.8,0,1.5-0.3,1.9-0.9c0.5-0.6,0.7-1.4,0.7-2.4c0-1-0.2-1.8-0.7-2.4C616,539.6,615.4,539.3,614.6,539.3z
			 M617,532.9v1.5h-0.3c-1.4,0-2.5,0.4-3.4,1.2c-0.8,0.8-1.3,1.9-1.5,3.4c0.8-0.9,1.8-1.3,3.1-1.3c1.2,0,2.2,0.4,3,1.3
			c0.7,0.9,1.1,2,1.1,3.4c0,1.5-0.4,2.6-1.2,3.5c-0.8,0.9-1.9,1.3-3.2,1.3c-1.4,0-2.5-0.5-3.3-1.6c-0.8-1-1.3-2.4-1.3-4V541
			c0-2.6,0.6-4.6,1.7-6c1.1-1.4,2.8-2.1,5-2.1H617z"/>
		<path class="st6" d="M892.7,933.4v-10.7l-2.8,1l-4.3,9.7h-19.5V928l4.1-4.6h-4.4v-3c0-2.1,0.8-4,2.2-5.3c1.4-1.4,3.3-2,5.5-2
			c1.3,0,2.4,0.2,3.4,0.7v-0.5h15.6v1.5l4.2-1.6h3.8v20.3H892.7z M880.5,926l2.4-5.3h-2.2c-0.2,1.7-1.1,3.4-2.6,5.3H880.5z"/>
		<path d="M897.5,930.4h-1.8v-12l-3.6,1.3v-1.6l5.2-2h0.3V930.4z M889.6,917.2l-5.9,13.2h-1.9l5.9-12.7H880v-1.5h9.6V917.2z
			 M878.5,930.4h-9.3v-1.3l4.9-5.5c0.7-0.8,1.2-1.5,1.5-2c0.3-0.5,0.4-1.1,0.4-1.6c0-0.7-0.2-1.4-0.7-1.8c-0.5-0.5-1-0.7-1.8-0.7
			c-0.9,0-1.6,0.3-2.1,0.8s-0.8,1.2-0.8,2.1h-1.8c0-1.3,0.4-2.4,1.3-3.2c0.8-0.8,2-1.2,3.4-1.2c1.3,0,2.4,0.3,3.1,1
			c0.8,0.7,1.2,1.6,1.2,2.8c0,1.4-0.9,3.1-2.7,5l-3.8,4.1h7.1V930.4z"/>
		<path class="st6" d="M500.1,748.2v-3.9c-0.2,0.3-0.4,0.6-0.6,0.9c-1.7,2-4.1,3-7.2,3h-3.4v-6.9c-0.5-0.5-0.9-1.2-1.2-1.9
			c-0.5-1.1-0.8-2.4-0.8-3.7c0-1.4,0.3-2.7,0.8-3.9c0.6-1.3,1.5-2.3,2.7-3c1.2-0.7,2.5-1.1,3.9-1.1c2.3,0,4.2,0.9,5.6,2.6
			c0.5-0.6,1.1-1.1,1.7-1.5c1.2-0.7,2.5-1.1,3.9-1.1c2.4,0,4.3,1,5.7,2.8c1.2,1.6,1.8,3.6,1.8,6.1v0.5c0,3.5-0.8,6.2-2.4,8
			c-1.7,2-4.1,3-7.2,3h0H500.1z"/>
		<path d="M505.5,738.9c0.6,0,1.2-0.2,1.7-0.5c0.5-0.4,0.9-0.8,1.1-1.4v-0.7c0-1.2-0.3-2.2-0.8-2.9c-0.5-0.8-1.2-1.1-2-1.1
			c-0.8,0-1.4,0.3-1.9,0.9c-0.5,0.6-0.7,1.4-0.7,2.4c0,1,0.2,1.8,0.7,2.4C504.1,738.6,504.7,738.9,505.5,738.9z M508.3,738.9
			c-0.4,0.5-0.8,0.8-1.3,1.1c-0.5,0.3-1.1,0.4-1.7,0.4c-0.8,0-1.5-0.2-2.2-0.6c-0.6-0.4-1.1-1-1.4-1.7c-0.3-0.7-0.5-1.5-0.5-2.4
			c0-1,0.2-1.8,0.5-2.6c0.4-0.8,0.9-1.3,1.5-1.8c0.7-0.4,1.4-0.6,2.3-0.6c1.4,0,2.5,0.5,3.3,1.6c0.8,1.1,1.2,2.5,1.2,4.3v0.5
			c0,2.8-0.5,4.8-1.6,6.1c-1.1,1.3-2.8,1.9-5,2h-0.4v-1.5h0.4c1.5,0,2.6-0.4,3.4-1.2C507.8,741.8,508.2,740.6,508.3,738.9z
			 M494.3,738.9c0.6,0,1.2-0.2,1.7-0.5c0.5-0.4,0.9-0.8,1.1-1.4v-0.7c0-1.2-0.3-2.2-0.8-2.9c-0.5-0.8-1.2-1.1-2-1.1
			c-0.8,0-1.4,0.3-1.9,0.9c-0.5,0.6-0.7,1.4-0.7,2.4c0,1,0.2,1.8,0.7,2.4C492.9,738.6,493.5,738.9,494.3,738.9z M497,738.9
			c-0.4,0.5-0.8,0.8-1.4,1.1c-0.5,0.3-1.1,0.4-1.7,0.4c-0.8,0-1.5-0.2-2.1-0.6c-0.6-0.4-1.1-1-1.4-1.7c-0.3-0.7-0.5-1.5-0.5-2.4
			c0-1,0.2-1.8,0.5-2.6c0.4-0.8,0.9-1.3,1.5-1.8c0.7-0.4,1.4-0.6,2.3-0.6c1.4,0,2.5,0.5,3.3,1.6c0.8,1.1,1.2,2.5,1.2,4.3v0.5
			c0,2.8-0.5,4.8-1.6,6.1c-1.1,1.3-2.8,1.9-5,2h-0.4v-1.5h0.4c1.5,0,2.6-0.4,3.4-1.2C496.5,741.8,497,740.6,497,738.9z"/>
		<path class="st6" d="M368.6,676.2c-2.1,0-3.9-0.6-5.3-1.8c-1.5-1.3-2.2-3.1-2.2-5.2c0-1.3,0.4-2.6,1.1-3.6c-0.5-0.9-0.7-1.9-0.7-3
			c0-2,0.7-3.8,2.1-5.1c1.4-1.2,3.1-1.8,5.1-1.8c2,0,3.7,0.6,5,1.8c0.2,0.2,0.3,0.3,0.5,0.5c0.4-0.5,1-0.9,1.5-1.3
			c1.2-0.7,2.5-1.1,3.9-1.1c2.3,0,4.3,0.9,5.7,2.7c1.2,1.6,1.8,3.7,1.8,6.1v0.5c0,3.5-0.8,6.2-2.4,8c-1.7,2-4.1,3-7.2,3h-3.4v-2
			c-0.1,0.1-0.2,0.2-0.3,0.3C372.5,675.5,370.7,676.2,368.6,676.2z"/>
		<path d="M379.6,666.7c0.6,0,1.2-0.2,1.7-0.5c0.5-0.4,0.9-0.8,1.1-1.4v-0.7c0-1.2-0.3-2.1-0.8-2.9c-0.5-0.7-1.2-1.1-2-1.1
			c-0.8,0-1.4,0.3-1.9,0.9c-0.5,0.6-0.7,1.4-0.7,2.4c0,1,0.2,1.8,0.7,2.4C378.2,666.4,378.8,666.7,379.6,666.7z M382.4,666.7
			c-0.4,0.5-0.8,0.8-1.3,1.1c-0.5,0.3-1.1,0.4-1.7,0.4c-0.8,0-1.5-0.2-2.1-0.6c-0.6-0.4-1.1-1-1.4-1.7c-0.3-0.7-0.5-1.5-0.5-2.4
			c0-0.9,0.2-1.8,0.5-2.6c0.4-0.8,0.9-1.3,1.5-1.8c0.7-0.4,1.4-0.6,2.3-0.6c1.4,0,2.5,0.5,3.3,1.6c0.8,1.1,1.2,2.5,1.2,4.3v0.5
			c0,2.8-0.5,4.8-1.6,6.1c-1.1,1.3-2.8,1.9-5,2h-0.4v-1.5h0.4c1.5,0,2.6-0.4,3.4-1.2C381.9,669.5,382.3,668.3,382.4,666.7z
			 M368.6,660c-0.7,0-1.3,0.2-1.7,0.7c-0.4,0.4-0.7,1-0.7,1.8c0,0.7,0.2,1.3,0.6,1.8c0.4,0.4,1,0.7,1.7,0.7c0.7,0,1.3-0.2,1.7-0.7
			c0.4-0.4,0.6-1,0.6-1.8c0-0.7-0.2-1.3-0.7-1.8C369.9,660.3,369.3,660,368.6,660z M371.4,669.1c0-0.8-0.2-1.4-0.8-1.9
			c-0.5-0.5-1.2-0.8-2-0.8s-1.5,0.2-2,0.7c-0.5,0.5-0.7,1.2-0.7,1.9c0,0.8,0.2,1.5,0.7,1.9c0.5,0.5,1.1,0.7,2,0.7
			c0.8,0,1.5-0.2,2-0.7C371.1,670.5,371.4,669.9,371.4,669.1z M372.8,662.5c0,0.7-0.2,1.3-0.6,1.9c-0.4,0.6-0.9,1-1.5,1.3
			c0.7,0.3,1.3,0.8,1.8,1.4c0.4,0.6,0.6,1.3,0.6,2.1c0,1.2-0.4,2.2-1.2,2.9c-0.8,0.7-1.9,1.1-3.3,1.1c-1.4,0-2.5-0.4-3.3-1.1
			c-0.8-0.7-1.2-1.7-1.2-2.9c0-0.8,0.2-1.5,0.6-2.1c0.4-0.6,1-1.1,1.7-1.4c-0.6-0.3-1.1-0.8-1.5-1.3c-0.4-0.5-0.5-1.2-0.5-1.9
			c0-1.2,0.4-2.1,1.1-2.9c0.8-0.7,1.8-1,3-1c1.2,0,2.3,0.4,3,1C372.4,660.3,372.8,661.3,372.8,662.5z"/>
		<path class="st6" d="M420.2,550.3c-2.1,0-3.8-0.6-5.2-1.8c-1.5-1.3-2.3-3.1-2.3-5.1v-3h2.9v-0.7h-2.8v-3c0-2,0.8-3.7,2.2-5
			c1.4-1.3,3.1-1.9,5.2-1.9c1.3,0,2.5,0.2,3.6,0.7v-0.6h15.6v4.7l-6.9,15.6h-8.5l0.4-0.8C423.1,550,421.7,550.3,420.2,550.3z
			 M426.7,539.6c0.5,0.7,0.8,1.5,0.9,2.4l2.1-4.7h-2.3C427.3,538.2,427.1,538.9,426.7,539.6z"/>
		<path d="M436.3,533.9l-5.9,13.2h-1.9l5.9-12.7h-7.7v-1.5h9.6V533.9z M418.6,539.1h1.4c0.8,0,1.5-0.2,2-0.7c0.5-0.4,0.7-1,0.7-1.8
			c0-1.7-0.8-2.5-2.5-2.5c-0.8,0-1.4,0.2-1.9,0.7c-0.5,0.4-0.7,1-0.7,1.8h-1.8c0-1.1,0.4-2.1,1.2-2.8c0.8-0.7,1.9-1.1,3.1-1.1
			c1.3,0,2.4,0.3,3.2,1.1c0.8,0.7,1.1,1.7,1.1,3c0,0.6-0.2,1.2-0.6,1.8c-0.4,0.6-0.9,1-1.6,1.3c0.8,0.2,1.4,0.7,1.8,1.2
			c0.4,0.6,0.6,1.3,0.6,2.1c0,1.3-0.4,2.3-1.2,3c-0.8,0.8-1.9,1.1-3.2,1.1c-1.3,0-2.4-0.4-3.2-1.1c-0.8-0.7-1.3-1.7-1.3-2.9h1.8
			c0,0.8,0.2,1.3,0.7,1.8c0.5,0.4,1.1,0.7,2,0.7c0.9,0,1.5-0.2,2-0.7c0.5-0.5,0.7-1.1,0.7-2c0-0.8-0.3-1.5-0.8-1.9
			c-0.5-0.4-1.2-0.7-2.2-0.7h-1.4V539.1z"/>
		<polygon class="st6" points="488,534.6 488,523.9 484.6,525.1 484.6,534.6 476.7,534.6 476.7,523.9 473.1,525.2 473.1,517.2 
			480.7,514.3 484.6,514.3 484.6,517.1 492,514.3 495.8,514.3 495.8,534.6 		"/>
		<path d="M492.8,531.6H491v-12l-3.6,1.3v-1.7l5.2-1.9h0.3V531.6z M481.6,531.6h-1.8v-12l-3.6,1.3v-1.7l5.2-1.9h0.3V531.6z"/>
	</g>
	<path d="M293.6,928.6c0.6,0,1.1-0.1,1.6-0.4c0.5-0.3,0.9-0.7,1.1-1.1v-2.2h-1.4c-2.2,0-3.3,0.7-3.3,2c0,0.6,0.2,1,0.6,1.3
		C292.6,928.5,293,928.6,293.6,928.6z M296.6,930c-0.1-0.2-0.2-0.6-0.2-1.1c-0.8,0.9-1.9,1.3-3,1.3c-1,0-1.9-0.3-2.6-0.9
		c-0.7-0.6-1-1.3-1-2.2c0-1.1,0.4-2,1.3-2.6s2-0.9,3.5-0.9h1.8v-0.8c0-0.6-0.2-1.1-0.6-1.5c-0.4-0.4-0.9-0.6-1.7-0.6
		c-0.6,0-1.2,0.2-1.6,0.5c-0.4,0.3-0.6,0.7-0.6,1.2H290c0-0.5,0.2-1,0.6-1.5c0.4-0.5,0.9-0.9,1.5-1.2c0.7-0.3,1.4-0.4,2.1-0.4
		c1.2,0,2.2,0.3,2.9,0.9c0.7,0.6,1.1,1.4,1.1,2.5v4.9c0,1,0.1,1.7,0.4,2.3v0.2H296.6z M280.1,928.5h4.9v-7.4h-3.2l-0.1,2.5
		C281.5,925.7,281,927.4,280.1,928.5z M278,928.5l0.6-0.8c0.7-0.9,1.1-2.3,1.2-4.1l0.2-4.2h6.8v9.1h1.4v4.6h-1.8V930h-7.4v3.1h-1.8
		l0-4.6H278z M268,924.8c0,1.2,0.3,2.1,0.8,2.8c0.5,0.7,1.3,1.1,2.2,1.1s1.6-0.4,2.2-1.1c0.5-0.7,0.8-1.7,0.8-3
		c0-1.2-0.3-2.1-0.8-2.8c-0.5-0.7-1.3-1.1-2.2-1.1c-0.9,0-1.6,0.4-2.2,1.1C268.2,922.5,268,923.5,268,924.8z M266.2,924.6
		c0-1,0.2-2,0.6-2.8c0.4-0.8,1-1.5,1.7-1.9c0.7-0.5,1.6-0.7,2.5-0.7c1.4,0,2.6,0.5,3.5,1.5c0.9,1,1.3,2.3,1.3,4v0.1
		c0,1-0.2,2-0.6,2.8c-0.4,0.8-1,1.5-1.7,1.9c-0.7,0.5-1.6,0.7-2.5,0.7c-1.4,0-2.6-0.5-3.5-1.5c-0.9-1-1.3-2.3-1.3-4V924.6z
		 M265.1,920.9h-4.9v9.1h-1.8v-10.6h6.7V920.9z M249,921.5c0-1.5-0.2-2.6-0.6-3.3c-0.4-0.7-1.1-1-2-1c-0.9,0-1.6,0.3-2,1
		c-0.4,0.7-0.6,1.8-0.7,3.2v2.9c0,1.5,0.2,2.7,0.7,3.4c0.4,0.7,1.1,1.1,2,1.1c0.9,0,1.6-0.3,2-1c0.4-0.7,0.6-1.8,0.7-3.3V921.5z
		 M250.8,923.9c0,2.1-0.4,3.7-1.1,4.7c-0.7,1-1.9,1.5-3.4,1.5c-1.5,0-2.6-0.5-3.4-1.5c-0.7-1-1.1-2.5-1.1-4.5v-2.4
		c0-2.1,0.4-3.7,1.1-4.7c0.7-1,1.9-1.5,3.4-1.5c1.5,0,2.7,0.5,3.4,1.5c0.7,1,1.1,2.5,1.1,4.5V923.9z M240,930h-9.3v-1.3l4.9-5.5
		c0.7-0.8,1.2-1.5,1.5-2c0.3-0.5,0.4-1.1,0.4-1.6c0-0.7-0.2-1.3-0.7-1.8c-0.4-0.5-1.1-0.7-1.8-0.7c-0.9,0-1.6,0.3-2.1,0.8
		c-0.5,0.5-0.7,1.2-0.7,2.1h-1.8c0-1.3,0.4-2.4,1.3-3.2c0.8-0.8,2-1.2,3.4-1.2c1.3,0,2.4,0.3,3.1,1c0.8,0.7,1.2,1.6,1.2,2.8
		c0,1.4-0.9,3.1-2.7,5l-3.8,4.1h7.1V930z M226.5,921.5c0-1.5-0.2-2.6-0.6-3.3c-0.4-0.7-1.1-1-2-1c-0.9,0-1.6,0.3-2,1
		c-0.4,0.7-0.7,1.8-0.7,3.2v2.9c0,1.5,0.2,2.7,0.7,3.4s1.1,1.1,2,1.1c0.9,0,1.6-0.3,2-1c0.4-0.7,0.7-1.8,0.7-3.3V921.5z
		 M228.3,923.9c0,2.1-0.4,3.7-1.1,4.7c-0.7,1-1.9,1.5-3.4,1.5c-1.5,0-2.6-0.5-3.4-1.5c-0.7-1-1.1-2.5-1.1-4.5v-2.4
		c0-2.1,0.4-3.7,1.1-4.7c0.7-1,1.9-1.5,3.4-1.5c1.5,0,2.6,0.5,3.4,1.5c0.7,1,1.1,2.5,1.1,4.5V923.9z M217.5,930h-9.3v-1.3l4.9-5.5
		c0.7-0.8,1.2-1.5,1.5-2c0.3-0.5,0.4-1.1,0.4-1.6c0-0.7-0.2-1.3-0.7-1.8c-0.4-0.5-1-0.7-1.8-0.7c-0.9,0-1.6,0.3-2.1,0.8
		c-0.5,0.5-0.7,1.2-0.7,2.1h-1.8c0-1.3,0.4-2.4,1.3-3.2c0.9-0.8,2-1.2,3.4-1.2c1.3,0,2.4,0.3,3.1,1c0.8,0.7,1.2,1.6,1.2,2.8
		c0,1.4-0.9,3.1-2.7,5l-3.8,4.1h7.1V930z M194.5,924.5v4h2.7c0.7,0,1.2-0.2,1.6-0.5c0.4-0.3,0.6-0.8,0.6-1.4c0-0.6-0.2-1.1-0.6-1.4
		c-0.4-0.4-0.9-0.6-1.5-0.6H194.5z M194.5,923.1h2.8c1.2,0,2.1,0.3,2.8,0.9c0.7,0.6,1,1.5,1,2.5c0,1.1-0.4,1.9-1.1,2.5
		c-0.7,0.6-1.7,1-2.9,1h-4.5v-10.6h1.8V923.1z M189.7,930h-1.8v-4.5H183v4.5h-1.8v-10.6h1.8v4.6h4.9v-4.6h1.8V930z M171,924.8
		c0,1.2,0.3,2.1,0.8,2.8c0.5,0.7,1.3,1.1,2.2,1.1c0.9,0,1.7-0.4,2.2-1.1c0.5-0.7,0.8-1.7,0.8-3c0-1.2-0.3-2.1-0.8-2.8
		c-0.5-0.7-1.3-1.1-2.2-1.1c-0.9,0-1.6,0.4-2.2,1.1C171.3,922.5,171,923.5,171,924.8z M166.7,923.9h2.5c0.1-1.4,0.6-2.5,1.5-3.4
		c0.9-0.9,1.9-1.3,3.3-1.3c1.4,0,2.5,0.5,3.4,1.4c0.9,0.9,1.4,2.2,1.4,3.6l0,0.6c0,1-0.2,2-0.6,2.8c-0.4,0.8-1,1.5-1.7,1.9
		c-0.7,0.4-1.6,0.7-2.5,0.7c-1.4,0-2.5-0.5-3.3-1.3c-0.9-0.9-1.3-2-1.4-3.5h-2.5v4.6h-1.8v-10.6h1.8V923.9z M160,919.4h1.8V930H160
		v-7.7l-4.9,7.7h-1.8v-10.6h1.8v7.7L160,919.4z M138.1,924.8c0,1.2,0.3,2.1,0.8,2.8c0.5,0.7,1.3,1.1,2.2,1.1c0.9,0,1.7-0.4,2.2-1.1
		c0.5-0.7,0.8-1.7,0.8-3c0-1.2-0.3-2.1-0.8-2.8c-0.6-0.7-1.3-1.1-2.2-1.1c-0.9,0-1.6,0.4-2.2,1.1
		C138.4,922.5,138.1,923.5,138.1,924.8z M136.3,924.6c0-1,0.2-2,0.6-2.8c0.4-0.8,1-1.5,1.7-1.9c0.7-0.5,1.6-0.7,2.5-0.7
		c1.4,0,2.6,0.5,3.5,1.5c0.9,1,1.3,2.3,1.3,4v0.1c0,1-0.2,2-0.6,2.8c-0.4,0.8-1,1.5-1.7,1.9c-0.7,0.5-1.6,0.7-2.5,0.7
		c-1.4,0-2.6-0.5-3.5-1.5c-0.9-1-1.3-2.3-1.3-4V924.6z M133.9,930h-1.8v-9.1h-4.9v9.1h-1.8v-10.6h8.5V930z M113.3,917.1
		c-0.7,0-1.3,0.2-1.7,0.7c-0.4,0.4-0.7,1-0.7,1.8c0,0.7,0.2,1.3,0.7,1.8c0.4,0.4,1,0.7,1.7,0.7c0.7,0,1.3-0.2,1.7-0.7
		c0.4-0.4,0.7-1,0.7-1.8c0-0.7-0.2-1.3-0.7-1.8C114.6,917.3,114,917.1,113.3,917.1z M116.1,926.1c0-0.8-0.2-1.4-0.8-1.9
		c-0.5-0.5-1.2-0.8-2-0.8s-1.5,0.2-2,0.7c-0.5,0.5-0.7,1.2-0.7,2c0,0.8,0.2,1.5,0.7,1.9c0.5,0.5,1.2,0.7,2,0.7c0.9,0,1.5-0.2,2-0.7
		C115.8,927.6,116.1,926.9,116.1,926.1z M117.5,919.5c0,0.7-0.2,1.3-0.6,1.9c-0.4,0.5-0.9,1-1.5,1.3c0.7,0.3,1.3,0.8,1.8,1.4
		c0.4,0.6,0.7,1.3,0.7,2.1c0,1.2-0.4,2.2-1.2,2.9c-0.8,0.7-1.9,1.1-3.3,1.1c-1.4,0-2.5-0.4-3.3-1.1c-0.8-0.7-1.2-1.7-1.2-2.9
		c0-0.8,0.2-1.5,0.6-2.1c0.4-0.6,1-1.1,1.7-1.4c-0.6-0.3-1.1-0.8-1.5-1.3c-0.4-0.6-0.5-1.2-0.5-1.9c0-1.2,0.4-2.2,1.2-2.8
		c0.8-0.7,1.8-1.1,3-1.1c1.2,0,2.3,0.4,3,1.1C117.1,917.3,117.5,918.3,117.5,919.5z M103.6,930h-1.8v-12l-3.7,1.3v-1.6l5.2-2h0.3
		V930z M93.6,921.5c0-1.5-0.2-2.6-0.6-3.3c-0.4-0.7-1.1-1-2-1s-1.6,0.3-2,1c-0.4,0.7-0.6,1.8-0.7,3.2v2.9c0,1.5,0.2,2.7,0.7,3.4
		c0.4,0.7,1.1,1.1,2,1.1c0.9,0,1.6-0.3,2-1c0.4-0.7,0.7-1.8,0.7-3.3V921.5z M95.4,923.9c0,2.1-0.4,3.7-1.1,4.7
		c-0.7,1-1.8,1.5-3.4,1.5c-1.5,0-2.6-0.5-3.4-1.5c-0.7-1-1.1-2.5-1.1-4.5v-2.4c0-2.1,0.4-3.7,1.1-4.7c0.7-1,1.9-1.5,3.4-1.5
		c1.5,0,2.7,0.5,3.4,1.5s1.1,2.5,1.1,4.5V923.9z M84.5,930h-9.3v-1.3l4.9-5.5c0.7-0.8,1.2-1.5,1.5-2c0.3-0.5,0.4-1.1,0.4-1.6
		c0-0.7-0.2-1.3-0.7-1.8c-0.4-0.5-1.1-0.7-1.8-0.7c-0.9,0-1.6,0.3-2.1,0.8c-0.5,0.5-0.8,1.2-0.8,2.1h-1.8c0-1.3,0.4-2.4,1.3-3.2
		c0.8-0.8,2-1.2,3.4-1.2c1.3,0,2.4,0.3,3.1,1c0.8,0.7,1.2,1.6,1.2,2.8c0,1.4-0.9,3.1-2.7,5l-3.8,4.1h7.1V930z M64.2,928.7
		c0.6,0,1.2-0.2,1.7-0.6c0.5-0.4,0.8-0.9,0.8-1.5h1.7c0,0.6-0.2,1.2-0.6,1.7c-0.4,0.5-0.9,1-1.5,1.3c-0.6,0.3-1.3,0.5-2,0.5
		c-1.4,0-2.6-0.5-3.4-1.5c-0.9-1-1.3-2.3-1.3-3.9v-0.3c0-1,0.2-1.9,0.6-2.7c0.4-0.8,0.9-1.4,1.6-1.9c0.7-0.4,1.5-0.7,2.5-0.7
		c1.2,0,2.2,0.3,3,1.1c0.8,0.7,1.2,1.6,1.3,2.8h-1.7c0-0.7-0.3-1.2-0.8-1.7c-0.5-0.4-1-0.7-1.7-0.7c-0.9,0-1.6,0.3-2.1,1
		c-0.5,0.7-0.8,1.6-0.8,2.9v0.3c0,1.2,0.2,2.2,0.8,2.8C62.6,928.4,63.3,928.7,64.2,928.7z M53.2,920.4l-3-0.9l0.5-1.5l2.9,1.1
		l-0.1-3.4h1.5l-0.1,3.4l2.9-1.1l0.5,1.5l-3,0.9l1.9,2.6L56,924l-1.8-2.8l-1.8,2.7l-1.2-0.9L53.2,920.4z"/>
</g>
</svg>
